<?xml version="1.0" standalone="no"?>
<!DOCTYPE svg PUBLIC "-//W3C//DTD SVG 1.1//EN" "http://www.w3.org/Graphics/SVG/1.1/DTD/svg11.dtd" >
<svg xmlns="http://www.w3.org/2000/svg">
<metadata>
This is a custom SVG webfont generated by Font Squirrel.
Copyright   : Copyright  2012 by Librerias Gandhi SA de CV All rights reserved
Designer    : Cristobal Henestrosa  Raul Plancarte in collaboration with David Kimura  Gabriela Varela
Foundry     : Cristobal Henestrosa  Raul Plancarte in collaboration with David Kimura  Gabriela Varela
Foundry URL : httpwwwgandhicommx
</metadata>
<defs>
<font id="GandhiSerifItalic" horiz-adv-x="1126" >
<font-face units-per-em="2048" ascent="1567" descent="-481" />
<missing-glyph horiz-adv-x="491" />
<glyph unicode=" "  horiz-adv-x="491" />
<glyph unicode="&#x09;" horiz-adv-x="491" />
<glyph unicode="&#xa0;" horiz-adv-x="491" />
<glyph unicode="!" horiz-adv-x="653" d="M143 86q0 55 36 95t93 40q53 0 85 -34.5t32 -84.5q0 -59 -40 -95t-91 -36t-83 34t-32 81zM281 401q51 723 73 879q18 121 125 121q102 0 103 -105q0 -31 -20.5 -116.5t-53.5 -203.5t-63.5 -220.5t-64.5 -215t-42 -139.5h-57z" />
<glyph unicode="&#x22;" horiz-adv-x="774" d="M256 864l16 459h185l-144 -459h-57zM563 864l17 459h184l-143 -459h-58z" />
<glyph unicode="#" d="M35 383l18 104h234l90 277h-248l18 104h263l108 332h109l-109 -332h283l108 332h109l-109 -332h226l-19 -104h-239l-91 -277h254l-18 -104h-270l-107 -332h-108l106 332h-283l-106 -332h-109l107 332h-217zM395 487h283l90 277h-283z" />
<glyph unicode="$" d="M74 68l43 323h71q6 -336 267 -352l98 561q-165 94 -217 145q-88 86 -88 201q0 172 125 284.5t315 121.5l39 215h80l-39 -217q178 -12 309 -64l-61 -297h-70q0 264 -188 295l-90 -514q70 -39 96.5 -55.5t81.5 -57.5t79.5 -71.5t46 -80.5t21.5 -104q0 -186 -135 -299.5 t-336 -128.5l-37 -206h-79l36 204q-219 10 -368 97zM412 1042q0 -76 45 -126t137 -103l84 473q-115 -8 -190.5 -75t-75.5 -169zM535 41q113 14 194.5 85.5t81.5 186.5q0 78 -45 131.5t-141 112.5z" />
<glyph unicode="%" horiz-adv-x="1601" d="M176 961q0 156 108.5 273.5t268.5 117.5q125 0 190.5 -73t65.5 -185q0 -156 -108.5 -274t-268.5 -118q-125 0 -190.5 73t-65.5 186zM195 29l1187 1323l72 -58l-1188 -1323zM317 954q1 -200 132 -200q106 0 162.5 105.5t56.5 240.5q0 201 -131 200q-106 0 -163 -105 t-57 -241zM840 229q0 156 108.5 274t268.5 118q125 0 190.5 -73t65.5 -186q0 -156 -108.5 -273.5t-268.5 -117.5q-125 0 -190.5 73t-65.5 185zM981 223q0 -201 131 -200q106 0 162.5 105t56.5 241q0 200 -131 200q-106 0 -162.5 -105.5t-56.5 -240.5z" />
<glyph unicode="&#x26;" horiz-adv-x="1419" d="M61 285q0 322 418 467q-88 160 -88 270q0 147 95.5 238.5t261.5 91.5q133 0 218 -66.5t85 -181.5q0 -125 -110 -214t-245 -126l240 -430q102 154 143 305l-135 59l8 41h416l-8 -41l-176 -61q-119 -240 -213 -367q68 -119 117 -167t124 -48h78v-45q-102 -39 -209 -39 q-152 0 -250 152q-180 -152 -385 -152q-156 0 -270.5 81t-114.5 233zM248 315q0 -111 68.5 -182.5t187.5 -71.5q154 0 293 123l-289 516q-121 -53 -190.5 -154.5t-69.5 -230.5zM557 1116q0 -106 94 -272l19 -35q102 39 164.5 115.5t62.5 173.5q0 84 -43 138t-127 54 q-76 0 -123 -49t-47 -125z" />
<glyph unicode="'" horiz-adv-x="466" d="M256 864l16 459h185l-144 -459h-57z" />
<glyph unicode="(" horiz-adv-x="921" d="M113 426q0 385 244.5 729t574.5 453l20 -47q-303 -160 -476 -484.5t-173 -670.5q0 -467 326 -672l-25 -47q-233 98 -362 293.5t-129 445.5z" />
<glyph unicode=")" horiz-adv-x="921" d="M-12 -266q303 160 476 484.5t173 670.5q0 467 -326 672l25 47q233 -98 362 -294t129 -446q0 -385 -244.5 -729t-574.5 -452z" />
<glyph unicode="*" horiz-adv-x="880" d="M147 870l342 127l-296 127l90 121l231 -213l12 340h138l-111 -340l297 209l57 -117l-342 -127l297 -127l-78 -120l-243 213l-11 -340h-137l109 340l-281 -211z" />
<glyph unicode="+" d="M133 569v107h406v401h110v-401h406v-107h-406v-403h-110v403h-406z" />
<glyph unicode="," horiz-adv-x="512" d="M31 -264q66 43 125 112.5t71 122.5h-24q-53 0 -85 32t-32 81q0 61 38 96t89 35q53 0 86 -36t33 -97q0 -90 -67.5 -200.5t-198.5 -192.5z" />
<glyph unicode="-" horiz-adv-x="716" d="M72 457l20 114h574l-21 -114h-573z" />
<glyph unicode="." horiz-adv-x="512" d="M92 90q0 59 40 95t91 36t83 -34t32 -81q0 -55 -36 -95t-93 -40q-53 0 -85 35t-32 84z" />
<glyph unicode="/" horiz-adv-x="1097" d="M-119 -481l1178 2068h117l-1180 -2068h-115z" />
<glyph unicode="0" d="M106 492q0 209 74 405.5t207 325.5t291 129q190 0 292.5 -130t102.5 -386q0 -209 -72.5 -407t-206.5 -328t-290 -130q-205 0 -301.5 142.5t-96.5 378.5zM307 375q0 -336 195 -336q147 0 259.5 255t112.5 650q0 338 -194 338q-147 0 -260 -255t-113 -652z" />
<glyph unicode="1" d="M92 0l8 45l326 59l188 1059l-340 -20l9 47l497 145h56l-220 -1231l302 -59l-9 -45h-817z" />
<glyph unicode="2" d="M-27 0v41q90 66 127 93.5t141.5 111.5t161 138t141.5 145.5t130 166t79.5 167.5t34.5 179q0 240 -190 240q-96 0 -164.5 -73.5t-95.5 -204.5q-31 0 -60.5 5t-58.5 26.5t-29 54.5q0 123 142.5 192.5t302.5 69.5q174 0 273.5 -76t99.5 -211q0 -86 -35 -175t-105.5 -176 t-139.5 -159t-173 -152.5t-168.5 -128t-161.5 -114.5h590l111 225h47l-84 -385h-916z" />
<glyph unicode="3" d="M41 182q0 63 52 105.5t120 46.5v-60q0 -111 68.5 -173t191.5 -62q135 0 224 77t89 206q0 139 -110.5 213.5t-351.5 82.5l6 56q174 31 322.5 128t148.5 242q0 86 -59.5 135.5t-157.5 49.5q-141 0 -281 -139l-39 45q176 217 416 217q143 0 231 -67.5t88 -182.5 q0 -137 -106.5 -234.5t-259.5 -144.5q143 -14 239.5 -92t96.5 -215q0 -199 -144.5 -322t-367.5 -123q-168 0 -292 63.5t-124 147.5z" />
<glyph unicode="4" d="M49 401v39l825 895h89l-146 -819h230l-21 -115h-229l-54 -301l205 -55l-8 -45h-637l8 45l244 55l53 301h-559zM207 516h422l104 567z" />
<glyph unicode="5" d="M72 154q0 59 49 100t115 45v-41q0 -100 54 -160.5t175 -60.5q131 0 233.5 82t102.5 225q0 154 -142.5 226.5t-451.5 72.5l186 674h557l60 115h47l-68 -291h-575l-88 -334q637 0 637 -383q0 -199 -153 -326t-382 -127q-137 0 -246.5 51.5t-109.5 131.5z" />
<glyph unicode="6" d="M111 430q0 190 78.5 356t213 284t296 197t339.5 115l13 -59q-737 -225 -738 -905q0 -377 238 -377q117 0 202 130t85 314q0 125 -57.5 198t-170.5 73q-65 0 -131 -25l-16 49q106 63 237 64q154 0 243 -90t89 -252q0 -201 -147.5 -366t-358.5 -165q-190 0 -302.5 119 t-112.5 340z" />
<glyph unicode="7" d="M121 0l887 1137h-691l-77 -160h-52l95 412h47l14 -72h834v-43l-840 -1274h-217z" />
<glyph unicode="8" d="M82 285q0 143 98.5 242.5t253.5 144.5q-205 137 -205 311q0 164 128 266.5t321 102.5q150 0 268.5 -71t118.5 -208q0 -139 -91 -229t-214 -131q121 -76 185.5 -147.5t64.5 -172.5q0 -195 -148.5 -308.5t-347.5 -113.5q-176 0 -304 84.5t-128 229.5zM266 291 q0 -111 77 -180.5t195.5 -69.5t203.5 71.5t85 180.5q0 39 -16 76t-36.5 63.5t-62.5 59t-69 49t-84 51.5t-82 49q-211 -123 -211 -350zM410 1065q0 -53 22.5 -97t75.5 -88t89 -68t114 -71q186 127 186 326q0 98 -62.5 158.5t-170.5 60.5q-106 0 -180 -55t-74 -166z" />
<glyph unicode="9" d="M133 0q737 225 737 905q0 377 -237 377q-117 0 -202 -130t-85 -314q0 -125 57.5 -198t169.5 -73q66 0 132 25l16 -49q-106 -63 -238 -64q-154 0 -242.5 90t-88.5 252q0 201 147 366t358 165q190 0 303 -119t113 -340q0 -190 -79 -356t-213 -284t-295.5 -197t-340.5 -115z " />
<glyph unicode=":" horiz-adv-x="512" d="M92 90q0 59 40 95t91 36t83 -34t32 -81q0 -55 -36 -95t-93 -40q-53 0 -85 35t-32 84zM203 725q0 59 40 95t91 36t83 -34t32 -81q0 -55 -36 -95t-94 -40q-53 0 -84.5 35t-31.5 84z" />
<glyph unicode=";" horiz-adv-x="512" d="M35 -264q66 43 125 112.5t71 122.5h-24q-53 0 -85 32t-32 81q0 61 38 96t89 35q53 0 86 -36t33 -97q0 -90 -67.5 -200.5t-198.5 -192.5zM199 725q0 59 40 95t91 36t82.5 -34t31.5 -81q0 -55 -35.5 -95t-93.5 -40q-53 0 -84.5 35t-31.5 84z" />
<glyph unicode="&#x3c;" d="M195 573v103l749 399l55 -100l-663 -350l663 -351l-55 -100z" />
<glyph unicode="=" d="M133 375v106h922v-106h-922zM133 764v106h922v-106h-922z" />
<glyph unicode="&#x3e;" d="M195 268l663 350l-663 351l55 100l749 -399v-103l-749 -399z" />
<glyph unicode="?" horiz-adv-x="843" d="M207 539q0 84 55 156.5t134 125.5t159 105.5t135 122t55 147.5q0 68 -41.5 109t-113.5 41q-98 0 -154.5 -70t-77.5 -182q-147 0 -147 59q0 94 121 171t254 77q137 0 220 -66.5t83 -173.5q0 -82 -39 -154.5t-97.5 -122.5t-127 -99.5t-127 -86t-97.5 -81t-39 -85.5 q0 -74 89 -73q68 0 131 37l18 -56q-90 -51 -190 -51q-88 0 -145.5 38t-57.5 112zM217 86q0 55 36 95t93 40q53 0 85 -34.5t32 -84.5q0 -59 -40 -95t-91 -36t-83 34t-32 81z" />
<glyph unicode="@" horiz-adv-x="1982" d="M123 274q0 227 65.5 424t192.5 348.5t329.5 238.5t458.5 87q305 0 521.5 -169t216.5 -472q0 -338 -185.5 -549t-500.5 -211q-106 0 -107 103q0 27 8 88q-141 -190 -311 -191q-127 0 -188.5 94.5t-61.5 253.5q0 166 62.5 319t189.5 257t289 104q166 0 305 -92l-127 -745 q-4 -29 -4 -41q0 -43 45 -43q201 0 341 182t140 457q0 272 -181 419.5t-462 147.5q-233 0 -414.5 -83t-293 -227.5t-168 -324.5t-56.5 -385q0 -291 177.5 -462t513.5 -173q166 0 342 54.5t311 136.5l39 -74q-139 -88 -339 -146.5t-374 -58.5q-381 2 -577.5 197.5 t-196.5 535.5zM725 379q0 -287 172 -287q111 0 244 170l102 596q-70 82 -164 82q-104 0 -189 -97.5t-125 -224t-40 -239.5z" />
<glyph unicode="A" horiz-adv-x="1525" d="M-20 0l6 43l178 51l737 1307h60l266 -1311l166 -45l-7 -45h-577l6 45l219 49l-80 398h-471l-219 -400l193 -49l-6 -43h-471zM526 567h414l-111 551z" />
<glyph unicode="B" horiz-adv-x="1284" d="M-10 0l6 45l203 51l207 1180l-185 51l8 45h588q94 0 173 -19.5t145.5 -85t66.5 -171.5q0 -147 -107.5 -242.5t-283.5 -136.5q154 -8 251 -92t97 -205q0 -145 -86 -242.5t-213 -137.5t-287 -40h-583zM387 82q78 -16 152 -16q193 0 299 88t106 272q0 252 -313 252h-139z M504 750h149q166 0 254 99t88 247q0 209 -237 209q-78 0 -160 -15z" />
<glyph unicode="C" horiz-adv-x="1386" d="M133 549q0 365 226.5 608.5t555.5 243.5q248 0 431 -88l-43 -314h-70q-41 334 -336 334q-250 0 -406.5 -227t-156.5 -571q0 -225 99 -360.5t323 -135.5q147 0 257.5 89t168.5 251h78l-82 -311q-211 -96 -447 -97q-266 0 -432 150.5t-166 427.5z" />
<glyph unicode="D" horiz-adv-x="1548" d="M-10 0l6 45l203 51l207 1180l-185 51l8 45h584q305 0 484.5 -137t179.5 -422q0 -164 -57.5 -309.5t-165 -258t-279.5 -179t-387 -66.5h-598zM385 74h229q176 0 309.5 65.5t209 177t111.5 244.5t36 287q0 227 -128 338.5t-359 111.5h-191z" />
<glyph unicode="E" horiz-adv-x="1249" d="M-10 0l8 45l201 51l207 1180l-185 51l10 45h1008l-63 -354h-50l-51 278h-475l-96 -540h297l102 202h45l-84 -479h-45l-33 203h-294l-107 -606h469l201 336h47l-88 -412h-1024z" />
<glyph unicode="F" horiz-adv-x="1177" d="M-10 0l8 45l201 51l207 1180l-185 51l10 45h1008l-61 -348h-52l-51 272h-475l-96 -540h276l103 202h45l-84 -479h-45l-33 203h-274l-103 -586l207 -51l-6 -45h-600z" />
<glyph unicode="G" horiz-adv-x="1538" d="M133 543q0 227 100.5 421.5t291 315.5t431.5 121q113 0 238 -26.5t190 -61.5l-43 -314h-69q-39 334 -338 334q-195 0 -334 -120.5t-202.5 -300t-63.5 -390.5q0 -215 110.5 -349t331.5 -134q162 0 260 74l72 401l-205 51l10 45h574l-8 -45l-181 -51l-75 -424 q-180 -119 -492 -119q-279 0 -438.5 159t-159.5 413z" />
<glyph unicode="H" horiz-adv-x="1677" d="M-10 0l8 45l201 51l207 1180l-185 51l10 45h586l-10 -45l-211 -51l-92 -520h747l92 520l-190 51l10 45h586l-10 -45l-205 -51l-207 -1180l189 -51l-9 -45h-585l8 45l207 51l102 584h-747l-103 -584l195 -51l-9 -45h-585z" />
<glyph unicode="I" horiz-adv-x="739" d="M-10 0l8 45l201 51l207 1180l-185 51l10 45h580l-10 -45l-205 -51l-207 -1180l189 -51l-9 -45h-579z" />
<glyph unicode="J" horiz-adv-x="749" d="M-51 -141q145 74 203.5 155.5t91.5 268.5l174 993l-185 51l9 45h579l-10 -45l-203 -51l-157 -901q-41 -225 -153 -363.5t-333 -206.5z" />
<glyph unicode="K" horiz-adv-x="1460" d="M-10 0l8 45l201 51l207 1180l-185 51l10 45h586l-10 -45l-211 -51l-207 -1180l195 -51l-9 -45h-585zM549 702l641 574l-189 51l11 45h489l-10 -45l-182 -57l-570 -500l398 -610q43 -68 83 -89.5t105 -25.5v-45q-102 -29 -205 -29q-63 0 -101 26t-77 85z" />
<glyph unicode="L" horiz-adv-x="1216" d="M-10 0l6 45l203 51l207 1180l-185 51l8 45h600l-8 -45l-225 -51l-211 -1200h471l201 336h47l-88 -412h-1026z" />
<glyph unicode="M" horiz-adv-x="1828" d="M-10 0l8 45l201 51l207 1180l-185 51l10 45h394l239 -1108l592 1108h445l-11 -45l-204 -51l-207 -1180l188 -51l-8 -45h-582l8 45l203 51l203 1153l-678 -1267h-72l-262 1224l-194 -1114l186 -47l-8 -45h-473z" />
<glyph unicode="N" horiz-adv-x="1581" d="M-10 0l8 45l201 53l207 1178l-185 51l10 45h383l580 -1050l168 954l-195 51l9 45h487l-8 -45l-205 -51l-227 -1294h-56l-686 1228l-196 -1118l196 -47l-8 -45h-483z" />
<glyph unicode="O" horiz-adv-x="1517" d="M133 567q0 207 93 396.5t268.5 313.5t386.5 124q270 0 417.5 -148.5t147.5 -447.5q0 -207 -93 -396.5t-268.5 -313.5t-386.5 -124q-270 0 -417.5 148.5t-147.5 447.5zM330 504q0 -467 356 -467q248 0 405.5 227.5t157.5 603.5q0 467 -356 467q-248 0 -405.5 -227 t-157.5 -604z" />
<glyph unicode="P" horiz-adv-x="1255" d="M-10 0l6 45l203 51l207 1180l-185 51l8 45h529q467 0 467 -317q0 -186 -164 -314.5t-406 -128.5h-63l8 58q207 14 316.5 124.5t109.5 268.5q0 240 -287 240q-70 0 -141 -15l-209 -1192l207 -51l-6 -45h-600z" />
<glyph unicode="Q" horiz-adv-x="1517" d="M133 567q0 207 93 396.5t268.5 313.5t386.5 124q270 0 417.5 -148.5t147.5 -447.5q0 -283 -171 -521.5t-435 -295.5q68 -164 167 -270.5t214 -106.5h55v-47q-106 -43 -225 -43q-205 0 -416 452q-242 16 -372 165t-130 429zM330 504q0 -467 356 -467q248 0 405.5 227.5 t157.5 603.5q0 467 -356 467q-248 0 -405.5 -227t-157.5 -604z" />
<glyph unicode="R" horiz-adv-x="1376" d="M-10 0l8 45l201 51l207 1180l-185 51l10 45h531q217 0 347 -72.5t130 -234.5q0 -174 -150.5 -282.5t-347.5 -118.5q90 -20 140.5 -67.5t89.5 -143.5l125 -308q23 -57 59.5 -78.5t108.5 -21.5v-45q-86 -29 -191 -29q-68 0 -104.5 24.5t-61.5 86.5l-178 448 q-45 113 -170 113h-74l-96 -547l195 -51l-9 -45h-585zM500 715h151q162 0 274.5 98t112.5 246q0 119 -79.5 182.5t-213.5 63.5q-59 -1 -147 -19z" />
<glyph unicode="S" horiz-adv-x="1095" d="M51 68l43 335h72q6 -362 299 -362q127 0 225 73.5t98 200.5q0 84 -58 154t-140 121t-165 104.5t-141.5 130t-58.5 168.5q0 178 133.5 293t333.5 115q84 0 190.5 -20.5t172.5 -45.5l-62 -307h-69q0 307 -242 307q-123 0 -208 -68.5t-85 -176.5q0 -78 60.5 -145.5 t145.5 -120t170 -107.5t145.5 -136.5t60.5 -177.5q0 -199 -151.5 -315.5t-368.5 -116.5q-102 0 -216 29t-184 68z" />
<glyph unicode="T" horiz-adv-x="1335" d="M174 1018l64 354h1169l-64 -354h-49l-51 278h-344l-211 -1200l201 -51l-8 -45h-609l9 45l217 51l211 1200h-334l-150 -278h-51z" />
<glyph unicode="U" horiz-adv-x="1515" d="M184 1327l11 45h585l-10 -45l-211 -51l-135 -774q-14 -90 -14 -125q0 -154 102 -227.5t252 -73.5q164 0 271.5 105.5t150.5 353.5l127 741l-203 51l8 45h490l-9 -45l-196 -51l-135 -772q-49 -279 -190.5 -406t-368.5 -127q-121 0 -230.5 40t-185.5 130t-76 215 q0 63 8 107l144 813z" />
<glyph unicode="V" horiz-adv-x="1488" d="M174 1327l10 45h586l-10 -45l-221 -51l204 -1010l560 1010l-207 51l10 45h485l-10 -45l-178 -55l-733 -1290h-60l-266 1294z" />
<glyph unicode="W" horiz-adv-x="2183" d="M174 1327l10 45h586l-10 -45l-228 -51l183 -1002l444 863l-22 139l-164 51l10 45h586l-10 -45l-228 -51l154 -997l512 999l-203 49l10 45h482l-11 -45l-178 -55l-686 -1290h-59l-168 1007l-541 -1007h-59l-246 1294z" />
<glyph unicode="X" horiz-adv-x="1513" d="M-20 0l8 45l178 49l518 606l-287 572l-157 55l10 45h579l-10 -45l-209 -49l228 -463l401 461l-182 51l10 45h487l-10 -45l-182 -55l-488 -533l330 -649l162 -45l-8 -45h-586l8 45l201 45l-258 531l-422 -521l184 -55l-8 -45h-497z" />
<glyph unicode="Y" horiz-adv-x="1411" d="M174 1327l10 45h580l-8 -43l-228 -53l258 -598l449 598l-207 51l10 45h486l-8 -45l-166 -51l-527 -676l-88 -504l201 -51l-8 -45h-609l9 45l217 51l84 479l-314 703z" />
<glyph unicode="Z" horiz-adv-x="1273" d="M10 0v41l1014 1255h-604l-150 -278h-51l64 354h991v-41l-1012 -1257h664l192 338h47l-88 -412h-1067z" />
<glyph unicode="[" horiz-adv-x="876" d="M37 -322l342 1942h549l-10 -57h-371l-322 -1827h371l-10 -58h-549z" />
<glyph unicode="\" horiz-adv-x="1097" d="M279 1587h106l576 -2068h-109z" />
<glyph unicode="]" horiz-adv-x="876" d="M-29 -322l11 58h370l322 1827h-371l10 57h549l-342 -1942h-549z" />
<glyph unicode="^" d="M143 602l400 750h102l399 -750l-100 -55l-350 663l-350 -663z" />
<glyph unicode="_" d="M-141 -326l20 107h1145l-20 -107h-1145z" />
<glyph unicode="`" horiz-adv-x="819" d="M348 1454q0 49 139 66q27 -57 99 -164.5t131 -181.5l-47 -31q-98 59 -210 162.5t-112 148.5z" />
<glyph unicode="a" horiz-adv-x="1054" d="M86 319q0 166 62.5 319t189.5 257t289 104q166 0 305 -92l-109 -643q-20 -123 -20 -155q0 -25 22.5 -37.5t51 -15.5t86.5 -5v-47q-104 -33 -232 -33q-49 0 -70.5 24.5t-21.5 78.5q0 27 8 88q-141 -191 -311 -191q-127 0 -188.5 94.5t-61.5 253.5zM250 379 q0 -287 172 -287q111 0 244 170l102 596q-70 82 -164 82q-104 0 -189 -97.5t-125 -224t-40 -239.5z" />
<glyph unicode="b" horiz-adv-x="1044" d="M96 66l205 1198q12 82 12 92q0 31 -33.5 41t-121.5 10l8 47q125 33 242 33q71 0 71 -74q0 -43 -20 -162l-80 -456q149 204 326 204h2q127 0 189 -93t62 -255q0 -119 -35.5 -237.5t-100 -218t-170 -162t-232.5 -62.5q-180 0 -324 95zM262 115q76 -84 182 -84 q100 0 183.5 94t124.5 221t41 246q0 145 -39 213.5t-129 68.5q-119 0 -265 -186z" />
<glyph unicode="c" horiz-adv-x="925" d="M86 322q0 160 60.5 313t182 258.5t275.5 105.5q123 0 191.5 -45t68.5 -112q0 -59 -48 -91t-120 -32v55q0 168 -114 168q-92 0 -170 -94t-119 -223t-41 -246q0 -141 53 -219t158 -78q115 0 276 102l27 -41q-188 -172 -387 -172q-293 0 -293 351z" />
<glyph unicode="d" horiz-adv-x="1087" d="M86 319q0 166 60.5 319t185.5 257t286 104q90 0 179 -26l51 291q12 82 12 92q0 31 -33.5 41t-121.5 10l8 47q131 33 241 33q72 0 72 -76q0 -41 -20 -160l-183 -1056q-12 -66 -12 -86q0 -35 35 -46.5t127 -11.5v-47q-132 -33 -234 -33q-94 0 -94 76q0 51 12 115 q-154 -190 -319 -191q-252 0 -252 348zM252 379q0 -287 172 -287q115 0 250 170l104 598q-84 80 -182 80q-104 0 -187 -100.5t-120 -226.5t-37 -234z" />
<glyph unicode="e" horiz-adv-x="925" d="M86 322q0 121 36 239.5t102.5 217t175 159.5t239.5 61q121 0 183.5 -53t62.5 -139q0 -143 -158 -236.5t-469 -95.5q-6 -49 -6 -96q0 -297 221 -297q129 0 287 102l26 -41q-78 -72 -187.5 -122t-213.5 -50q-135 0 -217 82t-82 269zM268 532q72 2 145.5 18.5t144.5 49.5 t115 92.5t44 136.5q0 47 -29 80t-84 33q-123 0 -213 -121t-123 -289z" />
<glyph unicode="f" horiz-adv-x="694" d="M-225 -426q0 59 73 129q78 -82 144 -82q68 0 96 160l188 1110h-143l14 80h142l12 80q29 193 170 314.5t295 121.5q72 0 72 -55q0 -35 -22.5 -72t-51.5 -57q-90 61 -166 61q-57 0 -93 -88t-59 -305h234l-14 -80h-230l-155 -907q-18 -106 -65.5 -207t-139.5 -179.5 t-207 -78.5q-39 0 -66.5 14t-27.5 41z" />
<glyph unicode="g" horiz-adv-x="1013" d="M72 -393q0 35 27.5 67.5t54.5 46.5q43 -35 127 -69.5t141 -34.5q86 0 125.5 60.5t62.5 207.5l47 279q-154 -193 -321 -193q-250 0 -250 348q0 166 60.5 319t185.5 257t286 104q184 0 324 -94l-147 -874q-16 -92 -51 -178t-93.5 -163t-148.5 -124t-201 -47 q-94 0 -161.5 21.5t-67.5 66.5zM252 379q0 -287 172 -287q111 0 252 172l102 598q-82 78 -182 78q-104 0 -187 -100.5t-120 -226.5t-37 -234z" />
<glyph unicode="h" horiz-adv-x="1110" d="M92 0l217 1264q12 82 13 92q0 31 -34 41t-122 10l8 47q156 33 242 33q71 0 71 -74q0 -43 -20 -162l-80 -454q157 202 332 202h2q113 0 177.5 -71.5t64.5 -173.5q0 -63 -21 -187l-63 -372q-12 -66 -13 -86q0 -35 35 -46.5t127 -11.5v-47q-125 -33 -233 -33q-94 0 -95 76 q0 49 21 160l63 364q18 123 19 160q0 63 -36 103t-101 40q-135 0 -295 -180l-121 -694h-158z" />
<glyph unicode="i" horiz-adv-x="557" d="M102 920l9 47q127 32 235 32h6q72 0 72 -75q-1 -41 -21 -160l-98 -569q-12 -66 -12 -86q0 -35 33.5 -46.5t128.5 -11.5v-47q-125 -33 -234 -33q-92 0 -92 80q0 41 18 156l99 569q12 82 12 92q0 31 -34 41.5t-122 10.5zM285 1313q0 57 37.5 91t87 34t80 -33t30.5 -78 q0 -51 -34.5 -90t-88.5 -39q-51 0 -81.5 33t-30.5 82z" />
<glyph unicode="j" horiz-adv-x="528" d="M-215 -430q0 66 72 125q84 -74 147 -74q39 0 58.5 41t33.5 121l168 993q12 82 12 92q0 31 -32.5 41.5t-122.5 10.5l8 47q151 32 237 32h5q71 0 71 -73q0 -43 -20 -162l-133 -758q-41 -242 -151.5 -364.5t-264.5 -122.5q-88 0 -88 51zM303 1323q0 57 38 91t87 34t80 -33 t31 -78q0 -51 -35 -90t-88 -39q-51 0 -82 33t-31 82z" />
<glyph unicode="k" horiz-adv-x="1052" d="M92 0l217 1264q12 82 13 92q0 31 -35 41t-121 10l8 47q29 8 117 20.5t125 12.5q71 0 71 -74q0 -43 -20 -162l-217 -1251h-158zM385 506q238 289 342 391t188 102q76 0 76 -75q0 -63 -49 -131q-36 24 -84 24h-4q-111 0 -332 -239l279 -443q29 -47 65.5 -64.5t106.5 -19.5 v-47q-92 -33 -187 -33q-47 0 -71.5 15.5t-48.5 58.5z" />
<glyph unicode="l" horiz-adv-x="548" d="M106 47q0 49 21 160l182 1057q12 82 13 92q0 31 -34 41t-122 10l8 47q131 33 242 33q71 0 71 -74q0 -43 -20 -162l-182 -1056q-12 -66 -13 -86q0 -35 35 -46.5t127 -11.5v-47q-131 -33 -233 -33q-94 0 -95 76z" />
<glyph unicode="m" horiz-adv-x="1685" d="M102 920l9 47q31 8 117.5 20t123.5 12q72 0 72 -75q0 -43 -14 -125q157 200 327 200h2q90 0 152.5 -52t81.5 -142q155 194 321 194h2q113 0 177.5 -71.5t64.5 -173.5q0 -64 -20 -187l-64 -372q-12 -66 -12 -86q0 -35 34.5 -46.5t127.5 -11.5v-47q-125 -33 -234 -33 q-94 0 -94 76q0 49 20 160l64 364q18 123 18 160q0 63 -35.5 103t-101.5 40q-115 0 -266 -155l-123 -719h-158l111 647q10 61 10 98q0 57 -36 93t-95 36q-61 0 -145 -52t-148 -130l-121 -692h-157l133 776q12 82 12 92q0 31 -34 41.5t-122 10.5z" />
<glyph unicode="n" horiz-adv-x="1130" d="M102 920l9 47q31 8 115.5 20t125.5 12q72 0 72 -75q0 -43 -14 -125q157 200 329 200h2q113 0 177.5 -71.5t64.5 -173.5q0 -63 -20 -187l-64 -372q-12 -66 -12 -86q0 -35 34.5 -46.5t127.5 -11.5v-47q-125 -33 -234 -33q-94 0 -94 76q0 49 20 160l64 364q18 123 18 160 q0 63 -35.5 103t-101.5 40q-135 0 -295 -178l-121 -696h-157l133 776q12 82 12 92q0 31 -32.5 41.5t-123.5 10.5z" />
<glyph unicode="o" horiz-adv-x="1034" d="M86 328q0 274 147.5 472.5t372.5 198.5q162 0 252 -88t90 -268q0 -274 -147.5 -473t-372.5 -199q-162 0 -252 88t-90 269zM252 344q0 -145 51 -230t143 -85q147 0 241.5 179t94.5 419q0 145 -51 230t-143 85q-147 0 -241.5 -179t-94.5 -419z" />
<glyph unicode="p" horiz-adv-x="1073" d="M-98 -428l143 41l201 1163q12 82 12 92q0 31 -32.5 41.5t-123.5 10.5l9 47q151 32 238 32h5q72 0 72 -75q0 -43 -14 -121q157 196 319 196h2q131 0 192.5 -94t61.5 -254q0 -170 -63.5 -323.5t-189.5 -255t-285 -101.5q-92 0 -181 27l-67 -383l174 -45v-41h-473v43z M289 115q74 -84 182 -84q143 0 246.5 175t103.5 386q0 282 -168 282q-111 0 -260 -182z" />
<glyph unicode="q" horiz-adv-x="1015" d="M86 319q0 166 60.5 319t185.5 257t286 104q187 0 326 -94l-217 -1290l125 -45v-41h-469l-2 41l186 45l92 549q-156 -193 -323 -193q-250 0 -250 348zM252 381q0 -289 172 -289q113 0 254 174l100 590q-76 84 -182 84q-104 0 -187 -100.5t-120 -225.5t-37 -233z" />
<glyph unicode="r" horiz-adv-x="808" d="M102 920l9 47q31 8 117.5 20t123.5 12q72 0 72 -69q0 -39 -23 -160q66 90 157 159.5t157 69.5q33 0 53 -19t20 -56q0 -68 -49 -142q-74 35 -141 35q-92 0 -211 -129l-117 -688h-157l133 776q12 82 12 92q0 31 -32.5 41.5t-123.5 10.5z" />
<glyph unicode="s" horiz-adv-x="837" d="M20 131q0 53 44.5 92t109.5 45v-53q0 -188 191 -188q82 0 141 52t59 126q0 57 -43 102t-104.5 79t-124 71t-105.5 94t-43 133q0 137 102.5 226t252.5 89q121 0 198.5 -40.5t77.5 -110.5q0 -123 -160 -123v47q0 170 -149 170q-70 0 -128 -52t-58 -136q0 -68 68.5 -124.5 t149.5 -92t149.5 -101t68.5 -151.5q0 -150 -115.5 -232t-273.5 -82q-133 0 -220.5 44t-87.5 116z" />
<glyph unicode="t" horiz-adv-x="710" d="M113 891l14 80h145l113 237h82l-39 -237h252l-14 -80h-250l-107 -641q-10 -57 -10 -88q0 -90 88 -90q72 0 156 57l24 -45q-125 -113 -262 -113q-166 0 -166 160q0 43 17 152l100 608h-143z" />
<glyph unicode="u" horiz-adv-x="1091" d="M82 920l8 47q33 8 117 20t121 12q71 0 71 -73q0 -43 -20 -162l-62 -363q-23 -129 -22 -170q0 -59 33.5 -97t97.5 -38q137 0 276 168l121 707h158l-121 -707q-20 -123 -20 -155q0 -37 32.5 -46.5t126.5 -11.5v-47q-29 -8 -111.5 -20.5t-119.5 -12.5q-49 0 -70.5 24.5 t-21.5 78.5q0 37 10 92q-147 -195 -321 -195q-113 0 -171.5 70t-58.5 172q0 59 23 186l63 377q12 82 12 92q0 31 -31.5 41.5t-119.5 10.5z" />
<glyph unicode="v" horiz-adv-x="931" d="M41 920l8 49q103 30 195 30h6q43 0 60.5 -17t23.5 -58l112 -727q295 430 295 571q0 86 -82 152q27 31 72 55t82 24q78 0 78 -94q0 -53 -16.5 -113.5t-52.5 -131t-67.5 -128t-92 -142.5t-94 -131t-103.5 -137t-92 -122h-49l-136 844q-6 41 -26.5 58.5t-63.5 17.5h-57z" />
<glyph unicode="w" horiz-adv-x="1462" d="M41 920l8 49q103 30 195 30h6q39 0 57.5 -18t26.5 -57l129 -682q246 422 246 583q0 47 -15 119l146 35l153 -782q109 158 194 320.5t85 250.5q0 86 -82 152q27 31 72 55t81 24q78 0 78 -94q0 -90 -44 -202.5t-133 -251t-150.5 -224.5t-169.5 -227h-50l-133 645 q-37 -102 -143 -298.5t-203 -346.5h-51l-156 844q-8 41 -27.5 58.5t-62.5 17.5h-57z" />
<glyph unicode="x" horiz-adv-x="1064" d="M20 45q0 59 56 127q55 -35 90 -35q49 0 122.5 85t184.5 259l-125 334q-31 78 -76 78q-53 0 -131 -59l-30 49q45 41 117.5 78.5t125.5 37.5q57 0 86 -28.5t56 -96.5l92 -247q90 147 189.5 259.5t178.5 112.5q78 0 78 -67q0 -61 -51 -129q-39 22 -73 22h-3 q-100 0 -293 -268l154 -401q27 -68 60.5 -86.5t129.5 -18.5v-47q-119 -33 -192 -33q-100 0 -148 125l-116 310q-41 -76 -103.5 -167.5t-151.5 -179.5t-149 -88q-78 0 -78 74z" />
<glyph unicode="y" horiz-adv-x="921" d="M-164 -406q0 47 58 111q92 -49 153 -49q45 0 113.5 73.5t193.5 278.5l-149 836q-8 43 -27.5 59.5t-62.5 16.5h-60l11 49q110 30 208 30q63 0 78 -81l123 -707q256 434 256 557q0 86 -82 152q25 29 72 54t82 25q39 0 58.5 -27.5t19.5 -68.5q0 -100 -73 -246.5t-263 -461.5 l-123 -205q-168 -281 -266.5 -376t-214.5 -95q-104 0 -105 75z" />
<glyph unicode="z" horiz-adv-x="958" d="M31 0v45l649 856h-274q-74 0 -121 -45t-86 -149l-47 8l43 256h692v-41l-651 -860h339q78 0 122 52t89 165l48 -6l-52 -281h-751z" />
<glyph unicode="{" horiz-adv-x="950" d="M100 625l11 49q80 16 128 40.5t75.5 73t39 89.5t27.5 131l49 272q12 72 32.5 125t43 89t60.5 60.5t69 38t84 19.5t90 7t104 1h88l-10 -57h-88q-66 0 -101.5 -6.5t-74.5 -29t-62.5 -73.5t-37.5 -137l-43 -246q-37 -205 -106.5 -294t-229.5 -128q111 -29 158 -85t47 -161 q0 -66 -36 -259t-36 -263q0 -94 47 -119.5t154 -25.5h88l-11 -58h-88q-82 0 -123.5 2.5t-100 13.5t-85 33.5t-47 65.5t-20.5 107q0 66 39.5 276.5t39.5 274.5q0 72 -37 111.5t-137 62.5z" />
<glyph unicode="|" horiz-adv-x="614" d="M272 -481v2068h111v-2068h-111z" />
<glyph unicode="}" horiz-adv-x="950" d="M-16 -322l10 58h88q66 0 101.5 6t74.5 28.5t62.5 74t37.5 137.5l43 245q37 205 107 294t229 128q-111 29 -158 85.5t-47 160.5q0 66 36 259.5t36 262.5q0 94 -47 120t-154 26h-88l11 57h88q82 0 124 -2t100 -13.5t85 -34t47.5 -65.5t20.5 -106q0 -66 -40 -277t-40 -274 q0 -72 37 -111.5t137 -62.5l-11 -49q-80 -16 -128 -41t-75.5 -73t-38.5 -89t-28 -131l-49 -273q-12 -72 -32.5 -125t-43 -88.5t-60.5 -60.5t-69 -38t-84 -19t-90 -7.5t-104 -1.5h-88z" />
<glyph unicode="~" d="M133 502q57 236 234 235q72 0 233.5 -63.5t218.5 -63.5q55 0 86 36t49 108l101 -27q-57 -236 -234 -235q-72 0 -233.5 63t-218.5 63q-55 0 -86 -35.5t-50 -107.5z" />
<glyph unicode="&#xa1;" horiz-adv-x="581" d="M51 -326q0 31 20.5 117t53.5 204t63.5 220t64.5 214.5t42 139.5h57q-51 -723 -73 -878q-18 -121 -125 -121q-102 0 -103 104zM244 868q0 59 40 95t91 36t82.5 -33.5t31.5 -80.5q0 -55 -35.5 -95t-93.5 -40q-53 0 -84.5 34.5t-31.5 83.5z" />
<glyph unicode="&#xa2;" d="M139 336q0 229 145.5 431t348.5 228l39 219h80l-39 -215q287 -8 286 -157q0 -59 -44 -92t-117 -37v55q0 68 -36 117t-100 57l-149 -854h29q150 0 323 119l29 -37q-80 -80 -189.5 -133t-212.5 -64l-36 -206h-80l37 206q-150 10 -232 106.5t-82 256.5zM307 401 q0 -242 168 -299l148 834q-131 -33 -223.5 -195t-92.5 -340z" />
<glyph unicode="&#xa3;" d="M23 0v43q80 57 126 93t116.5 103.5t106.5 136t36 138.5q0 45 -11 117h-229l12 71h209q-25 160 -24 209q0 193 119.5 317t322.5 124q113 0 195.5 -50.5t82.5 -127.5q0 -55 -43 -88t-118 -35q0 231 -154 231q-109 0 -166 -94t-57 -219q0 -61 28 -267h338l-12 -71h-319 q2 -12 2 -33q0 -86 -52.5 -172t-109.5 -138t-156 -128h553l111 225h47l-84 -385h-870z" />
<glyph unicode="&#xa4;" d="M106 256l160 139q-31 63 -30 150q0 168 108 297l-127 145l82 66l121 -142q100 72 225 72q121 0 197 -57l153 135l66 -78l-154 -135q33 -66 33 -146q0 -180 -113 -309l123 -143l-82 -66l-118 140q-97 -68 -220 -68q-127 0 -202 59l-156 -137zM379 520q0 -82 36 -142.5 t117 -60.5q102 0 183.5 113t81.5 293q0 199 -154 199q-102 0 -183 -112t-81 -290z" />
<glyph unicode="&#xa5;" d="M135 1278l10 45h529l-10 -43l-185 -53l172 -512l346 512l-153 53l12 43h389l-12 -43l-139 -53l-381 -551h252l-13 -72h-276l-25 -141h273l-13 -72h-272l-51 -295l184 -51l-10 -45h-580l11 45l204 51l52 295h-271l12 72h271l26 141h-268l12 72h238l-193 553z" />
<glyph unicode="&#xa6;" horiz-adv-x="614" d="M272 276h111v-757h-111v757zM272 829v758h111v-758h-111z" />
<glyph unicode="&#xa7;" horiz-adv-x="987" d="M86 -41q0 61 44 90t106 29v-31q0 -184 133 -184q72 0 127 54t55 132q0 53 -42 100.5t-103.5 85t-122 78.5t-102.5 101.5t-42 134.5q0 119 88 196.5t228 112.5q-147 117 -148 240q0 133 104.5 218t254.5 85q109 0 184.5 -42t75.5 -114q0 -61 -44 -90t-106 -29v31 q0 184 -133 184q-72 0 -127 -54t-55 -132q0 -53 42 -100t103.5 -85t121.5 -79t102 -101.5t42 -134.5q0 -119 -88 -196.5t-229 -112.5q150 -117 150 -240q0 -133 -104.5 -218t-254.5 -85q-109 0 -184.5 42t-75.5 114zM283 621q0 -14 3 -28.5t11 -29t15 -26t23.5 -25.5 t26 -22.5t31 -24.5t30.5 -23.5t34.5 -25t34.5 -23.5q106 20 171.5 68.5t65.5 122.5q0 12 -3 25.5t-8 24.5t-15.5 24.5t-16.5 22.5t-22.5 22.5t-24.5 20.5t-28.5 22.5t-29 21.5t-32 21.5t-31.5 21.5q-235 -49 -235 -190z" />
<glyph unicode="&#xa8;" horiz-adv-x="819" d="M231 1311q0 53 36 84.5t81 31.5t74 -30.5t29 -71.5q0 -49 -32 -85t-83 -36q-49 0 -77 31t-28 76zM641 1311q0 53 36 84.5t81 31.5t73.5 -30.5t28.5 -71.5q0 -49 -31.5 -85t-83.5 -36q-49 0 -76.5 31t-27.5 76z" />
<glyph unicode="&#xa9;" horiz-adv-x="1658" d="M133 688q0 297 210 505t507 208t507 -208t210 -505q0 -299 -210 -508t-507 -209t-507 209t-210 508zM207 688q0 -268 189.5 -456.5t453.5 -188.5q268 0 455.5 188.5t187.5 456.5q0 266 -188.5 454.5t-454.5 188.5q-264 0 -453.5 -188.5t-189.5 -454.5zM473 674 q0 197 111.5 302t275.5 105q121 0 268 -49l7 -203h-48q-59 195 -235 195q-106 0 -164.5 -95t-58.5 -245q0 -145 65.5 -242.5t186.5 -97.5q80 0 133 52.5t69 142.5h54l-15 -201q-137 -53 -248 -53q-176 0 -288.5 106.5t-112.5 282.5z" />
<glyph unicode="&#xaa;" horiz-adv-x="843" d="M184 920q0 109 45 217t136.5 186t205.5 78q156 0 258 -66l-77 -438q-14 -94 -15 -109q0 -27 24.5 -33.5t82.5 -6.5v-52q-78 -23 -185 -22q-66 0 -65 74q0 23 6 51q-49 -57 -114 -91t-124 -34q-88 0 -133 69.5t-45 176.5zM326 967q0 -86 25.5 -145.5t82.5 -59.5 q73 0 182 129l66 395q-47 57 -127 57q-92 0 -160.5 -115.5t-68.5 -260.5z" />
<glyph unicode="&#xab;" horiz-adv-x="1114" d="M92 508l504 418l37 -41l-348 -389l211 -379l-47 -35zM502 508l504 418l36 -41l-348 -389l211 -379l-47 -35z" />
<glyph unicode="&#xac;" d="M133 764v106h922v-495h-111v389h-811z" />
<glyph unicode="&#xad;" horiz-adv-x="716" d="M72 457l20 114h574l-21 -114h-573z" />
<glyph unicode="&#xae;" horiz-adv-x="1658" d="M133 688q0 297 210 505t507 208t507 -208t210 -505q0 -299 -210 -508t-507 -209t-507 209t-210 508zM207 688q0 -268 189.5 -456.5t453.5 -188.5q268 0 455.5 188.5t187.5 456.5q0 266 -188.5 454.5t-454.5 188.5q-264 0 -453.5 -188.5t-189.5 -454.5zM494 305v39l118 31 v618l-118 33v39h346q297 0 297 -188q0 -88 -64.5 -139.5t-173.5 -65.5q82 -16 139 -103l119 -182q33 -47 84 -47v-35q-37 -16 -117 -16q-70 0 -106 61l-141 240q-20 37 -41 49t-62 12h-33v-276l119 -31v-39h-366zM741 707h74q82 0 130 48t48 122q0 135 -166 135 q-33 0 -86 -8v-297z" />
<glyph unicode="&#xaf;" horiz-adv-x="819" d="M248 1221l20 122h574l-21 -122h-573z" />
<glyph unicode="&#xb0;" d="M313 997q0 145 101.5 250t261.5 105q131 0 216 -83t85 -216q0 -145 -101.5 -250t-261.5 -105q-131 0 -216 83t-85 216zM438 991q0 -90 53.5 -142t133.5 -52q96 0 161.5 72.5t65.5 187.5q0 90 -53.5 142t-132.5 52q-96 0 -162 -72.5t-66 -187.5z" />
<glyph unicode="&#xb1;" d="M133 0v106h922v-106h-922zM133 631v106h406v361h110v-361h406v-106h-406v-363h-110v363h-406z" />
<glyph unicode="&#xb2;" horiz-adv-x="819" d="M59 692v39q43 31 136.5 88.5t162 104.5t143 110.5t115.5 138t41 154.5q0 59 -36 97t-97 38q-68 0 -113.5 -51t-64.5 -139q-45 0 -85 17.5t-40 56.5q0 76 102.5 131t225.5 55q127 0 201.5 -56.5t74.5 -138.5q0 -76 -48 -154.5t-129 -144t-163 -117t-172 -94.5h371l80 123 h35l-62 -258h-678z" />
<glyph unicode="&#xb3;" horiz-adv-x="819" d="M106 834q0 49 40 80.5t96 35.5v-47q0 -70 49 -116t135 -46q96 0 158.5 44t62.5 118q0 164 -332 176l4 45q133 20 236.5 72.5t103.5 140.5q0 109 -135 109q-115 0 -217 -92l-35 37q47 63 135.5 102t182.5 39q104 0 164.5 -43t60.5 -123q0 -162 -223 -213q207 -35 207 -203 q0 -133 -121 -203.5t-266 -70.5q-123 0 -214.5 48t-91.5 110z" />
<glyph unicode="&#xb4;" horiz-adv-x="819" d="M342 1174q59 74 131 181t98 165q139 -16 140 -66q0 -45 -112 -148.5t-210 -162.5z" />
<glyph unicode="&#xb5;" horiz-adv-x="1091" d="M57 -283q0 102 31 277l133 782q12 82 12 92q0 31 -31.5 41.5t-119.5 10.5l8 47q33 8 117 20t121 12q72 0 71 -75q0 -41 -20 -160l-62 -363q-23 -141 -22 -170q0 -59 35 -97t98 -38q137 0 274 168l121 707h158l-121 -707q-20 -123 -20 -155q0 -37 32.5 -46.5t126.5 -11.5 v-47q-29 -8 -111.5 -20.5t-119.5 -12.5q-49 0 -70.5 24.5t-21.5 78.5q0 45 10 92q-156 -195 -319 -195q-74 0 -124 30t-73 75q-37 -195 -37 -246q0 -76 41 -122t141 -62q-14 -53 -46.5 -90t-80.5 -37q-68 0 -99.5 60.5t-31.5 137.5z" />
<glyph unicode="&#xb6;" horiz-adv-x="1347" d="M195 860q0 244 178 378t444 134h563l-8 -45l-205 -51l-254 -1448h-92l258 1466h-188l-258 -1466h-92l118 674q-215 4 -339.5 95t-124.5 263zM389 866q0 -123 72 -200t211 -91l127 719q-182 -2 -296 -119.5t-114 -308.5z" />
<glyph unicode="&#xb7;" horiz-adv-x="512" d="M147 616q0 59 40 95.5t91.5 36.5t83 -34t31.5 -81q0 -55 -35.5 -95t-93.5 -40q-53 0 -85 34.5t-32 83.5z" />
<glyph unicode="&#xb8;" horiz-adv-x="819" d="M39 -442l29 61q59 -33 131 -33q49 0 83.5 26t34.5 64q0 80 -184 86l-8 37l194 201h91l-134 -131q88 -2 137.5 -38t49.5 -99q0 -88 -79 -150.5t-183 -62.5q-90 0 -162 39z" />
<glyph unicode="&#xb9;" horiz-adv-x="819" d="M150 692l4 47l233 35l139 621l-245 -15l6 52l370 92h43l-159 -750l213 -35l-4 -47h-600z" />
<glyph unicode="&#xba;" horiz-adv-x="833" d="M184 938q0 190 113 326.5t270 136.5q113 0 187.5 -68.5t74.5 -191.5q0 -190 -112.5 -328.5t-272.5 -138.5q-113 0 -186.5 69.5t-73.5 194.5zM328 938q0 -203 129 -203q102 0 165.5 117t63.5 285q0 203 -131 202q-102 0 -164.5 -117.5t-62.5 -283.5z" />
<glyph unicode="&#xbb;" horiz-adv-x="1114" d="M72 123l342 391l-207 373l49 39l356 -422l-503 -422zM481 123l342 391l-207 373l50 39l356 -422l-504 -422z" />
<glyph unicode="&#xbc;" horiz-adv-x="2048" d="M102 520l4 47l234 35l139 621l-246 -15l7 52l370 92h43l-159 -750l213 -35l-5 -47h-600zM475 29l1186 1323l72 -58l-1186 -1323zM1210 242v39l615 550h67l-110 -503h164l-17 -86h-166l-34 -160l145 -27l-6 -55h-469l6 55l174 27l37 160h-406zM1364 328h272l74 307z" />
<glyph unicode="&#xbd;" horiz-adv-x="2048" d="M102 520l4 47l234 35l139 621l-246 -15l7 52l370 92h43l-159 -750l213 -35l-5 -47h-600zM403 29l1186 1323l72 -58l-1186 -1323zM1180 0v39q43 31 136 88t161.5 104.5t143.5 111t116 138t41 154.5q0 59 -36 97t-97 38q-68 0 -114 -51t-65 -139q-45 0 -85 17t-40 56 q0 76 102.5 131.5t225.5 55.5q127 0 202 -56.5t75 -138.5q0 -76 -48.5 -154.5t-129 -144t-162.5 -117t-172 -94.5h370l80 123h35l-61 -258h-678z" />
<glyph unicode="&#xbe;" horiz-adv-x="2048" d="M102 653q0 49 40 81t96 36v-47q0 -70 49 -116t135 -46q96 0 158.5 44t62.5 118q0 164 -332 176l4 45q133 20 236.5 72.5t103.5 140.5q0 109 -135 109q-115 0 -217 -92l-35 36q47 63 135.5 102.5t182.5 39.5q104 0 164.5 -43t60.5 -123q0 -162 -223 -213q207 -35 207 -203 q0 -133 -121 -203.5t-266 -70.5q-123 0 -214.5 48t-91.5 109zM469 29l1186 1323l71 -58l-1185 -1323zM1210 242v39l615 550h67l-110 -503h164l-17 -86h-166l-34 -160l145 -27l-6 -55h-469l6 55l174 27l37 160h-406zM1364 328h272l74 307z" />
<glyph unicode="&#xbf;" horiz-adv-x="813" d="M-20 -190q0 82 38.5 154.5t97 122.5t127 99.5t127 86t97.5 80.5t39 85q0 74 -88 74q-68 0 -131 -37l-19 55q90 51 191 52q88 0 145.5 -38t57.5 -112q0 -84 -55.5 -156.5t-135.5 -126t-159 -105.5t-134 -121.5t-55 -147.5q0 -68 42 -109t114 -41q98 0 154 69.5t77 182.5 q147 0 147 -59q0 -94 -120.5 -171t-253.5 -77q-137 0 -220 66.5t-83 173.5zM406 868q0 59 39.5 95t91 36t83 -33.5t31.5 -80.5q0 -55 -35.5 -95t-93.5 -40q-53 0 -84.5 34.5t-31.5 83.5z" />
<glyph unicode="&#xc0;" horiz-adv-x="1525" d="M-20 0l6 43l178 51l737 1307h60l266 -1311l166 -45l-7 -45h-577l6 45l219 49l-80 398h-471l-219 -400l193 -49l-6 -43h-471zM526 567h414l-111 551zM610 1690q0 45 113 96q41 -47 146.5 -130t179.5 -128l-37 -41q-121 29 -261.5 95.5t-140.5 107.5z" />
<glyph unicode="&#xc1;" horiz-adv-x="1525" d="M-20 0l6 43l178 51l737 1307h60l266 -1311l166 -45l-7 -45h-577l6 45l219 49l-80 398h-471l-219 -400l193 -49l-6 -43h-471zM526 567h414l-111 551zM764 1528q74 45 179.5 128t146.5 130q113 -51 112 -96q0 -41 -140 -107.5t-261 -95.5z" />
<glyph unicode="&#xc2;" horiz-adv-x="1525" d="M-20 0l6 43l178 51l737 1307h60l266 -1311l166 -45l-7 -45h-577l6 45l219 49l-80 398h-471l-219 -400l193 -49l-6 -43h-471zM526 567h414l-111 551zM666 1528q63 55 158 149t122 133h78q39 -88 164 -288l-43 -35l-182 147l-261 -147z" />
<glyph unicode="&#xc3;" horiz-adv-x="1525" d="M-20 0l6 43l178 51l737 1307h60l266 -1311l166 -45l-7 -45h-577l6 45l219 49l-80 398h-471l-219 -400l193 -49l-6 -43h-471zM526 567h414l-111 551zM633 1532q45 129 96 187.5t123 58.5q43 0 148.5 -48.5t138.5 -48.5q61 0 114 123l56 -20q-45 -129 -96.5 -187.5 t-122.5 -58.5q-43 0 -148.5 48t-138.5 48q-62 0 -115 -123z" />
<glyph unicode="&#xc4;" horiz-adv-x="1525" d="M-20 0l6 43l178 51l737 1307h60l266 -1311l166 -45l-7 -45h-577l6 45l219 49l-80 398h-471l-219 -400l193 -49l-6 -43h-471zM526 567h414l-111 551zM637 1638q0 53 36 85t81 32t73.5 -30.5t28.5 -71.5q0 -49 -31.5 -85t-83.5 -36q-49 0 -76.5 30.5t-27.5 75.5zM1047 1638 q0 53 35.5 85t80.5 32t74 -30.5t29 -71.5q0 -49 -32 -85t-83 -36q-49 0 -76.5 30.5t-27.5 75.5z" />
<glyph unicode="&#xc5;" horiz-adv-x="1525" d="M-20 0l6 43l178 51l737 1307h60l266 -1311l166 -45l-7 -45h-577l6 45l219 49l-80 398h-471l-219 -400l193 -49l-6 -43h-471zM526 567h414l-111 551zM766 1622q0 90 60.5 155.5t154.5 65.5q76 0 122 -41t46 -108q0 -90 -60.5 -155.5t-154.5 -65.5q-76 0 -122 40.5 t-46 108.5zM868 1628q0 -43 20.5 -65.5t53.5 -22.5q49 0 77 44t28 104q0 43 -20.5 65.5t-53.5 22.5q-47 0 -76 -44t-29 -104z" />
<glyph unicode="&#xc6;" horiz-adv-x="2007" d="M-31 0l6 43l177 51l929 1182l-180 51l10 45h1086l-64 -354h-49l-51 278h-475l-96 -540h297l102 202h45l-84 -479h-45l-33 203h-295l-106 -606h469l200 336h48l-88 -412h-1024l8 45l200 51l70 396h-453l-309 -400l189 -49l-7 -43h-477zM633 567h405l121 676z" />
<glyph unicode="&#xc7;" horiz-adv-x="1386" d="M133 549q0 365 226.5 608.5t555.5 243.5q248 0 431 -88l-43 -314h-70q-41 334 -336 334q-250 0 -406.5 -227t-156.5 -571q0 -225 99 -360.5t323 -135.5q147 0 257.5 89t168.5 251h78l-82 -311q-184 -86 -402 -95l-104 -104q88 -2 137 -38t49 -99q0 -88 -79 -150.5 t-183 -62.5q-90 0 -162 39l29 61q59 -33 131 -33q49 0 84 26t35 64q0 80 -185 86l-8 37l168 174q-250 12 -402.5 162t-152.5 414z" />
<glyph unicode="&#xc8;" horiz-adv-x="1249" d="M-10 0l8 45l201 51l207 1180l-185 51l10 45h1008l-63 -354h-50l-51 278h-475l-96 -540h297l102 202h45l-84 -479h-45l-33 203h-294l-107 -606h469l201 336h47l-88 -412h-1024zM498 1690q0 45 112 96q41 -47 146.5 -130t179.5 -128l-37 -41q-121 29 -261 95.5t-140 107.5z " />
<glyph unicode="&#xc9;" horiz-adv-x="1249" d="M-10 0l8 45l201 51l207 1180l-185 51l10 45h1008l-63 -354h-50l-51 278h-475l-96 -540h297l102 202h45l-84 -479h-45l-33 203h-294l-107 -606h469l201 336h47l-88 -412h-1024zM584 1528q74 45 179 128t146 130q113 -51 113 -96q0 -41 -140 -107.5t-261 -95.5z" />
<glyph unicode="&#xca;" horiz-adv-x="1249" d="M-10 0l8 45l201 51l207 1180l-185 51l10 45h1008l-63 -354h-50l-51 278h-475l-96 -540h297l102 202h45l-84 -479h-45l-33 203h-294l-107 -606h469l201 336h47l-88 -412h-1024zM526 1528q63 55 158.5 149t122.5 133h78q39 -88 164 -288l-43 -35l-183 147l-260 -147z" />
<glyph unicode="&#xcb;" horiz-adv-x="1249" d="M-10 0l8 45l201 51l207 1180l-185 51l10 45h1008l-63 -354h-50l-51 278h-475l-96 -540h297l102 202h45l-84 -479h-45l-33 203h-294l-107 -606h469l201 336h47l-88 -412h-1024zM473 1638q0 53 36 85t81 32t73.5 -30.5t28.5 -71.5q0 -49 -31.5 -85t-82.5 -36 q-49 0 -77 30.5t-28 75.5zM883 1638q0 53 35.5 85t80.5 32t74 -30.5t29 -71.5q0 -49 -32 -85t-83 -36q-49 0 -76.5 30.5t-27.5 75.5z" />
<glyph unicode="&#xcc;" horiz-adv-x="739" d="M-10 0l8 45l201 51l207 1180l-185 51l10 45h580l-10 -45l-205 -51l-207 -1180l189 -51l-9 -45h-579zM264 1690q0 45 113 96q41 -47 146 -130t179 -128l-36 -41q-121 29 -261.5 95.5t-140.5 107.5z" />
<glyph unicode="&#xcd;" horiz-adv-x="739" d="M-10 0l8 45l201 51l207 1180l-185 51l10 45h580l-10 -45l-205 -51l-207 -1180l189 -51l-9 -45h-579zM367 1528q74 45 179 128t146 130q113 -51 113 -96q0 -41 -140.5 -107.5t-261.5 -95.5z" />
<glyph unicode="&#xce;" horiz-adv-x="739" d="M-10 0l8 45l201 51l207 1180l-185 51l10 45h580l-10 -45l-205 -51l-207 -1180l189 -51l-9 -45h-579zM264 1528q63 55 158.5 149t122.5 133h78q39 -88 163 -288l-43 -35l-182 147l-260 -147z" />
<glyph unicode="&#xcf;" horiz-adv-x="739" d="M-10 0l8 45l201 51l207 1180l-185 51l10 45h580l-10 -45l-205 -51l-207 -1180l189 -51l-9 -45h-579zM229 1638q0 53 36 85t81 32t74 -30.5t29 -71.5q0 -49 -32 -85t-83 -36q-49 0 -77 30.5t-28 75.5zM639 1638q0 53 36 85t81 32t73.5 -30.5t28.5 -71.5q0 -49 -31.5 -85 t-83.5 -36q-49 0 -76.5 30.5t-27.5 75.5z" />
<glyph unicode="&#xd0;" horiz-adv-x="1585" d="M20 0l7 45l202 51l99 570h-203l14 90h205l92 520l-184 51l8 45h584q305 0 484 -137t179 -422q0 -164 -57 -309.5t-164.5 -258t-279.5 -179t-388 -66.5h-598zM416 74h229q176 0 309 65.5t209 177t112 244.5t36 287q0 227 -128 338.5t-360 111.5h-190l-96 -542h272l-14 -90 h-275z" />
<glyph unicode="&#xd1;" horiz-adv-x="1581" d="M-10 0l8 45l201 53l207 1178l-185 51l10 45h383l580 -1050l168 954l-195 51l9 45h487l-8 -45l-205 -51l-227 -1294h-56l-686 1228l-196 -1118l196 -47l-8 -45h-483zM653 1532q45 129 96.5 187.5t122.5 58.5q43 0 148.5 -48.5t138.5 -48.5q61 0 115 123l55 -20 q-45 -129 -96 -187.5t-123 -58.5q-43 0 -148.5 48t-138.5 48q-61 0 -114 -123z" />
<glyph unicode="&#xd2;" horiz-adv-x="1517" d="M133 567q0 207 93 396.5t268.5 313.5t386.5 124q270 0 417.5 -148.5t147.5 -447.5q0 -207 -93 -396.5t-268.5 -313.5t-386.5 -124q-270 0 -417.5 148.5t-147.5 447.5zM330 504q0 -467 356 -467q248 0 405.5 227.5t157.5 603.5q0 467 -356 467q-248 0 -405.5 -227 t-157.5 -604zM682 1690q0 45 113 96q41 -47 146 -130t179 -128l-37 -41q-121 29 -261 95.5t-140 107.5z" />
<glyph unicode="&#xd3;" horiz-adv-x="1517" d="M133 567q0 207 93 396.5t268.5 313.5t386.5 124q270 0 417.5 -148.5t147.5 -447.5q0 -207 -93 -396.5t-268.5 -313.5t-386.5 -124q-270 0 -417.5 148.5t-147.5 447.5zM330 504q0 -467 356 -467q248 0 405.5 227.5t157.5 603.5q0 467 -356 467q-248 0 -405.5 -227 t-157.5 -604zM709 1528q74 45 179 128t146 130q113 -51 113 -96q0 -41 -140.5 -107.5t-261.5 -95.5z" />
<glyph unicode="&#xd4;" horiz-adv-x="1517" d="M133 567q0 207 93 396.5t268.5 313.5t386.5 124q270 0 417.5 -148.5t147.5 -447.5q0 -207 -93 -396.5t-268.5 -313.5t-386.5 -124q-270 0 -417.5 148.5t-147.5 447.5zM330 504q0 -467 356 -467q248 0 405.5 227.5t157.5 603.5q0 467 -356 467q-248 0 -405.5 -227 t-157.5 -604zM657 1528q63 55 158.5 149t122.5 133h78q39 -88 164 -288l-43 -35l-183 147l-260 -147z" />
<glyph unicode="&#xd5;" horiz-adv-x="1517" d="M133 567q0 207 93 396.5t268.5 313.5t386.5 124q270 0 417.5 -148.5t147.5 -447.5q0 -207 -93 -396.5t-268.5 -313.5t-386.5 -124q-270 0 -417.5 148.5t-147.5 447.5zM330 504q0 -467 356 -467q248 0 405.5 227.5t157.5 603.5q0 467 -356 467q-248 0 -405.5 -227 t-157.5 -604zM596 1532q45 129 96 187.5t123 58.5q43 0 148.5 -48.5t138.5 -48.5q61 0 115 123l55 -20q-45 -129 -96.5 -187.5t-122.5 -58.5q-43 0 -148.5 48t-138.5 48q-62 0 -115 -123z" />
<glyph unicode="&#xd6;" horiz-adv-x="1517" d="M133 567q0 207 93 396.5t268.5 313.5t386.5 124q270 0 417.5 -148.5t147.5 -447.5q0 -207 -93 -396.5t-268.5 -313.5t-386.5 -124q-270 0 -417.5 148.5t-147.5 447.5zM330 504q0 -467 356 -467q248 0 405.5 227.5t157.5 603.5q0 467 -356 467q-248 0 -405.5 -227 t-157.5 -604zM612 1638q0 53 36 85t81 32t73.5 -30.5t28.5 -71.5q0 -49 -31.5 -85t-82.5 -36q-49 0 -77 30.5t-28 75.5zM1022 1638q0 53 36 85t81 32t73.5 -30.5t28.5 -71.5q0 -49 -31.5 -85t-83.5 -36q-49 0 -76.5 30.5t-27.5 75.5z" />
<glyph unicode="&#xd7;" d="M219 324l297 297l-297 299l78 77l297 -299l297 299l78 -77l-297 -299l297 -297l-78 -78l-297 297l-297 -297z" />
<glyph unicode="&#xd8;" horiz-adv-x="1517" d="M43 -70l207 226q-117 152 -117 411q0 207 93 396.5t268.5 313.5t386.5 124q248 0 391 -125l151 166h115l-207 -228q115 -154 115 -409q0 -207 -93 -396.5t-268.5 -313.5t-386.5 -124q-248 0 -391 123l-149 -164h-115zM330 504q0 -135 28 -230l828 906q-90 156 -293 155 q-248 0 -405.5 -227t-157.5 -604zM393 188q88 -151 293 -151q248 0 405.5 227.5t157.5 603.5q0 133 -28 226z" />
<glyph unicode="&#xd9;" horiz-adv-x="1515" d="M184 1327l11 45h585l-10 -45l-211 -51l-135 -774q-14 -90 -14 -125q0 -154 102 -227.5t252 -73.5q164 0 271.5 105.5t150.5 353.5l127 741l-203 51l8 45h490l-9 -45l-196 -51l-135 -772q-49 -279 -190.5 -406t-368.5 -127q-121 0 -230.5 40t-185.5 130t-76 215 q0 63 8 107l144 813zM612 1690q0 45 113 96q41 -47 146.5 -130t179.5 -128l-37 -41q-121 29 -261.5 95.5t-140.5 107.5z" />
<glyph unicode="&#xda;" horiz-adv-x="1515" d="M184 1327l11 45h585l-10 -45l-211 -51l-135 -774q-14 -90 -14 -125q0 -154 102 -227.5t252 -73.5q164 0 271.5 105.5t150.5 353.5l127 741l-203 51l8 45h490l-9 -45l-196 -51l-135 -772q-49 -279 -190.5 -406t-368.5 -127q-121 0 -230.5 40t-185.5 130t-76 215 q0 63 8 107l144 813zM823 1528q74 45 179.5 128t146.5 130q113 -51 113 -96q0 -41 -140.5 -107.5t-261.5 -95.5z" />
<glyph unicode="&#xdb;" horiz-adv-x="1515" d="M184 1327l11 45h585l-10 -45l-211 -51l-135 -774q-14 -90 -14 -125q0 -154 102 -227.5t252 -73.5q164 0 271.5 105.5t150.5 353.5l127 741l-203 51l8 45h490l-9 -45l-196 -51l-135 -772q-49 -279 -190.5 -406t-368.5 -127q-121 0 -230.5 40t-185.5 130t-76 215 q0 63 8 107l144 813zM688 1528q63 55 158.5 149t122.5 133h78q39 -88 163 -288l-43 -35l-182 147l-260 -147z" />
<glyph unicode="&#xdc;" horiz-adv-x="1515" d="M184 1327l11 45h585l-10 -45l-211 -51l-135 -774q-14 -90 -14 -125q0 -154 102 -227.5t252 -73.5q164 0 271.5 105.5t150.5 353.5l127 741l-203 51l8 45h490l-9 -45l-196 -51l-135 -772q-49 -279 -190.5 -406t-368.5 -127q-121 0 -230.5 40t-185.5 130t-76 215 q0 63 8 107l144 813zM623 1638q0 53 35.5 85t80.5 32t74 -30.5t29 -71.5q0 -49 -32 -85t-83 -36q-49 0 -76.5 30.5t-27.5 75.5zM1032 1638q0 53 36 85t81 32t73.5 -30.5t28.5 -71.5q0 -49 -31.5 -85t-82.5 -36q-49 0 -77 30.5t-28 75.5z" />
<glyph unicode="&#xdd;" horiz-adv-x="1411" d="M174 1327l10 45h580l-8 -43l-228 -53l258 -598l449 598l-207 51l10 45h486l-8 -45l-166 -51l-527 -676l-88 -504l201 -51l-8 -45h-609l9 45l217 51l84 479l-314 703zM745 1528q74 45 179.5 128t146.5 130q113 -51 113 -96q0 -41 -140.5 -107.5t-261.5 -95.5z" />
<glyph unicode="&#xde;" horiz-adv-x="1230" d="M-10 0l6 45l203 51l207 1180l-185 51l10 45h580l-10 -45l-205 -51l-37 -211h143q102 0 180.5 -13.5t146 -45t104 -95t36.5 -153.5q0 -184 -162.5 -303t-406.5 -119h-63l8 57q209 14 317.5 115.5t108.5 257.5q0 121 -72 175t-215 54q-70 0 -139 -14l-156 -885l207 -51 l-6 -45h-600z" />
<glyph unicode="&#xdf;" horiz-adv-x="1216" d="M-225 -426q0 59 73 129q78 -82 144 -82q67 0 96 160l188 1110h-143l14 80h142l10 57q35 205 168 332t344 127q141 0 232.5 -73t91.5 -183q0 -76 -64.5 -146.5t-141.5 -115.5t-141.5 -103.5t-64.5 -113.5q0 -41 41 -80t100.5 -76t118.5 -79t100 -101.5t41 -128.5 q0 -156 -117.5 -236t-273.5 -80q-119 0 -206 44t-87 120q0 61 41 94t101 39q0 -129 41 -184t139 -55q104 0 163.5 50t59.5 124q0 57 -41 105t-99.5 83t-116.5 71t-99 85t-41 108q0 61 40 118.5t96 106t112.5 98.5t96.5 113.5t40 133.5q0 80 -53.5 143.5t-147.5 63.5 q-115 0 -196.5 -100.5t-110.5 -274.5l-184 -1073q-18 -106 -65.5 -207t-139.5 -179.5t-207 -78.5q-39 0 -66.5 14t-27.5 41z" />
<glyph unicode="&#xe0;" horiz-adv-x="1054" d="M86 319q0 166 62.5 319t189.5 257t289 104q166 0 305 -92l-109 -643q-20 -123 -20 -155q0 -25 22.5 -37.5t51 -15.5t86.5 -5v-47q-104 -33 -232 -33q-49 0 -70.5 24.5t-21.5 78.5q0 27 8 88q-141 -191 -311 -191q-127 0 -188.5 94.5t-61.5 253.5zM250 379 q0 -287 172 -287q111 0 244 170l102 596q-70 82 -164 82q-104 0 -189 -97.5t-125 -224t-40 -239.5zM385 1454q0 49 139 66q27 -57 99 -164.5t131 -181.5l-47 -31q-98 59 -210 162.5t-112 148.5z" />
<glyph unicode="&#xe1;" horiz-adv-x="1054" d="M86 319q0 166 62.5 319t189.5 257t289 104q166 0 305 -92l-109 -643q-20 -123 -20 -155q0 -25 22.5 -37.5t51 -15.5t86.5 -5v-47q-104 -33 -232 -33q-49 0 -70.5 24.5t-21.5 78.5q0 27 8 88q-141 -191 -311 -191q-127 0 -188.5 94.5t-61.5 253.5zM250 379 q0 -287 172 -287q111 0 244 170l102 596q-70 82 -164 82q-104 0 -189 -97.5t-125 -224t-40 -239.5zM485 1174q59 74 131 181t99 165q139 -16 139 -66q0 -45 -112 -148.5t-210 -162.5z" />
<glyph unicode="&#xe2;" horiz-adv-x="1054" d="M86 319q0 166 62.5 319t189.5 257t289 104q166 0 305 -92l-109 -643q-20 -123 -20 -155q0 -25 22.5 -37.5t51 -15.5t86.5 -5v-47q-104 -33 -232 -33q-49 0 -70.5 24.5t-21.5 78.5q0 27 8 88q-141 -191 -311 -191q-127 0 -188.5 94.5t-61.5 253.5zM250 379 q0 -287 172 -287q111 0 244 170l102 596q-70 82 -164 82q-104 0 -189 -97.5t-125 -224t-40 -239.5zM362 1184q68 70 164 180.5t121 151.5h78q82 -219 160 -338l-43 -35l-183 180l-260 -180z" />
<glyph unicode="&#xe3;" horiz-adv-x="1054" d="M86 319q0 166 62.5 319t189.5 257t289 104q166 0 305 -92l-109 -643q-20 -123 -20 -155q0 -25 22.5 -37.5t51 -15.5t86.5 -5v-47q-104 -33 -232 -33q-49 0 -70.5 24.5t-21.5 78.5q0 27 8 88q-141 -191 -311 -191q-127 0 -188.5 94.5t-61.5 253.5zM250 379 q0 -287 172 -287q111 0 244 170l102 596q-70 82 -164 82q-104 0 -189 -97.5t-125 -224t-40 -239.5zM299 1204q45 129 96 187.5t123 58.5q43 0 148.5 -48t138.5 -48q61 0 115 123l55 -21q-45 -129 -96.5 -187.5t-122.5 -58.5q-43 0 -148.5 48.5t-138.5 48.5q-62 0 -115 -123z " />
<glyph unicode="&#xe4;" horiz-adv-x="1054" d="M86 319q0 166 62.5 319t189.5 257t289 104q166 0 305 -92l-109 -643q-20 -123 -20 -155q0 -25 22.5 -37.5t51 -15.5t86.5 -5v-47q-104 -33 -232 -33q-49 0 -70.5 24.5t-21.5 78.5q0 27 8 88q-141 -191 -311 -191q-127 0 -188.5 94.5t-61.5 253.5zM250 379 q0 -287 172 -287q111 0 244 170l102 596q-70 82 -164 82q-104 0 -189 -97.5t-125 -224t-40 -239.5zM319 1311q0 53 36 84.5t81 31.5t74 -30.5t29 -71.5q0 -49 -32 -85t-83 -36q-49 0 -77 31t-28 76zM729 1311q0 53 36 84.5t81 31.5t73.5 -30.5t28.5 -71.5q0 -49 -31.5 -85 t-82.5 -36q-49 0 -77 31t-28 76z" />
<glyph unicode="&#xe5;" horiz-adv-x="1054" d="M86 319q0 166 62.5 319t189.5 257t289 104q166 0 305 -92l-109 -643q-20 -123 -20 -155q0 -25 22.5 -37.5t51 -15.5t86.5 -5v-47q-104 -33 -232 -33q-49 0 -70.5 24.5t-21.5 78.5q0 27 8 88q-141 -191 -311 -191q-127 0 -188.5 94.5t-61.5 253.5zM250 379 q0 -287 172 -287q111 0 244 170l102 596q-70 82 -164 82q-104 0 -189 -97.5t-125 -224t-40 -239.5zM446 1294q0 90 60.5 156t155.5 66q76 0 121.5 -41t45.5 -109q0 -90 -60.5 -155.5t-154.5 -65.5q-76 0 -122 41t-46 108zM549 1300q0 -43 20.5 -65.5t53.5 -22.5 q49 0 76.5 44t27.5 104q0 43 -20.5 65.5t-53.5 22.5q-47 0 -75.5 -44t-28.5 -104z" />
<glyph unicode="&#xe6;" horiz-adv-x="1476" d="M61 147q0 66 26 119t75 90t102 63.5t129 45t132.5 29t131.5 18.5l39 221q8 49 9 82q0 70 -32 95.5t-85 25.5q-88 0 -157.5 -60.5t-94.5 -181.5h-33q-109 0 -108 62q0 92 132 167.5t285 75.5q199 0 250 -125q143 125 328 125q121 0 183.5 -53t62.5 -139 q0 -141 -154 -233.5t-473 -104.5q-6 -49 -6 -88q0 -299 221 -299q129 0 287 102l26 -41q-78 -72 -187.5 -122t-213.5 -50q-123 0 -198.5 64.5t-94.5 163.5q-57 -104 -155.5 -167t-215.5 -63q-90 0 -150.5 46t-60.5 132zM250 178q0 -51 35 -79.5t88 -28.5q84 0 160.5 80.5 t103.5 242.5l10 62q-41 -4 -94 -16.5t-128 -41t-125 -86t-50 -133.5zM817 526q451 53 451 303q0 51 -30 82t-83 31q-121 0 -212 -122t-126 -294z" />
<glyph unicode="&#xe7;" horiz-adv-x="925" d="M86 322q0 160 60.5 313t182.5 258.5t275 105.5q123 0 191.5 -45t68.5 -112q0 -59 -48 -91t-120 -32v55q0 168 -114 168q-92 0 -170 -94t-119 -223t-41 -246q0 -141 53 -219t158 -78q115 0 276 102l27 -41q-150 -137 -322 -166l-108 -108q88 -2 137 -38t49 -99 q0 -88 -78.5 -150.5t-183.5 -62.5q-90 0 -162 39l29 61q59 -33 131 -33q49 0 84 26t35 64q0 80 -184 86l-9 37l168 174q-266 16 -266 349z" />
<glyph unicode="&#xe8;" horiz-adv-x="925" d="M86 322q0 121 36 239.5t102.5 217t175 159.5t239.5 61q121 0 183.5 -53t62.5 -139q0 -143 -158 -236.5t-469 -95.5q-6 -49 -6 -96q0 -297 221 -297q129 0 287 102l26 -41q-78 -72 -187.5 -122t-213.5 -50q-135 0 -217 82t-82 269zM268 532q72 2 145.5 18.5t144.5 49.5 t115 92.5t44 136.5q0 47 -29 80t-84 33q-123 0 -213 -121t-123 -289zM276 1454q0 49 140 66q27 -57 98.5 -164.5t130.5 -181.5l-47 -31q-98 59 -210 162.5t-112 148.5z" />
<glyph unicode="&#xe9;" horiz-adv-x="925" d="M86 322q0 121 36 239.5t102.5 217t175 159.5t239.5 61q121 0 183.5 -53t62.5 -139q0 -143 -158 -236.5t-469 -95.5q-6 -49 -6 -96q0 -297 221 -297q129 0 287 102l26 -41q-78 -72 -187.5 -122t-213.5 -50q-135 0 -217 82t-82 269zM268 532q72 2 145.5 18.5t144.5 49.5 t115 92.5t44 136.5q0 47 -29 80t-84 33q-123 0 -213 -121t-123 -289zM416 1174q59 74 130.5 181t98.5 165q139 -16 139 -66q0 -45 -111.5 -148.5t-209.5 -162.5z" />
<glyph unicode="&#xea;" horiz-adv-x="925" d="M86 322q0 121 36 239.5t102.5 217t175 159.5t239.5 61q121 0 183.5 -53t62.5 -139q0 -143 -158 -236.5t-469 -95.5q-6 -49 -6 -96q0 -297 221 -297q129 0 287 102l26 -41q-78 -72 -187.5 -122t-213.5 -50q-135 0 -217 82t-82 269zM268 532q72 2 145.5 18.5t144.5 49.5 t115 92.5t44 136.5q0 47 -29 80t-84 33q-123 0 -213 -121t-123 -289zM319 1184q68 70 164 180.5t121 151.5h78q82 -219 160 -338l-43 -35l-183 180l-260 -180z" />
<glyph unicode="&#xeb;" horiz-adv-x="925" d="M86 322q0 121 36 239.5t102.5 217t175 159.5t239.5 61q121 0 183.5 -53t62.5 -139q0 -143 -158 -236.5t-469 -95.5q-6 -49 -6 -96q0 -297 221 -297q129 0 287 102l26 -41q-78 -72 -187.5 -122t-213.5 -50q-135 0 -217 82t-82 269zM268 532q72 2 145.5 18.5t144.5 49.5 t115 92.5t44 136.5q0 47 -29 80t-84 33q-123 0 -213 -121t-123 -289zM289 1311q0 53 35.5 84.5t81 31.5t74 -30.5t28.5 -71.5q0 -49 -32 -85t-83 -36q-49 0 -76.5 31t-27.5 76zM698 1311q0 53 36 84.5t81 31.5t74 -30.5t29 -71.5q0 -49 -32 -85t-83 -36q-49 0 -77 31t-28 76 z" />
<glyph unicode="&#xec;" horiz-adv-x="557" d="M80 1454q0 49 139 66q27 -57 99 -164.5t131 -181.5l-48 -31q-98 59 -209.5 162.5t-111.5 148.5zM102 920l9 47q131 33 241 32q72 0 72 -75q-1 -41 -21 -160l-98 -569q-12 -66 -12 -86q0 -35 33.5 -46.5t128.5 -11.5v-47q-125 -33 -234 -33q-92 0 -92 80q0 41 18 156 l99 569q12 82 12 92q0 31 -34 41.5t-122 10.5z" />
<glyph unicode="&#xed;" horiz-adv-x="546" d="M102 920l9 47q131 33 241 32q72 0 72 -75q-1 -41 -21 -160l-98 -569q-12 -66 -12 -86q0 -35 33.5 -46.5t128.5 -11.5v-47q-125 -33 -234 -33q-92 0 -92 80q0 41 18 156l99 569q12 82 12 92q0 31 -34 41.5t-122 10.5zM197 1174q59 74 130.5 181t98.5 165q139 -16 139 -66 q0 -45 -111.5 -148.5t-209.5 -162.5z" />
<glyph unicode="&#xee;" horiz-adv-x="557" d="M74 1184q68 70 163.5 180.5t120.5 151.5h78q82 -219 160 -338l-43 -35l-182 180l-260 -180zM102 920l9 47q131 33 241 32q72 0 72 -75q-1 -41 -21 -160l-98 -569q-12 -66 -12 -86q0 -35 33.5 -46.5t128.5 -11.5v-47q-125 -33 -234 -33q-92 0 -92 80q0 41 18 156l99 569 q12 82 12 92q0 31 -34 41.5t-122 10.5z" />
<glyph unicode="&#xef;" horiz-adv-x="557" d="M47 1311q0 53 36 84.5t81 31.5t73.5 -30.5t28.5 -71.5q0 -49 -31.5 -85t-82.5 -36q-49 0 -77 31t-28 76zM102 920l9 47q131 33 241 32q72 0 72 -75q-1 -41 -21 -160l-98 -569q-12 -66 -12 -86q0 -35 33.5 -46.5t128.5 -11.5v-47q-125 -33 -234 -33q-92 0 -92 80 q0 41 18 156l99 569q12 82 12 92q0 31 -34 41.5t-122 10.5zM457 1311q0 53 35.5 84.5t80.5 31.5t74 -30.5t29 -71.5q0 -49 -32 -85t-83 -36q-49 0 -76.5 31t-27.5 76z" />
<glyph unicode="&#xf0;" horiz-adv-x="1030" d="M86 346q0 242 142.5 430.5t344.5 188.5q90 0 181 -37q-27 139 -97 262l-256 -113l13 99l194 86q-84 117 -207 190l31 51q147 -53 281 -194l221 98l-12 -98l-150 -68q180 -231 180 -530q0 -305 -150.5 -522.5t-377.5 -217.5q-162 0 -250 92.5t-88 282.5zM258 322 q0 -127 50 -210t134 -83q123 0 228.5 185.5t105.5 500.5q0 61 -10 139q-68 20 -152 20q-147 0 -251.5 -150.5t-104.5 -401.5z" />
<glyph unicode="&#xf1;" horiz-adv-x="1130" d="M102 920l9 47q31 8 115.5 20t125.5 12q72 0 72 -75q0 -43 -14 -125q158 201 331 200q113 0 177.5 -71.5t64.5 -173.5q0 -63 -20 -187l-64 -372q-12 -66 -12 -86q0 -35 34.5 -46.5t127.5 -11.5v-47q-125 -33 -234 -33q-94 0 -94 76q0 49 20 160l64 364q18 123 18 160 q0 63 -35.5 103t-101.5 40q-135 0 -295 -178l-121 -696h-157l133 776q12 82 12 92q0 31 -32.5 41.5t-123.5 10.5zM307 1204q45 129 96.5 187.5t122.5 58.5q43 0 148.5 -48t138.5 -48q61 0 115 123l55 -21q-45 -129 -96 -187.5t-123 -58.5q-43 0 -148.5 48.5t-138.5 48.5 q-62 0 -115 -123z" />
<glyph unicode="&#xf2;" horiz-adv-x="1034" d="M86 328q0 274 147.5 472.5t372.5 198.5q162 0 252 -88t90 -268q0 -274 -147.5 -473t-372.5 -199q-162 0 -252 88t-90 269zM252 344q0 -145 51 -230t143 -85q147 0 241.5 179t94.5 419q0 145 -51 230t-143 85q-147 0 -241.5 -179t-94.5 -419zM369 1454q0 49 139 66 q27 -57 98.5 -164.5t130.5 -181.5l-47 -31q-98 59 -209.5 162.5t-111.5 148.5z" />
<glyph unicode="&#xf3;" horiz-adv-x="1034" d="M86 328q0 274 147.5 472.5t372.5 198.5q162 0 252 -88t90 -268q0 -274 -147.5 -473t-372.5 -199q-162 0 -252 88t-90 269zM252 344q0 -145 51 -230t143 -85q147 0 241.5 179t94.5 419q0 145 -51 230t-143 85q-147 0 -241.5 -179t-94.5 -419zM473 1174q59 74 131 181 t98 165q139 -16 140 -66q0 -45 -112 -148.5t-210 -162.5z" />
<glyph unicode="&#xf4;" horiz-adv-x="1034" d="M86 328q0 274 147.5 472.5t372.5 198.5q162 0 252 -88t90 -268q0 -274 -147.5 -473t-372.5 -199q-162 0 -252 88t-90 269zM252 344q0 -145 51 -230t143 -85q147 0 241.5 179t94.5 419q0 145 -51 230t-143 85q-147 0 -241.5 -179t-94.5 -419zM342 1184q68 70 164 180.5 t121 151.5h78q82 -219 159 -338l-43 -35l-182 180l-260 -180z" />
<glyph unicode="&#xf5;" horiz-adv-x="1034" d="M86 328q0 274 147.5 472.5t372.5 198.5q162 0 252 -88t90 -268q0 -274 -147.5 -473t-372.5 -199q-162 0 -252 88t-90 269zM252 344q0 -145 51 -230t143 -85q147 0 241.5 179t94.5 419q0 145 -51 230t-143 85q-147 0 -241.5 -179t-94.5 -419zM283 1204q45 129 96 187.5 t123 58.5q43 0 148.5 -48t137.5 -48q61 0 115 123l55 -21q-45 -129 -96 -187.5t-123 -58.5q-43 0 -148.5 48.5t-137.5 48.5q-62 0 -115 -123z" />
<glyph unicode="&#xf6;" horiz-adv-x="1034" d="M86 328q0 274 147.5 472.5t372.5 198.5q162 0 252 -88t90 -268q0 -274 -147.5 -473t-372.5 -199q-162 0 -252 88t-90 269zM252 344q0 -145 51 -230t143 -85q147 0 241.5 179t94.5 419q0 145 -51 230t-143 85q-147 0 -241.5 -179t-94.5 -419zM301 1311q0 53 36 84.5 t81 31.5t73.5 -30.5t28.5 -71.5q0 -49 -31.5 -85t-82.5 -36q-49 0 -77 31t-28 76zM711 1311q0 53 35.5 84.5t80.5 31.5t74 -30.5t29 -71.5q0 -49 -32 -85t-83 -36q-49 0 -76.5 31t-27.5 76z" />
<glyph unicode="&#xf7;" d="M133 569v107h922v-107h-922zM481 295q0 45 34 79t79 34t79 -34t34 -79t-34 -79t-79 -34t-79 34t-34 79zM481 950q0 45 34 79t79 34t79 -34t34 -79t-34 -78.5t-79 -33.5t-79 33.5t-34 78.5z" />
<glyph unicode="&#xf8;" horiz-adv-x="1034" d="M29 -51l118 145q-61 86 -61 234q0 274 147.5 472.5t372.5 198.5q137 0 221 -63l70 86h107l-119 -145q63 -89 63 -234q0 -274 -147.5 -473t-372.5 -199q-139 0 -223 64l-70 -86h-106zM252 344q0 -66 8 -108l483 595q-51 111 -155 111q-147 0 -241.5 -179t-94.5 -419z M289 139q51 -111 157 -110q147 0 241.5 179t94.5 419q0 53 -10 110z" />
<glyph unicode="&#xf9;" horiz-adv-x="1091" d="M82 920l8 47q33 8 117 20t121 12q72 0 71 -75q0 -41 -20 -160l-62 -363q-23 -129 -22 -170q0 -59 33.5 -97t97.5 -38q137 0 276 168l121 707h158l-121 -707q-20 -123 -20 -155q0 -37 32.5 -46.5t126.5 -11.5v-47q-29 -8 -111.5 -20.5t-119.5 -12.5q-49 0 -70.5 24.5 t-21.5 78.5q0 37 10 92q-147 -195 -321 -195q-113 0 -171.5 70t-58.5 172q0 59 23 186l63 377q12 82 12 92q0 31 -31.5 41.5t-119.5 10.5zM301 1454q0 49 139 66q27 -57 99 -164.5t131 -181.5l-47 -31q-98 59 -210 162.5t-112 148.5z" />
<glyph unicode="&#xfa;" horiz-adv-x="1091" d="M82 920l8 47q33 8 117 20t121 12q72 0 71 -75q0 -41 -20 -160l-62 -363q-23 -129 -22 -170q0 -59 33.5 -97t97.5 -38q137 0 276 168l121 707h158l-121 -707q-20 -123 -20 -155q0 -37 32.5 -46.5t126.5 -11.5v-47q-29 -8 -111.5 -20.5t-119.5 -12.5q-49 0 -70.5 24.5 t-21.5 78.5q0 37 10 92q-147 -195 -321 -195q-113 0 -171.5 70t-58.5 172q0 59 23 186l63 377q12 82 12 92q0 31 -31.5 41.5t-119.5 10.5zM518 1174q59 74 131 181t99 165q139 -16 139 -66q0 -45 -112 -148.5t-210 -162.5z" />
<glyph unicode="&#xfb;" horiz-adv-x="1091" d="M82 920l8 47q33 8 117 20t121 12q72 0 71 -75q0 -41 -20 -160l-62 -363q-23 -129 -22 -170q0 -59 33.5 -97t97.5 -38q137 0 276 168l121 707h158l-121 -707q-20 -123 -20 -155q0 -37 32.5 -46.5t126.5 -11.5v-47q-29 -8 -111.5 -20.5t-119.5 -12.5q-49 0 -70.5 24.5 t-21.5 78.5q0 37 10 92q-147 -195 -321 -195q-113 0 -171.5 70t-58.5 172q0 59 23 186l63 377q12 82 12 92q0 31 -31.5 41.5t-119.5 10.5zM338 1184q68 70 164 180.5t121 151.5h77q82 -219 160 -338l-43 -35l-182 180l-260 -180z" />
<glyph unicode="&#xfc;" horiz-adv-x="1091" d="M82 920l8 47q33 8 117 20t121 12q72 0 71 -75q0 -41 -20 -160l-62 -363q-23 -129 -22 -170q0 -59 33.5 -97t97.5 -38q137 0 276 168l121 707h158l-121 -707q-20 -123 -20 -155q0 -37 32.5 -46.5t126.5 -11.5v-47q-29 -8 -111.5 -20.5t-119.5 -12.5q-49 0 -70.5 24.5 t-21.5 78.5q0 37 10 92q-147 -195 -321 -195q-113 0 -171.5 70t-58.5 172q0 59 23 186l63 377q12 82 12 92q0 31 -31.5 41.5t-119.5 10.5zM305 1311q0 53 36 84.5t81 31.5t73.5 -30.5t28.5 -71.5q0 -49 -31.5 -85t-82.5 -36q-49 0 -77 31t-28 76zM715 1311q0 53 35.5 84.5 t81 31.5t74 -30.5t28.5 -71.5q0 -49 -32 -85t-83 -36q-49 0 -76.5 31t-27.5 76z" />
<glyph unicode="&#xfd;" horiz-adv-x="921" d="M-164 -406q0 47 58 111q92 -49 153 -49q45 0 113.5 73.5t193.5 278.5l-149 836q-8 43 -27.5 59.5t-62.5 16.5h-60l11 49q110 30 208 30q63 0 78 -81l123 -707q256 434 256 557q0 86 -82 152q25 29 72 54t82 25q39 0 58.5 -27.5t19.5 -68.5q0 -100 -73 -246.5t-263 -461.5 l-123 -205q-168 -281 -266.5 -376t-214.5 -95q-104 0 -105 75zM434 1174q59 74 131 181t99 165q139 -16 139 -66q0 -45 -112 -148.5t-210 -162.5z" />
<glyph unicode="&#xfe;" horiz-adv-x="1079" d="M-98 -428l143 41l285 1651q12 82 12 92q0 31 -34 41t-122 10l9 47q131 33 241 33q72 0 72 -76q0 -41 -21 -160l-75 -448q158 197 321 196q131 0 192.5 -94t61.5 -254q0 -170 -63.5 -323.5t-189.5 -255t-285 -101.5q-93 0 -181 27l-67 -383l174 -45v-41h-473v43zM289 115 q74 -84 182 -84q143 0 246.5 175t103.5 386q0 283 -168 282q-110 0 -260 -182z" />
<glyph unicode="&#xff;" horiz-adv-x="921" d="M-164 -406q0 47 58 111q92 -49 153 -49q45 0 113.5 73.5t193.5 278.5l-149 836q-8 43 -27.5 59.5t-62.5 16.5h-60l11 49q110 30 208 30q63 0 78 -81l123 -707q256 434 256 557q0 86 -82 152q25 29 72 54t82 25q39 0 58.5 -27.5t19.5 -68.5q0 -100 -73 -246.5t-263 -461.5 l-123 -205q-168 -281 -266.5 -376t-214.5 -95q-104 0 -105 75zM246 1311q0 53 35.5 84.5t81 31.5t74 -30.5t28.5 -71.5q0 -49 -32 -85t-83 -36q-49 0 -76.5 31t-27.5 76zM655 1311q0 53 36 84.5t81 31.5t73.5 -30.5t28.5 -71.5q0 -49 -31.5 -85t-82.5 -36q-49 0 -77 31 t-28 76z" />
<glyph unicode="&#x152;" horiz-adv-x="1884" d="M133 551q0 229 93 413.5t279.5 296t436.5 111.5h932l-64 -354h-49l-51 278h-475l-96 -540h297l102 202h43l-82 -479h-45l-33 203h-295l-106 -606h469l203 336h45l-88 -412h-959q-281 0 -419 147.5t-138 403.5zM330 545q0 -252 101 -363.5t298 -111.5h100l215 1233h-145 q-143 0 -257 -69t-179.5 -181.5t-99 -242.5t-33.5 -265z" />
<glyph unicode="&#x153;" horiz-adv-x="1601" d="M86 328q0 274 147.5 472.5t372.5 198.5q231 0 316 -194q156 195 393 194q121 0 183.5 -53t62.5 -139q0 -143 -159 -236.5t-468 -95.5q-6 -49 -6 -94q0 -299 221 -299q129 0 287 102l26 -41q-78 -72 -187.5 -122t-213.5 -50q-216 1 -275 183q-147 -182 -358 -183 q-162 0 -252 88t-90 269zM252 344q0 -145 51 -230t143 -85q147 0 241.5 179t94.5 419q0 139 -49 227t-145 88q-147 0 -241.5 -179t-94.5 -419zM944 532q72 2 145.5 18.5t144.5 49.5t115 92.5t44 136.5q0 47 -29 80t-84 33q-125 0 -214 -121t-122 -289z" />
<glyph unicode="&#x178;" horiz-adv-x="1411" d="M174 1327l10 45h580l-8 -43l-228 -53l258 -598l449 598l-207 51l10 45h486l-8 -45l-166 -51l-527 -676l-88 -504l201 -51l-8 -45h-609l9 45l217 51l84 479l-314 703zM592 1638q0 53 36 85t81 32t73.5 -30.5t28.5 -71.5q0 -49 -31.5 -85t-83.5 -36q-49 0 -76.5 30.5 t-27.5 75.5zM1001 1638q0 53 36 85t81 32t74 -30.5t29 -71.5q0 -49 -32 -85t-83 -36q-49 0 -77 30.5t-28 75.5z" />
<glyph unicode="&#x2c6;" horiz-adv-x="819" d="M272 1184q68 70 164 180.5t121 151.5h78q82 -219 160 -338l-43 -35l-183 180l-260 -180z" />
<glyph unicode="&#x2dc;" horiz-adv-x="819" d="M223 1204q45 129 96.5 187.5t122.5 58.5q43 0 148.5 -48t138.5 -48q61 0 115 123l55 -21q-45 -129 -96 -187.5t-123 -58.5q-43 0 -148.5 48.5t-138.5 48.5q-61 0 -114 -123z" />
<glyph unicode="&#x2000;" horiz-adv-x="921" />
<glyph unicode="&#x2001;" horiz-adv-x="1843" />
<glyph unicode="&#x2002;" horiz-adv-x="921" />
<glyph unicode="&#x2003;" horiz-adv-x="1843" />
<glyph unicode="&#x2004;" horiz-adv-x="614" />
<glyph unicode="&#x2005;" horiz-adv-x="460" />
<glyph unicode="&#x2006;" horiz-adv-x="307" />
<glyph unicode="&#x2007;" horiz-adv-x="307" />
<glyph unicode="&#x2008;" horiz-adv-x="230" />
<glyph unicode="&#x2009;" horiz-adv-x="368" />
<glyph unicode="&#x200a;" horiz-adv-x="102" />
<glyph unicode="&#x2010;" horiz-adv-x="716" d="M72 457l20 114h574l-21 -114h-573z" />
<glyph unicode="&#x2011;" horiz-adv-x="716" d="M72 457l20 114h574l-21 -114h-573z" />
<glyph unicode="&#x2012;" horiz-adv-x="716" d="M72 457l20 114h574l-21 -114h-573z" />
<glyph unicode="&#x2013;" horiz-adv-x="1228" d="M72 457l20 114h1086l-21 -114h-1085z" />
<glyph unicode="&#x2014;" horiz-adv-x="1843" d="M72 457l20 114h1700l-20 -114h-1700z" />
<glyph unicode="&#x2018;" horiz-adv-x="526" d="M213 1036q0 94 61.5 193.5t178.5 173.5l32 -55q-139 -96 -178 -218h31q55 0 88 -27.5t33 -74.5q0 -57 -35 -93t-84 -36q-55 0 -91 37t-36 100z" />
<glyph unicode="&#x2019;" horiz-adv-x="526" d="M246 952q139 96 178 217h-31q-55 0 -88 28t-33 75q0 57 35 93t84 36q55 0 91 -37t36 -100q0 -94 -61.5 -193.5t-177.5 -173.5z" />
<glyph unicode="&#x201a;" horiz-adv-x="526" d="M53 -233q139 96 178 217h-30q-55 0 -88 27.5t-33 74.5q0 57 35 93t84 36q55 0 91 -37t36 -100q0 -94 -61.5 -193.5t-178.5 -173.5z" />
<glyph unicode="&#x201c;" horiz-adv-x="874" d="M213 1036q0 94 61.5 193.5t178.5 173.5l32 -55q-139 -96 -178 -218h31q55 0 88 -27.5t33 -74.5q0 -57 -35 -93t-84 -36q-55 0 -91 37t-36 100zM561 1036q0 94 61.5 193.5t178.5 173.5l33 -55q-139 -96 -179 -218h31q55 0 88 -27.5t33 -74.5q0 -57 -35 -93t-84 -36 q-55 0 -91 37t-36 100z" />
<glyph unicode="&#x201d;" horiz-adv-x="874" d="M246 952q139 96 178 217h-31q-55 0 -88 28t-33 75q0 57 35 93t84 36q55 0 91 -37t36 -100q0 -94 -61.5 -193.5t-177.5 -173.5zM594 952q139 96 178 217h-31q-55 0 -87.5 28t-32.5 75q0 57 34.5 93t83.5 36q55 0 91 -37t36 -100q0 -94 -61.5 -193.5t-177.5 -173.5z" />
<glyph unicode="&#x201e;" horiz-adv-x="874" d="M53 -233q139 96 178 217h-30q-55 0 -88 27.5t-33 74.5q0 57 35 93t84 36q55 0 91 -37t36 -100q0 -94 -61.5 -193.5t-178.5 -173.5zM401 -233q139 96 179 217h-31q-55 0 -88 27.5t-33 74.5q0 57 35 93t84 36q55 0 91 -37t36 -100q0 -94 -61.5 -193.5t-178.5 -173.5z" />
<glyph unicode="&#x2022;" horiz-adv-x="819" d="M168 606q0 131 87 209t200 78q111 0 180.5 -75t69.5 -175q0 -119 -79 -206t-202 -87q-117 0 -186.5 75t-69.5 181z" />
<glyph unicode="&#x2026;" horiz-adv-x="1536" d="M92 90q0 59 40 95t91 36t83 -34t32 -81q0 -55 -36 -95t-93 -40q-53 0 -85 35t-32 84zM604 90q0 59 40 95t91 36t83 -34t32 -81q0 -55 -36 -95t-93 -40q-53 0 -85 35t-32 84zM1116 90q0 59 40 95t91 36t83 -34t32 -81q0 -55 -36 -95t-93 -40q-53 0 -85 35t-32 84z" />
<glyph unicode="&#x202f;" horiz-adv-x="368" />
<glyph unicode="&#x2039;" horiz-adv-x="704" d="M92 508l504 418l37 -41l-348 -389l211 -379l-47 -35z" />
<glyph unicode="&#x203a;" horiz-adv-x="704" d="M72 123l342 391l-207 373l49 39l356 -422l-503 -422z" />
<glyph unicode="&#x205f;" horiz-adv-x="460" />
<glyph unicode="&#x20ac;" d="M61 524l13 72h129q10 82 26 141h-127l13 72h135q76 233 228.5 388t363.5 155q160 0 282 -72l-45 -299h-61q-6 154 -46 230.5t-153 76.5q-123 0 -218 -136t-150 -343h397l-12 -72h-402q-20 -90 -26 -141h399l-12 -72h-396q-6 -68 -6 -129q0 -356 215 -356q106 0 178 87 t125 263h72l-86 -334q-61 -35 -149.5 -59.5t-159.5 -24.5q-182 0 -288.5 130t-106.5 354q0 45 2 69h-134z" />
<glyph unicode="&#x2122;" horiz-adv-x="2109" d="M209 1145l41 227h760l-41 -227h-45l-33 166h-209l-111 -629l125 -31l-8 -39h-387l8 39l133 31l111 629h-213l-86 -166h-45zM997 612l9 41l122 29l109 612l-111 43l7 35h284l129 -579l330 579h274l-8 -39l-119 -39l-108 -612l108 -31l-8 -39h-354l8 39l117 31l104 592 l-387 -672h-41l-157 668l-105 -588l113 -29l-8 -41h-308z" />
<glyph unicode="&#xe000;" horiz-adv-x="1000" d="M0 1000h1000v-1000h-1000v1000z" />
<glyph unicode="&#xfb01;" horiz-adv-x="1251" d="M-225 -426q0 59 73 129q78 -82 144 -82q68 0 96 160l188 1110h-143l14 80h142l12 80q29 193 170 314.5t295 121.5q72 0 72 -55q0 -35 -22.5 -72t-51.5 -57q-90 61 -166 61q-57 0 -93 -88t-59 -305h234l-14 -80h-230l-155 -907q-18 -106 -65.5 -207t-139.5 -179.5 t-207 -78.5q-39 0 -66.5 14t-27.5 41zM797 920l8 47q131 33 242 32q72 0 71 -75q0 -41 -20 -160l-99 -569q-12 -66 -12 -86q0 -35 34 -46.5t128 -11.5v-47q-125 -33 -234 -33q-92 0 -92 80q0 41 19 156l98 569q12 82 12 92q0 31 -33.5 41.5t-121.5 10.5zM979 1313 q0 57 38 91t87 34t79.5 -33t30.5 -78q0 -51 -34.5 -90t-87.5 -39q-51 0 -82 33t-31 82z" />
<glyph unicode="&#xfb02;" horiz-adv-x="1239" d="M-225 -426q0 59 73 129q78 -82 144 -82q68 0 96 160l188 1110h-143l14 80h142l12 80q29 193 170 314.5t295 121.5q72 0 72 -55q0 -35 -22.5 -72t-51.5 -57q-90 61 -166 61q-57 0 -93 -88t-59 -305h234l-14 -80h-230l-155 -907q-18 -106 -65.5 -207t-139.5 -179.5 t-207 -78.5q-39 0 -66.5 14t-27.5 41zM797 47q0 49 20 160l182 1057q12 82 13 92q0 31 -34 41t-122 10l8 47q131 33 242 33q72 0 72 -76q0 -41 -21 -160l-182 -1056q-12 -66 -12 -86q0 -35 34.5 -46.5t126.5 -11.5v-47q-131 -33 -233 -33q-94 0 -94 76z" />
<glyph unicode="&#xfb03;" horiz-adv-x="1945" d="M1490 920l9 47q127 32 235 32h6q72 0 72 -75q-1 -41 -21 -160l-98 -569q-12 -66 -12 -86q0 -35 33.5 -46.5t128.5 -11.5v-47q-125 -33 -234 -33q-92 0 -92 80q0 41 18 156l99 569q12 82 12 92q0 31 -34 41.5t-122 10.5zM1673 1313q0 57 37.5 91t87 34t80 -33t30.5 -78 q0 -51 -34.5 -90t-88.5 -39q-51 0 -81.5 33t-30.5 82zM469 -426q0 59 73 129q78 -82 144 -82q68 0 96 160l188 1110h-143l14 80h142l12 80q29 193 170 314.5t295 121.5q72 0 72 -55q0 -35 -22.5 -72t-51.5 -57q-90 61 -166 61q-57 0 -93 -88t-59 -305h234l-14 -80h-230 l-155 -907q-18 -106 -65.5 -207t-139.5 -179.5t-207 -78.5q-39 0 -66.5 14t-27.5 41zM-225 -426q0 59 73 129q78 -82 144 -82q68 0 96 160l188 1110h-143l14 80h142l12 80q29 193 170 314.5t295 121.5q72 0 72 -55q0 -35 -22.5 -72t-51.5 -57q-90 61 -166 61q-57 0 -93 -88 t-59 -305h234l-14 -80h-230l-155 -907q-18 -106 -65.5 -207t-139.5 -179.5t-207 -78.5q-39 0 -66.5 14t-27.5 41z" />
<glyph unicode="&#xfb04;" horiz-adv-x="1936" d="M1494 47q0 49 21 160l182 1057q12 82 13 92q0 31 -34 41t-122 10l8 47q131 33 242 33q71 0 71 -74q0 -43 -20 -162l-182 -1056q-12 -66 -13 -86q0 -35 35 -46.5t127 -11.5v-47q-131 -33 -233 -33q-94 0 -95 76zM469 -426q0 59 73 129q78 -82 144 -82q68 0 96 160 l188 1110h-143l14 80h142l12 80q29 193 170 314.5t295 121.5q72 0 72 -55q0 -35 -22.5 -72t-51.5 -57q-90 61 -166 61q-57 0 -93 -88t-59 -305h234l-14 -80h-230l-155 -907q-18 -106 -65.5 -207t-139.5 -179.5t-207 -78.5q-39 0 -66.5 14t-27.5 41zM-225 -426q0 59 73 129 q78 -82 144 -82q68 0 96 160l188 1110h-143l14 80h142l12 80q29 193 170 314.5t295 121.5q72 0 72 -55q0 -35 -22.5 -72t-51.5 -57q-90 61 -166 61q-57 0 -93 -88t-59 -305h234l-14 -80h-230l-155 -907q-18 -106 -65.5 -207t-139.5 -179.5t-207 -78.5q-39 0 -66.5 14 t-27.5 41z" />
</font>
</defs>
</svg>
