<?xml version="1.0" standalone="no"?>
<!DOCTYPE svg PUBLIC "-//W3C//DTD SVG 1.1//EN" "http://www.w3.org/Graphics/SVG/1.1/DTD/svg11.dtd" >
<svg xmlns="http://www.w3.org/2000/svg">
<metadata>
This is a custom SVG webfont generated by Font Squirrel.
Copyright   : Copyright  2012 by Librerias Gandhi SA de CV All rights reserved
Designer    : Cristobal Henestrosa  Raul Plancarte in collaboration with David Kimura  Gabriela Varela
Foundry     : Cristobal Henestrosa  Raul Plancarte in collaboration with David Kimura  Gabriela Varela
Foundry URL : httpwwwgandhicommx
</metadata>
<defs>
<font id="GandhiSerifRegular" horiz-adv-x="1126" >
<font-face units-per-em="2048" ascent="1567" descent="-481" />
<missing-glyph horiz-adv-x="512" />
<glyph unicode=" "  horiz-adv-x="512" />
<glyph unicode="&#x09;" horiz-adv-x="512" />
<glyph unicode="&#xa0;" horiz-adv-x="512" />
<glyph unicode="!" horiz-adv-x="659" d="M205 96q0 51 37 88t88 37t88 -37t37 -88t-37 -88t-88 -37t-88 37t-37 88zM217 1282q0 119 112.5 119t112.5 -119q0 -117 -84 -881h-57q-84 764 -84 881z" />
<glyph unicode="&#x22;" horiz-adv-x="778" d="M143 1323h185l-64 -459h-57zM451 1323h184l-64 -459h-57z" />
<glyph unicode="#" d="M66 383v104h229l47 277h-250v104h266l56 332h106l-55 -332h283l55 332h106l-55 -332h221v-104h-237l-47 -277h258v-104h-275l-55 -332h-107l56 332h-283l-55 -332h-107l56 332h-213zM401 487h283l47 277h-282z" />
<glyph unicode="$" d="M135 389h72q20 -84 41.5 -139t57.5 -106.5t91.5 -77t132.5 -27.5v551q-190 88 -281 179t-91 216q0 160 105.5 257t275.5 108v217h79v-217q139 -8 318 -62l-6 -297h-70q-43 260 -242 291v-498l39 -18q184 -86 267.5 -180t83.5 -221q0 -152 -108.5 -258.5t-289.5 -129.5 v-210h-80v204h-10q-166 0 -366 84zM326 1071q0 -84 48 -137t165 -111v463q-92 -6 -152.5 -64.5t-60.5 -150.5zM610 43q100 18 164 82t64 160q0 86 -54.5 146.5t-173.5 119.5v-508z" />
<glyph unicode="%" horiz-adv-x="1601" d="M82 1020q0 154 88 243t240 89q139 0 224 -95.5t85 -224.5q0 -147 -88 -238.5t-238 -91.5q-139 0 -225 94.5t-86 223.5zM227 1024q0 -270 176 -270q170 0 170 276q0 270 -176 270q-170 0 -170 -276zM283 29l954 1323l82 -58l-954 -1323zM883 291q0 147 88 238.5t237 91.5 q139 0 225.5 -94.5t86.5 -223.5q0 -154 -88.5 -243t-239.5 -89q-139 0 -224 95.5t-85 224.5zM1028 293q0 -270 176 -270q170 0 170 276q0 270 -176 270q-170 0 -170 -276z" />
<glyph unicode="&#x26;" horiz-adv-x="1482" d="M82 336q0 135 92 250.5t248 177.5q-127 180 -127 299q0 123 93 206t241 83q131 0 223 -66.5t92 -185.5q0 -221 -280 -359l290 -395l195 293l-143 59v41h415v-41l-166 -61l-256 -354q96 -129 153.5 -178.5t135.5 -49.5h92v-45q-113 -39 -209 -39q-86 0 -153.5 39 t-136.5 129q-156 -168 -377 -168q-178 0 -300 99.5t-122 265.5zM264 377q0 -145 83 -230.5t210 -85.5q156 0 281 138l-379 516q-94 -51 -144.5 -141.5t-50.5 -196.5zM457 1126q0 -106 108 -252l62 -83q70 49 112.5 128.5t42.5 170.5q0 86 -42 143t-119 57q-70 0 -117 -45 t-47 -119z" />
<glyph unicode="'" horiz-adv-x="471" d="M143 1323h185l-64 -459h-57z" />
<glyph unicode="(" horiz-adv-x="921" d="M143 649q2 350 185.5 611.5t447.5 349.5l23 -47q-221 -125 -343 -363.5t-122 -550.5q0 -313 120.5 -550.5t342.5 -362.5l-25 -47q-264 88 -446.5 349t-182.5 611z" />
<glyph unicode=")" horiz-adv-x="921" d="M123 -264q221 125 343 363.5t122 549.5q0 313 -121 551t-342 363l25 47q264 -88 446 -349.5t182 -611.5q-2 -350 -185 -611t-448 -349z" />
<glyph unicode="*" horiz-adv-x="878" d="M82 870l319 127l-319 127l68 121l270 -213l-49 340h137l-49 -340l270 213l68 -121l-320 -127l320 -127l-68 -120l-270 213l49 -340h-137l49 340l-270 -213z" />
<glyph unicode="+" d="M102 569v107h406v401h110v-401h406v-107h-406v-403h-110v403h-406z" />
<glyph unicode="," horiz-adv-x="512" d="M127 92q0 55 36 89t89 34q59 0 96 -40t37 -109q0 -106 -60.5 -212t-156.5 -165l-41 53q59 39 107.5 104.5t56.5 124.5h-29q-51 0 -93 31t-42 90z" />
<glyph unicode="-" horiz-adv-x="716" d="M72 457v114h573v-114h-573z" />
<glyph unicode="." horiz-adv-x="512" d="M131 96q0 51 37 88t88 37t88 -37t37 -88t-37 -88t-88 -37t-88 37t-37 88z" />
<glyph unicode="/" horiz-adv-x="1097" d="M41 -481l897 2068h119l-897 -2068h-119z" />
<glyph unicode="0" d="M98 662q0 291 126 490.5t345 199.5q211 0 335 -200.5t124 -489.5q0 -188 -49 -342t-154.5 -251.5t-253.5 -97.5q-229 0 -351 197t-122 494zM301 662q0 -195 20.5 -323t60.5 -190.5t85 -85t108 -22.5q55 0 97.5 27.5t78 93t55 192t19.5 308.5q0 197 -20.5 326.5t-59 190 t-77.5 82t-95 21.5q-150 0 -211 -141.5t-61 -478.5z" />
<glyph unicode="1" d="M186 1143v47l471 145h56v-1231l311 -59v-45h-817v45l315 59v1059z" />
<glyph unicode="2" d="M66 0v41q156 131 258 229.5t201.5 218t147.5 237.5t48 237q0 137 -61.5 231t-174.5 94q-104 0 -158.5 -75.5t-58.5 -208.5q-162 4 -162 100q0 106 119 177t291 71q193 0 304.5 -92.5t111.5 -247.5q0 -180 -149.5 -382t-485.5 -470h590l69 225h48l-19 -385h-919z" />
<glyph unicode="3" d="M86 201q0 57 42 94t108 39q2 -139 89 -217t216 -78q133 0 213 67.5t80 186.5q0 145 -136.5 235t-388.5 101v55q215 37 329 126t114 210q0 92 -65.5 149.5t-168.5 57.5q-172 0 -295 -137l-49 34q166 227 424 228q158 0 251 -76t93 -197q0 -125 -89 -213t-232 -133 q186 -33 281 -133t95 -227q0 -168 -121.5 -285t-338.5 -117q-188 0 -319.5 72t-131.5 158z" />
<glyph unicode="4" d="M66 401v39l669 895h88v-819h230v-115h-230v-301l215 -55v-45h-637v45l236 55v301h-571zM213 516h424v563z" />
<glyph unicode="5" d="M123 176q0 51 45 87t98 36q14 -115 79 -188.5t194 -73.5q131 0 222 72.5t91 212.5q0 317 -533 317h-126l65 678h576l40 115h48l-15 -291h-604l-27 -334h130q121 0 224 -21.5t189 -66.5t135.5 -125t49.5 -186q0 -205 -138.5 -321t-351.5 -116q-168 0 -279.5 57.5 t-111.5 147.5z" />
<glyph unicode="6" d="M113 487q0 322 220 562.5t564 332.5l16 -63q-283 -106 -442.5 -311t-159.5 -506q0 -199 80 -330t207 -131q106 0 175 98.5t69 253.5q0 154 -74 258.5t-205 104.5q-57 0 -137 -27l-12 49q98 66 235 66q176 0 280.5 -106.5t104.5 -280.5q0 -213 -134 -349.5t-339 -136.5 q-199 0 -323.5 134.5t-124.5 381.5z" />
<glyph unicode="7" d="M123 977l35 412h47l22 -72h844v-43q-326 -623 -627 -1274h-217l701 1137h-705l-49 -160h-51z" />
<glyph unicode="8" d="M100 299q0 113 73 208t206 152q-113 61 -175.5 139.5t-62.5 194.5q0 160 127 259.5t312 99.5q199 0 307 -87t108 -229q0 -102 -74.5 -189t-199.5 -136q147 -72 228 -155t81 -214q0 -158 -126 -264.5t-335 -106.5q-215 0 -342 92.5t-127 235.5zM283 311 q0 -121 81.5 -195.5t221.5 -74.5q111 0 191.5 58t80.5 173q0 47 -19.5 89t-45 71t-76.5 60.5t-86 48t-102.5 47t-98.5 45.5q-147 -127 -147 -322zM307 1067q0 -49 22.5 -93t48 -72t87 -63.5t91.5 -51t110 -52.5q166 117 165 299q0 106 -67.5 176t-192.5 70 q-111 0 -187.5 -54.5t-76.5 -158.5z" />
<glyph unicode="9" d="M94 866q0 213 134 349.5t339 136.5q199 0 324 -134.5t125 -381.5q0 -322 -220.5 -562.5t-564.5 -332.5l-16 63q283 106 442.5 311t159.5 506q0 199 -80 330t-207 131q-106 0 -174.5 -98.5t-68.5 -253.5q0 -154 73.5 -258.5t204.5 -104.5q57 0 137 27l13 -49 q-98 -66 -236 -66q-176 0 -280.5 106.5t-104.5 280.5z" />
<glyph unicode=":" horiz-adv-x="512" d="M131 96q0 51 37 88t88 37t88 -37t37 -88t-37 -88t-88 -37t-88 37t-37 88zM131 731q0 51 37 88t88 37t88 -37t37 -88t-37 -88t-88 -37t-88 37t-37 88z" />
<glyph unicode=";" horiz-adv-x="512" d="M127 92q0 55 36 89t89 34q59 0 96 -40t37 -109q0 -106 -60.5 -212t-156.5 -165l-33 45q59 39 106.5 107.5t55.5 129.5h-35q-51 0 -93 31t-42 90zM131 731q0 51 37 88t88 37t88 -37t37 -88t-37 -88t-88 -37t-88 37t-37 88z" />
<glyph unicode="&#x3c;" d="M154 573v103l749 399l55 -100l-663 -350l663 -351l-55 -100z" />
<glyph unicode="=" d="M102 375v106h922v-106h-922zM102 764v106h922v-106h-922z" />
<glyph unicode="&#x3e;" d="M168 268l663 350l-663 351l55 100l750 -399v-103l-750 -399z" />
<glyph unicode="?" horiz-adv-x="843" d="M82 1174q2 98 100.5 162.5t235.5 64.5q154 0 249 -82t95 -207q0 -74 -31 -139.5t-78 -109.5t-101 -87t-101.5 -75.5t-78 -72.5t-30.5 -79q0 -41 28.5 -65.5t73.5 -24.5q66 0 136 37l16 -56q-82 -51 -180.5 -51t-166 48t-67.5 136q0 74 44 137.5t107.5 109.5t126 92 t106.5 109.5t44 137.5q0 82 -51 134.5t-133 52.5q-90 0 -138 -69t-52 -183h-39q-115 0 -115 80zM276 96q0 51 37 88t88.5 37t88 -37t36.5 -88t-36.5 -88t-88 -37t-88.5 37t-37 88z" />
<glyph unicode="@" horiz-adv-x="1941" d="M123 451q0 260 99.5 465.5t304 330.5t485.5 125q158 0 299 -47t256.5 -138t183.5 -243.5t68 -345.5q0 -274 -140.5 -448.5t-369.5 -174.5q-90 0 -140.5 39t-56.5 109q-49 -63 -127 -107.5t-166 -44.5q-102 0 -169.5 50.5t-67.5 144.5q0 133 136 217t394 115v241 q0 203 -149 203q-88 0 -143.5 -62.5t-57.5 -185.5h-39q-115 0 -115 80q0 96 124 160.5t284 64.5q264 0 264 -272v-518q0 -72 17.5 -100.5t62.5 -28.5q152 0 254 143.5t102 376.5q0 330 -202.5 507t-501.5 177q-354 0 -570.5 -229.5t-216.5 -603.5q0 -387 204 -604.5 t599 -217.5q170 0 331 51.5t277 139.5l52 -70q-123 -92 -303.5 -150.5t-358.5 -58.5q-238 0 -415 71t-281.5 196.5t-155.5 286.5t-51 356zM764 207q0 -66 33.5 -101.5t93 -35.5t119 38.5t102.5 100.5v231q-160 -25 -254 -87t-94 -146z" />
<glyph unicode="A" horiz-adv-x="1519" d="M51 0v43l170 51l510 1307h60l495 -1311l172 -45v-45h-577v45l211 49l-152 398h-469l-149 -400l200 -49v-43h-471zM500 567h411l-204 545z" />
<glyph unicode="B" horiz-adv-x="1271" d="M82 0v45l194 51v1180l-194 51v45h588q84 0 156.5 -15.5t138 -49t103.5 -98t38 -154.5q0 -119 -87 -209t-241 -129q78 -4 145.5 -24.5t127 -57.5t94.5 -102.5t35 -151.5q0 -166 -132.5 -273.5t-365.5 -107.5h-600zM467 82q70 -16 154 -16q180 0 263 71.5t83 218.5 q0 156 -93.5 239t-267.5 83h-139v-596zM467 750h149q133 0 209 74.5t76 213.5q0 266 -258 267q-100 0 -176 -15v-540z" />
<glyph unicode="C" horiz-adv-x="1398" d="M113 670q0 348 188 539.5t494 191.5q106 0 246.5 -30t218.5 -58l12 -314h-70q-96 334 -420 334q-213 0 -340 -175t-127 -468q0 -301 134.5 -475t381.5 -174q147 0 242.5 88t124.5 250h78l-27 -311q-229 -96 -428 -97q-324 0 -516 191.5t-192 507.5z" />
<glyph unicode="D" horiz-adv-x="1550" d="M82 0v45l194 51v1180l-194 51v45h623q352 0 542.5 -176t190.5 -475q0 -328 -202 -524.5t-556 -196.5h-598zM467 74h209q258 0 408.5 156t150.5 475q0 127 -29.5 229t-92 186t-173.5 131t-260 47h-213v-1224z" />
<glyph unicode="E" horiz-adv-x="1239" d="M82 0v45l194 51v1180l-194 51v45h1012v-354h-54l-98 278h-475v-540h289l71 202h45v-479h-45l-71 203h-289v-606h481l131 336h47l-18 -412h-1026z" />
<glyph unicode="F" horiz-adv-x="1175" d="M82 0v45l194 51v1180l-194 51v45h1012v-348h-54l-100 272h-473v-540h268l72 202h45v-479h-45l-72 203h-268v-586l215 -51v-45h-600z" />
<glyph unicode="G" horiz-adv-x="1536" d="M113 670q0 348 188 539.5t494 191.5q106 0 246.5 -30t218.5 -58l12 -314h-70q-96 334 -420 334q-213 0 -340 -175t-127 -468q0 -301 134.5 -475t381.5 -174q157 0 259 72v401l-201 51v45h575v-45l-184 -51v-424q-233 -119 -459 -119q-324 0 -516 191.5t-192 507.5z" />
<glyph unicode="H" horiz-adv-x="1681" d="M82 0v45l194 51v1180l-194 51v45h586v-45l-201 -51v-520h747v520l-200 51v45h585v-45l-194 -51v-1180l194 -51v-45h-585v45l200 51v584h-747v-584l201 -51v-45h-586z" />
<glyph unicode="I" horiz-adv-x="743" d="M82 0v45l194 51v1180l-194 51v45h580v-45l-195 -51v-1180l195 -51v-45h-580z" />
<glyph unicode="J" horiz-adv-x="747" d="M72 -141q131 74 175 156t44 268v993l-195 51v45h580v-45l-195 -51v-901q0 -225 -88 -363.5t-295 -206.5z" />
<glyph unicode="K" horiz-adv-x="1478" d="M82 0v45l194 51v1180l-194 51v45h580v-45l-195 -51v-1180l195 -51v-45h-580zM516 702l543 574l-205 53v43h500v-43l-172 -59l-480 -490l531 -643q74 -92 184 -92v-45q-92 -29 -200 -29q-63 0 -106.5 26t-92.5 85z" />
<glyph unicode="L" horiz-adv-x="1208" d="M82 0v45l194 51v1180l-194 51v45h594v-45l-209 -51v-1200h481l131 336h47l-18 -412h-1026z" />
<glyph unicode="M" horiz-adv-x="1828" d="M72 0v45l194 47v1184l-194 51v45h413l426 -1100l394 1100h442v-45l-195 -51v-1180l195 -51v-45h-580v45l195 51v1153l-463 -1267h-72l-469 1202v-1092l195 -47v-45h-481z" />
<glyph unicode="N" horiz-adv-x="1579" d="M72 0v45l194 47v1184l-194 51v45h407l742 -1032v940l-205 47v45h491v-45l-194 -47v-1298h-60l-895 1228v-1118l205 -47v-45h-491z" />
<glyph unicode="O" horiz-adv-x="1560" d="M113 690q0 313 176 512t499 199q330 0 495 -196.5t165 -520.5q0 -313 -176 -513t-500 -200q-330 0 -494.5 198t-164.5 521zM315 690q0 -319 126.5 -484t359.5 -165q207 0 325.5 179t118.5 464q0 319 -126 483t-359 164q-207 0 -326 -178t-119 -463z" />
<glyph unicode="P" horiz-adv-x="1208" d="M82 0v45l194 51v1180l-194 51v45h549q102 0 187 -17.5t160 -57.5t117 -112.5t42 -172.5q0 -172 -137.5 -286t-358.5 -114h-63v58q182 14 270 105t88 245q0 139 -81 211t-228 72q-82 0 -160 -15v-1192l215 -51v-45h-600z" />
<glyph unicode="Q" horiz-adv-x="1560" d="M113 690q0 313 176 512t499 199q330 0 495 -196.5t165 -520.5q0 -266 -129 -453.5t-371 -240.5q61 -127 193.5 -253t228.5 -126h74v-47q-117 -43 -215 -43q-127 0 -265.5 138t-238.5 314q-307 14 -459.5 210t-152.5 507zM315 690q0 -319 126.5 -484t359.5 -165 q207 0 325.5 179t118.5 464q0 319 -126 483t-359 164q-207 0 -326 -178t-119 -463z" />
<glyph unicode="R" horiz-adv-x="1384" d="M82 0v45l194 51v1180l-194 51v45h553q510 0 510 -340q0 -303 -430 -368q35 -6 60.5 -13.5t65.5 -26t75.5 -53t64.5 -86.5l205 -352q31 -51 69.5 -69.5t108.5 -18.5v-45q-92 -29 -190 -29q-68 0 -112 26t-79 85l-258 448q-63 113 -184 113h-74v-547l201 -51v-45h-586z M467 715h151q145 0 235.5 90t90.5 235q0 127 -82 196t-231 69q-74 -1 -164 -17v-573z" />
<glyph unicode="S" horiz-adv-x="1067" d="M102 403h72q43 -182 112.5 -272t223.5 -90q125 0 210 69.5t85 184.5q0 96 -69.5 169t-170 123t-201 102t-170 136t-69.5 197q0 176 118.5 277.5t305.5 101.5q162 0 354 -66l-6 -307h-70q-47 307 -297 307q-102 0 -169.5 -61.5t-67.5 -163.5q0 -94 70.5 -162.5t171 -116 t200 -99.5t170 -141t70.5 -212q0 -176 -135 -292t-353 -116q-170 0 -366 86z" />
<glyph unicode="T" horiz-adv-x="1341" d="M82 1018v354h1178v-354h-54l-98 278h-342v-1200l209 -51v-45h-608v45l208 51v1200h-342l-98 -278h-53z" />
<glyph unicode="U" horiz-adv-x="1544" d="M61 1327v45h586v-45l-201 -51v-774q0 -209 110 -320.5t275 -111.5q162 0 266.5 120t104.5 345v745l-207 47v45h498v-45l-195 -47v-776q0 -254 -150.5 -393.5t-363.5 -139.5t-370.5 121t-157.5 350v834z" />
<glyph unicode="V" horiz-adv-x="1519" d="M61 1327v45h588v-45l-219 -51l383 -1006l383 1008l-209 51v43h481v-43l-174 -57l-506 -1290h-59l-493 1294z" />
<glyph unicode="W" horiz-adv-x="2256" d="M61 1327v45h588v-45l-219 -51l358 -993l293 858l-47 135l-174 51v45h588v-45l-219 -51l338 -997l358 997l-203 53v43h484v-43l-174 -57l-486 -1290h-59l-354 1011l-365 -1011h-59l-473 1294z" />
<glyph unicode="X" horiz-adv-x="1499" d="M61 0v43l170 51l433 576l-408 602l-168 55v45h582v-43l-201 -51l311 -469l318 467l-191 53v43h488v-45l-174 -55l-387 -543l438 -639l166 -45v-45h-582v45l193 45l-332 500l-350 -490l192 -55v-45h-498z" />
<glyph unicode="Y" horiz-adv-x="1429" d="M41 1327v45h588v-43l-217 -53l356 -598l344 598l-215 53v43h492v-43l-162 -53l-408 -676v-504l209 -51v-45h-608v45l209 51v479l-436 703z" />
<glyph unicode="Z" horiz-adv-x="1269" d="M72 0v41l815 1255h-606l-99 -278h-53v354h1001v-41l-817 -1257h674l133 338h47l-18 -412h-1077z" />
<glyph unicode="[" horiz-adv-x="876" d="M205 -322v1942h549v-57h-371v-1827h371v-58h-549z" />
<glyph unicode="\" horiz-adv-x="1097" d="M41 1587h119l897 -2068h-119z" />
<glyph unicode="]" horiz-adv-x="876" d="M123 -264h371v1827h-371v57h549v-1942h-549v58z" />
<glyph unicode="^" d="M113 602l399 750h102l400 -750l-101 -55l-350 663l-350 -663z" />
<glyph unicode="_" d="M-10 -219h1147v-107h-1147v107z" />
<glyph unicode="`" horiz-adv-x="819" d="M231 1454q0 53 146 66q47 -124 211 -351l-49 -26q-90 59 -199 163.5t-109 147.5z" />
<glyph unicode="a" horiz-adv-x="966" d="M72 166q0 133 136 217t394 115v241q0 203 -149 203q-88 0 -143.5 -62.5t-57.5 -185.5h-39q-115 0 -115 80q0 96 124 160.5t284 64.5q264 0 264 -272v-553q0 -70 22.5 -97.5t77.5 -27.5h52v-45q-78 -33 -187 -33q-61 0 -97 30t-36 85v37q-49 -63 -127 -107.5t-166 -44.5 q-102 0 -169.5 50.5t-67.5 144.5zM254 207q0 -66 34 -101.5t93 -35.5t118.5 38.5t102.5 100.5v231q-160 -25 -254 -87t-94 -146z" />
<glyph unicode="b" horiz-adv-x="1148" d="M31 1360v49l317 78v-641q144 153 322 153h2q164 0 269.5 -129t105.5 -335q0 -270 -144.5 -417t-347.5 -147q-137 0 -272 60l-58 -60h-45v1370zM348 113q102 -84 221 -84q129 0 218.5 118.5t89.5 305.5q0 193 -79 307t-218 114q-123 0 -232 -108v-653z" />
<glyph unicode="c" horiz-adv-x="999" d="M102 414q0 145 49.5 274t164 220t274.5 91q133 0 224 -58t91 -142q0 -100 -160 -101q-4 113 -49 178.5t-129 65.5q-127 0 -209 -120t-82 -320.5t85 -309t237 -108.5q139 0 291 113l29 -47q-84 -78 -188.5 -128.5t-205.5 -50.5q-188 0 -305 119t-117 324z" />
<glyph unicode="d" horiz-adv-x="1179" d="M102 432q0 270 144.5 418.5t347.5 148.5q92 0 207 -36v378l-156 19v49l324 78v-1370l139 -19v-49l-307 -78v152q-143 -152 -324 -152q-164 0 -269.5 128t-105.5 333zM272 514q0 -193 79 -305.5t218 -112.5q123 0 232 109v653q-102 84 -221 84q-129 0 -218.5 -121 t-89.5 -307z" />
<glyph unicode="e" horiz-adv-x="1036" d="M102 444q0 248 128 401.5t335 153.5q172 0 270.5 -92t98.5 -262q0 -41 -4 -65h-651q-2 -20 -3 -64q0 -205 87.5 -320.5t236.5 -115.5q145 0 301 110l29 -47q-80 -78 -190.5 -125t-219.5 -47q-188 0 -303 126t-115 347zM285 641h454q4 45 4 61q0 113 -49 176.5t-143 63.5 q-92 0 -167 -77t-99 -224z" />
<glyph unicode="f" horiz-adv-x="714" d="M82 0v41l149 45v805h-149v80h149v80q0 193 135.5 314.5t299.5 121.5q69 0 69 -74q0 -33 -17.5 -64.5t-39.5 -45.5q-86 59 -178 59q-111 0 -111 -135q0 -76 10 -256h246v-80h-246v-805l183 -45v-41h-500z" />
<glyph unicode="g" horiz-adv-x="1021" d="M41 -256q0 82 54.5 146.5t117.5 99.5q-117 31 -117 143q0 78 56.5 143.5t132.5 106.5q-86 37 -135.5 112t-49.5 179q0 154 102.5 239.5t258.5 85.5q141 0 241 -71q51 4 72 25.5t21 64.5q0 39 -11 94h31q135 0 135 -102q0 -115 -207 -119q80 -86 80 -217 q0 -154 -102.5 -240t-259.5 -86q-70 0 -131 19q-88 -55 -88 -144q0 -47 36.5 -65.5t116.5 -18.5h226q340 0 340 -266q0 -162 -159 -258t-386 -96q-162 0 -268.5 57t-106.5 168zM195 -197q0 -221 286 -221q141 0 252 71t111 167q0 70 -52.5 109.5t-146.5 39.5h-391 q-59 -59 -59 -166zM270 686q0 -121 49.5 -203t145.5 -82q82 0 135 70t53 191q0 133 -56 208.5t-140 75.5q-82 0 -134.5 -68.5t-52.5 -191.5z" />
<glyph unicode="h" horiz-adv-x="1191" d="M61 0v41l150 45v1255l-150 19v49l318 78v-641q61 63 153.5 108t182.5 45q129 0 205.5 -82.5t76.5 -230.5v-600l150 -45v-41h-467v41l149 45v561q0 113 -56 172.5t-152 59.5q-131 0 -242 -111v-682l149 -45v-41h-467z" />
<glyph unicode="i" horiz-adv-x="593" d="M76 0v41l149 45v768l-149 18v50l317 77v-913l150 -45v-41h-467zM190 1317q0 47 35 82t86 35q47 0 84 -35t37 -82q0 -49 -36 -83t-85 -34q-51 0 -86 34t-35 83z" />
<glyph unicode="j" horiz-adv-x="557" d="M-68 -412q0 66 60 109q88 -66 155 -66q49 0 62.5 34t13.5 112v1077l-149 18v50l317 77v-1038q0 -195 -118.5 -318.5t-264.5 -123.5q-76 0 -76 69zM188 1327q0 47 35 82t86 35q47 0 84 -35t37 -82q0 -49 -36 -83t-85 -34q-51 0 -86 34t-35 83z" />
<glyph unicode="k" horiz-adv-x="1124" d="M61 0v41l150 45v1255l-150 19v49l318 78v-1401l149 -45v-41h-467zM424 496l354 393l-139 41v41h383v-41l-141 -45l-310 -318l334 -417q41 -53 80 -78t98 -27v-41q-55 -33 -137 -33q-113 0 -168 70z" />
<glyph unicode="l" horiz-adv-x="589" d="M61 0v41l150 45v1255l-150 19v49l318 78v-1401l149 -45v-41h-467z" />
<glyph unicode="m" horiz-adv-x="1783" d="M76 0v41l149 45v768l-149 18v50l317 77v-153q61 63 151.5 108t174.5 45q190 0 256 -172q59 70 155.5 121t186.5 51q129 0 200.5 -80.5t71.5 -228.5v-604l150 -45v-41h-467v41l149 45v565q0 227 -198 228q-121 0 -232 -117v-676l150 -45v-41h-467v41l149 45v565 q0 227 -198 228q-125 0 -232 -111v-682l150 -45v-41h-467z" />
<glyph unicode="n" horiz-adv-x="1206" d="M76 0v41l149 45v768l-149 18v50l317 77v-153q61 63 153.5 108t182.5 45q129 0 206 -80.5t77 -228.5v-604l149 -45v-41h-467v41l150 45v565q0 113 -56.5 170.5t-152.5 57.5q-131 0 -242 -111v-682l150 -45v-41h-467z" />
<glyph unicode="o" horiz-adv-x="1150" d="M102 479q0 227 124 373.5t352 146.5q225 0 348 -145t123 -360q0 -227 -124.5 -375t-351.5 -148q-225 0 -348 146.5t-123 361.5zM299 485.5q0 -456.5 279 -456.5q274 0 274 458q0 455 -279 455q-274 0 -274 -456.5z" />
<glyph unicode="p" horiz-adv-x="1169" d="M51 -430l150 45v1239l-150 18v50l318 77v-153q144 153 321 153h2q164 0 269.5 -129t105.5 -335q0 -270 -144.5 -417t-347.5 -147q-86 0 -206 35v-391l170 -45v-41h-488v41zM369 113q102 -84 221 -84q129 0 218 118.5t89 305.5q0 193 -79 307t-218 114q-123 0 -231 -108 v-653z" />
<glyph unicode="q" horiz-adv-x="1138" d="M102 432q0 270 144.5 418.5t347.5 148.5q137 0 272 -59l58 59h45v-1384l149 -45v-41h-487v41l170 45v508q-143 -152 -324 -152q-164 0 -269.5 128t-105.5 333zM272 514q0 -193 79 -305.5t218 -112.5q123 0 232 109v651q-109 86 -221 86q-129 0 -218.5 -121t-89.5 -307z " />
<glyph unicode="r" horiz-adv-x="851" d="M76 0v41l149 45v768l-149 18v50l317 77v-219q68 86 158 152.5t156 66.5q41 0 67.5 -23.5t26.5 -70.5t-37 -112q-99 36 -157 36h-3q-104 0 -211 -135v-608l182 -45v-41h-499z" />
<glyph unicode="s" horiz-adv-x="862" d="M72 152q0 45 40 78.5t99 37.5q6 -239 205 -239h2q88 0 147.5 44t59.5 115q0 63 -49.5 105.5t-176.5 105.5q-72 37 -112.5 60.5t-86.5 62.5t-66.5 85t-20.5 106q0 129 99 207.5t237 78.5q131 0 211.5 -46t80.5 -130q0 -98 -149 -98q0 215 -174 215q-74 0 -122 -42 t-48 -118q0 -37 16.5 -65.5t56 -57t71.5 -45t97 -49.5q68 -33 109 -57.5t88 -61t68.5 -83t21.5 -103.5q0 -131 -105.5 -209t-258.5 -78q-135 0 -237.5 47.5t-102.5 133.5z" />
<glyph unicode="t" horiz-adv-x="716" d="M61 891v80h127l84 237h82v-237h283v-80h-283v-666q0 -162 121 -162q74 0 152 52l18 -56q-43 -35 -112 -61.5t-130 -26.5q-217 0 -217 222v698h-125z" />
<glyph unicode="u" horiz-adv-x="1148" d="M31 872v50l317 77v-680q0 -113 54.5 -170t148.5 -57q119 0 229 111v651l-149 18v50l317 77v-882l139 -19v-49l-307 -78v154q-61 -63 -151 -108.5t-174 -45.5q-129 0 -202 81t-73 229v573z" />
<glyph unicode="v" horiz-adv-x="1136" d="M31 930v41h473v-41l-154 -49l266 -658l269 654l-160 53v41h381v-41l-139 -56l-373 -874h-64l-366 881z" />
<glyph unicode="w" horiz-adv-x="1634" d="M20 930v41h453v-47l-133 -43l240 -641l249 731h62l248 -738l254 644l-160 53v41h381v-41l-139 -56l-363 -874h-63l-240 672l-246 -672h-63l-346 881z" />
<glyph unicode="x" horiz-adv-x="1134" d="M51 0v41l148 55l293 373l-283 416l-125 45v41h457v-41l-138 -45l199 -293l209 287l-127 51v41h358v-41l-141 -56l-260 -339l305 -449l137 -45v-41h-454v41l123 45l-222 324l-241 -318l129 -51v-41h-367z" />
<glyph unicode="y" horiz-adv-x="1136" d="M31 930v41h473v-41l-154 -49l273 -656l260 649l-158 56v41h381v-41l-139 -56l-428 -1024q-137 -331 -354 -331h-1q-129 0 -129 75q0 61 58 115q92 -49 172 -49q63 0 112 72.5t140 279.5l-373 869z" />
<glyph unicode="z" horiz-adv-x="985" d="M82 0v45l563 856h-379l-92 -203h-47l10 273h725v-41l-561 -860h453l92 211h47l-16 -281h-795z" />
<glyph unicode="{" horiz-adv-x="950" d="M102 625v49q63 14 103.5 35.5t63 44t32.5 67.5t12 80t2 107v272q0 72 11.5 125t28 89t50 60.5t61.5 38t81 19.5t89 7t103 1h88v-57h-88q-66 0 -100.5 -6.5t-69 -29t-49 -73.5t-14.5 -137v-246q0 -205 -53.5 -294t-206.5 -128q154 -39 207 -128t53 -294v-245 q0 -86 14.5 -137.5t49 -74t69.5 -28.5t100 -6h88v-58h-88q-68 0 -103.5 1.5t-88.5 7.5t-81 19t-61.5 38t-50 60.5t-28 89t-11.5 124.5v273q0 72 -2 106.5t-12 79.5t-32.5 67.5t-63 44.5t-103.5 36z" />
<glyph unicode="|" horiz-adv-x="614" d="M252 -481v2068h110v-2068h-110z" />
<glyph unicode="}" horiz-adv-x="950" d="M123 -264h88q66 0 100.5 6t69.5 28.5t49 74t14 137.5v245q0 205 53.5 294t207.5 128q-154 39 -207.5 128t-53.5 294v246q0 86 -14 137t-49 73.5t-70 29t-100 6.5h-88v57h88q68 0 103.5 -1t89 -7t81 -19.5t61.5 -38t50 -60.5t27.5 -89t11.5 -125v-272q0 -72 2 -107t12 -80 t33 -67.5t63 -44t103 -35.5v-49q-63 -14 -103 -36t-63 -44.5t-33 -67.5t-12 -80t-2 -106v-273q0 -72 -11.5 -125t-27.5 -88.5t-50 -60.5t-61.5 -38t-81 -19t-89 -7.5t-103.5 -1.5h-88v58z" />
<glyph unicode="~" d="M102 502q57 236 234 235q72 0 233.5 -63.5t218.5 -63.5q55 0 86.5 36t49.5 108l100 -27q-57 -236 -233 -235q-72 0 -234 63t-219 63q-55 0 -86 -35.5t-49 -107.5z" />
<glyph unicode="&#xa1;" horiz-adv-x="577" d="M164 874.5q0 51.5 37 88t88 36.5t88 -36.5t37 -88t-37 -88t-88 -36.5t-88 36.5t-37 88zM176 -311q0 116 84 880h57q84 -764 84 -880q0 -119 -112.5 -119t-112.5 119z" />
<glyph unicode="&#xa2;" d="M123 414q0 201 107.5 367.5t308.5 205.5v227h79v-215h31q143 0 241.5 -58t98.5 -142q0 -100 -162 -101q-4 111 -56 177.5t-146 66.5h-7v-862h29q154 0 326 117l31 -47q-184 -158 -386 -177v-206h-79v206q-188 12 -302 129t-114 312zM301 502q0 -164 62.5 -269.5 t175.5 -138.5v834q-104 -35 -171 -147.5t-67 -278.5z" />
<glyph unicode="&#xa3;" d="M104 0v43q131 106 215 206.5t84 201.5q0 66 -38 178h-232v71h203q-55 145 -55 236q0 188 111.5 302t293.5 114q123 0 226.5 -51.5t103.5 -135.5q0 -111 -166 -114q-2 111 -51 173t-137 62q-92 0 -150.5 -67.5t-58.5 -178.5q0 -51 13 -105t39.5 -129t35.5 -106h333v-71 h-317q8 -49 8 -70q0 -190 -237 -399h577l70 225h47l-18 -385h-900z" />
<glyph unicode="&#xa4;" d="M127 262l141 141q-61 92 -61 213q0 131 63 222l-143 143l78 78l141 -144q90 68 219 68q127 0 213 -68l144 144l77 -78l-145 -145q63 -92 64 -211q0 -123 -62 -219l143 -144l-77 -78l-140 142q-88 -70 -221 -70q-127 0 -217 68l-139 -140zM367 621q-1 -304 198 -304 q193 0 193 306q0 164 -49.5 231.5t-147.5 67.5q-195 0 -194 -301z" />
<glyph unicode="&#xa5;" d="M35 1278v45h500v-43l-177 -53l260 -504l261 504l-162 53v43h387v-43l-127 -53l-301 -551h262v-72h-272v-141h272v-72h-272v-295l194 -51v-45h-579v45l194 51v295h-278v72h278v141h-278v72h247l-290 553z" />
<glyph unicode="&#xa6;" horiz-adv-x="614" d="M252 276h110v-757h-110v757zM252 829v758h110v-758h-110z" />
<glyph unicode="&#xa7;" horiz-adv-x="1026" d="M123 557q0 223 283 293q-193 111 -193 264q0 129 99.5 208t236.5 79q131 0 212 -46t81 -130q0 -98 -150 -99q0 215 -174 215q-74 0 -124 -42t-50 -113q0 -37 17.5 -66.5t57.5 -58.5t73.5 -47.5t97.5 -48.5q72 -35 113.5 -58.5t95 -64.5t79 -90.5t25.5 -106.5 q0 -225 -282 -293q193 -113 192 -264q0 -129 -99.5 -208t-236.5 -79q-131 0 -212 46.5t-81 129.5q0 98 150 99q0 -215 174 -215q74 0 124 42t50 113q0 37 -17.5 67t-57.5 58.5t-73.5 47t-97.5 49.5q-72 35 -113.5 58t-95 64t-79 90.5t-25.5 106.5zM266 627q0 -23 7.5 -43.5 t25.5 -40t32.5 -32.5t47.5 -31.5t50 -28t59 -31t59 -29.5q213 41 213 184q0 16 -4 33t-15.5 32t-22.5 27.5t-30.5 27t-34 23.5t-41 23.5t-42 22.5t-47 22.5t-46.5 22.5q-211 -41 -211 -182z" />
<glyph unicode="&#xa8;" horiz-adv-x="819" d="M82 1317q0 45 34 77.5t81 32.5t80.5 -32.5t33.5 -77.5t-33.5 -78t-80.5 -33t-81 33t-34 78zM508 1317q0 45 33.5 77.5t81 32.5t81 -32.5t33.5 -77.5t-33.5 -78t-81 -33t-81 33t-33.5 78z" />
<glyph unicode="&#xa9;" horiz-adv-x="1658" d="M113 688q0 297 209.5 505t506.5 208t507 -208t210 -505q0 -299 -210 -508t-507 -209t-506.5 209t-209.5 508zM186 688q0 -268 189.5 -456.5t453.5 -188.5q268 0 456 188.5t188 456.5q0 266 -188.5 454.5t-455.5 188.5q-264 0 -453.5 -188.5t-189.5 -454.5zM453 674 q0 197 111.5 302t275.5 105q121 0 268 -49l6 -203h-47q-59 195 -236 195q-106 0 -164.5 -95t-58.5 -245q0 -145 65.5 -242.5t186.5 -97.5q80 0 133.5 52.5t69.5 142.5h53l-14 -201q-137 -53 -248 -53q-176 0 -288.5 106.5t-112.5 282.5z" />
<glyph unicode="&#xaa;" horiz-adv-x="806" d="M82 817q0 201 397 248v133q0 141 -104 141q-63 0 -102.5 -45t-39.5 -131q-133 0 -133 74q0 68 96.5 116t215.5 48q102 0 154 -51.5t52 -141.5v-372q0 -49 15.5 -67.5t54.5 -18.5h37v-52q-53 -25 -150 -24q-43 0 -69.5 22.5t-26.5 59.5v26q-80 -111 -207 -110 q-78 0 -134 35.5t-56 109.5zM233 838q0 -80 89 -80q90 0 157 98v148q-113 -18 -179.5 -62.5t-66.5 -103.5z" />
<glyph unicode="&#xab;" horiz-adv-x="1118" d="M102 504l430 422l43 -41l-274 -381l274 -381l-43 -41zM512 504l430 422l43 -41l-274 -381l274 -381l-43 -41z" />
<glyph unicode="&#xac;" d="M92 764v106h922v-495h-111v389h-811z" />
<glyph unicode="&#xad;" horiz-adv-x="716" d="M72 457v114h573v-114h-573z" />
<glyph unicode="&#xae;" horiz-adv-x="1658" d="M113 688q0 297 209.5 505t506.5 208t507 -208t210 -505q0 -299 -210 -508t-507 -209t-506.5 209t-209.5 508zM186 688q0 -268 189.5 -456.5t453.5 -188.5q268 0 456 188.5t188 456.5q0 266 -188.5 454.5t-455.5 188.5q-264 0 -453.5 -188.5t-189.5 -454.5zM473 305v39 l119 31v618l-119 33v39h346q297 0 297 -188q0 -88 -64.5 -139.5t-172.5 -65.5q82 -16 139 -103l119 -182q33 -47 84 -47v-35q-37 -16 -117 -16q-70 0 -107 61l-141 240q-20 37 -40.5 49t-61.5 12h-33v-276l119 -31v-39h-367zM721 707h74q82 0 130 48t48 122q0 135 -166 135 q-33 0 -86 -8v-297z" />
<glyph unicode="&#xaf;" horiz-adv-x="819" d="M133 1221v122h553v-122h-553z" />
<glyph unicode="&#xb0;" d="M233 1024q0 147 95.5 237.5t234.5 90.5t234.5 -90.5t95.5 -237.5t-94 -236.5t-235.5 -89.5t-236 89.5t-94.5 236.5zM354 1024q0 -100 60.5 -163.5t148.5 -63.5t148.5 63.5t60.5 163.5t-60.5 163.5t-148.5 63.5t-148.5 -63.5t-60.5 -163.5z" />
<glyph unicode="&#xb1;" d="M102 0v106h922v-106h-922zM102 631v106h406v361h110v-361h406v-106h-406v-363h-110v363h-406z" />
<glyph unicode="&#xb2;" horiz-adv-x="819" d="M41 690v39q236 164 356.5 294t120.5 263q0 178 -160 178q-76 0 -114.5 -54t-40.5 -138q-131 0 -131 69q0 82 87 135.5t216 53.5q145 0 227 -63.5t82 -180.5q0 -236 -416 -455h377l49 123h41l-14 -264h-680z" />
<glyph unicode="&#xb3;" horiz-adv-x="819" d="M57 852q0 41 34 68.5t81 27.5q4 -92 67.5 -150.5t153.5 -58.5q195 0 195 138q0 86 -93.5 140t-275.5 60v47q154 18 231.5 70.5t77.5 122.5q0 61 -42 93t-109 32q-129 0 -217 -94l-39 34q113 147 309 148q115 0 184.5 -50t69.5 -137q0 -153 -197 -190q242 -51 242 -231 q0 -109 -90 -178.5t-252 -69.5q-143 0 -236.5 52t-93.5 126z" />
<glyph unicode="&#xb4;" horiz-adv-x="819" d="M231 1169q164 227 211 351q145 -12 146 -66q0 -43 -108.5 -147.5t-198.5 -163.5z" />
<glyph unicode="&#xb5;" horiz-adv-x="1148" d="M31 872v50l317 77v-680q0 -113 54.5 -170t148.5 -57q119 0 229 111v651l-149 18v50l317 77v-882l139 -19v-49l-307 -78v154q-61 -63 -151 -108.5t-174 -45.5q-143 0 -207 88v-182q0 -109 51 -154t170 -67q0 -59 -26.5 -98t-77.5 -39q-184 0 -185 446v889z" />
<glyph unicode="&#xb6;" horiz-adv-x="1347" d="M123 950q0 207 141.5 314.5t397.5 107.5h563v-45l-195 -51v-1448h-92v1466h-188v-1466h-93v674q-242 4 -388 117.5t-146 330.5zM315 946q0 -156 89 -256.5t253 -114.5v719q-164 0 -253 -90t-89 -258z" />
<glyph unicode="&#xb7;" horiz-adv-x="512" d="M131 622.5q0 51.5 37 88.5t88 37t88 -37t37 -88.5t-37 -88t-88 -36.5t-88 36.5t-37 88z" />
<glyph unicode="&#xb8;" horiz-adv-x="819" d="M207 -440l31 57q53 -31 122 -31q49 0 78 20.5t29 57.5q0 49 -54.5 74.5t-140.5 25.5l-14 37l154 199h90l-109 -131q94 0 156.5 -40t62.5 -112q0 -88 -71.5 -143t-171.5 -55q-86 0 -162 41z" />
<glyph unicode="&#xb9;" horiz-adv-x="819" d="M127 1378v52l354 92h41v-748l223 -35v-49h-602v49l226 35v619z" />
<glyph unicode="&#xba;" horiz-adv-x="894" d="M92 1034q0 158 97.5 262.5t261.5 104.5q160 0 256 -104.5t96 -254.5q0 -158 -96.5 -263t-260.5 -105q-162 0 -258 105.5t-96 254.5zM252 1038q0 -303 199 -303q193 0 192 305q0 164 -49 231.5t-148 67.5q-195 0 -194 -301z" />
<glyph unicode="&#xbb;" horiz-adv-x="1118" d="M133 123l275 381l-275 381l43 41l430 -422l-430 -422zM543 123l274 381l-274 381l43 41l430 -422l-430 -422z" />
<glyph unicode="&#xbc;" horiz-adv-x="2048" d="M102 1208v52l355 92h41v-748l223 -35v-49h-602v49l225 35v619zM567 29l955 1323l82 -58l-955 -1323zM1217 242v39l503 550h66v-503h160v-86h-160v-158l151 -27v-57h-475v57l170 27v158h-415zM1356 328h276v305z" />
<glyph unicode="&#xbd;" horiz-adv-x="2048" d="M102 1208v52l355 92h41v-748l223 -35v-49h-602v49l225 35v619zM481 29l955 1323l82 -58l-955 -1323zM1251 0v39q236 164 357 294t121 263q0 178 -160 178q-76 0 -115 -54t-41 -138q-131 0 -131 69q0 82 87 135.5t216 53.5q145 0 227 -63.5t82 -180.5q0 -236 -415 -455 h376l50 123h41l-15 -264h-680z" />
<glyph unicode="&#xbe;" horiz-adv-x="2048" d="M102 672q0 41 34 68.5t81 27.5q4 -92 67.5 -150.5t153.5 -58.5q195 0 195 137q0 86 -93.5 140.5t-275.5 60.5v47q154 18 231.5 70.5t77.5 122.5q0 61 -42 93t-109 32q-129 0 -217 -95l-39 35q113 147 309 148q115 0 184.5 -50.5t69.5 -136.5q0 -153 -197 -190 q242 -51 242 -232q0 -109 -90 -178t-252 -69q-143 0 -236.5 52t-93.5 126zM582 29l954 1323l82 -58l-954 -1323zM1217 242v39l503 550h66v-503h160v-86h-160v-158l151 -27v-57h-475v57l170 27v158h-415zM1356 328h276v305z" />
<glyph unicode="&#xbf;" horiz-adv-x="813" d="M82 -141q0 74 30.5 139t78 109.5t101.5 87.5t101 75.5t78 72.5t31 79q0 41 -29 65.5t-74 24.5q-66 0 -135 -37l-16 55q82 51 180 51.5t166 -48t68 -136.5q0 -74 -44.5 -137t-108 -109.5t-125.5 -92.5t-106.5 -109.5t-44.5 -136.5q0 -82 51.5 -134.5t133.5 -52.5 q90 0 138 68.5t52 183.5h39q115 0 115 -80q-2 -98 -100.5 -162.5t-235.5 -64.5q-154 0 -249 82t-95 207zM317 874.5q0 51.5 37 88t88.5 36.5t88 -36.5t36.5 -88t-36.5 -88t-88 -36.5t-88.5 36.5t-37 88z" />
<glyph unicode="&#xc0;" horiz-adv-x="1519" d="M51 0v43l170 51l510 1307h60l495 -1311l172 -45v-45h-577v45l211 49l-152 398h-469l-149 -400l200 -49v-43h-471zM461 1688q0 49 114 98q85 -96 318 -258l-37 -41q-123 31 -259 94.5t-136 106.5zM500 567h411l-204 545z" />
<glyph unicode="&#xc1;" horiz-adv-x="1519" d="M51 0v43l170 51l510 1307h60l495 -1311l172 -45v-45h-577v45l211 49l-152 398h-469l-149 -400l200 -49v-43h-471zM500 567h411l-204 545zM625 1528q233 162 317 258q115 -49 115 -98q0 -43 -136 -106.5t-259 -94.5z" />
<glyph unicode="&#xc2;" horiz-adv-x="1519" d="M51 0v43l170 51l510 1307h60l495 -1311l172 -45v-45h-577v45l211 49l-152 398h-469l-149 -400l200 -49v-43h-471zM494 1520q159 188 227 290h78q68 -102 227 -290l-43 -33l-223 145l-223 -145zM500 567h411l-204 545z" />
<glyph unicode="&#xc3;" horiz-adv-x="1519" d="M51 0v43l170 51l510 1307h60l495 -1311l172 -45v-45h-577v45l211 49l-152 398h-469l-149 -400l200 -49v-43h-471zM467 1526q23 131 64.5 191.5t113.5 60.5q41 0 147.5 -48.5t137.5 -48.5q33 0 53 30t43 93l55 -14q-23 -131 -64.5 -191.5t-113.5 -60.5q-41 0 -147.5 48 t-137.5 48q-33 0 -53 -29.5t-43 -93.5zM500 567h411l-204 545z" />
<glyph unicode="&#xc4;" horiz-adv-x="1519" d="M51 0v43l170 51l510 1307h60l495 -1311l172 -45v-45h-577v45l211 49l-152 398h-469l-149 -400l200 -49v-43h-471zM432 1644.5q0 45.5 34 78t81 32.5t81 -32.5t34 -78t-34 -78t-81 -32.5t-81 32.5t-34 78zM500 567h411l-204 545zM858 1644.5q0 45.5 34 78t81 32.5 t80.5 -32.5t33.5 -78t-33.5 -78t-80.5 -32.5t-81 32.5t-34 78z" />
<glyph unicode="&#xc5;" horiz-adv-x="1519" d="M51 0v43l170 51l510 1307h60l495 -1311l172 -45v-45h-577v45l211 49l-152 398h-469l-149 -400l200 -49v-43h-471zM500 567h411l-204 545zM571 1657q0 84 54.5 135t136.5 51q80 0 135 -51t55 -135t-55 -134t-135 -50q-82 0 -136.5 50t-54.5 134zM672 1657q0 -55 25.5 -86 t64.5 -31t64.5 31t25.5 86t-25.5 86t-64.5 31t-64.5 -31t-25.5 -86z" />
<glyph unicode="&#xc6;" horiz-adv-x="1968" d="M31 0v43l166 55l727 1178l-195 51v45h1094v-354h-54l-98 278h-475v-540h289l71 202h46v-479h-46l-71 203h-289v-606h481l131 336h47l-18 -412h-1026v45l195 51v396h-453l-240 -400l199 -49v-43h-481zM600 567h406v674z" />
<glyph unicode="&#xc7;" horiz-adv-x="1398" d="M113 670q0 348 188 539.5t494 191.5q106 0 246.5 -30t218.5 -58l12 -314h-70q-96 334 -420 334q-213 0 -340 -175t-127 -468q0 -301 134.5 -475t381.5 -174q147 0 242.5 88t124.5 250h78l-27 -311q-221 -92 -411 -97l-84 -102q94 0 156.5 -40t62.5 -112q0 -88 -72 -143 t-172 -55q-86 0 -162 41l31 57q53 -31 123 -31q49 0 77.5 20.5t28.5 57.5q0 49 -54 74.5t-140 25.5l-15 37l134 174q-295 20 -467 208t-172 487z" />
<glyph unicode="&#xc8;" horiz-adv-x="1239" d="M82 0v45l194 51v1180l-194 51v45h1012v-354h-54l-98 278h-475v-540h289l71 202h45v-479h-45l-71 203h-289v-606h481l131 336h47l-18 -412h-1026zM389 1688q0 49 115 98q84 -96 317 -258l-37 -41q-123 31 -259 94.5t-136 106.5z" />
<glyph unicode="&#xc9;" horiz-adv-x="1239" d="M82 0v45l194 51v1180l-194 51v45h1012v-354h-54l-98 278h-475v-540h289l71 202h45v-479h-45l-71 203h-289v-606h481l131 336h47l-18 -412h-1026zM422 1528q233 162 317 258q115 -49 115 -98q0 -43 -136 -106.5t-259 -94.5z" />
<glyph unicode="&#xca;" horiz-adv-x="1239" d="M82 0v45l194 51v1180l-194 51v45h1012v-354h-54l-98 278h-475v-540h289l71 202h45v-479h-45l-71 203h-289v-606h481l131 336h47l-18 -412h-1026zM352 1520q160 188 228 290h77q68 -102 228 -290l-43 -33l-224 145l-223 -145z" />
<glyph unicode="&#xcb;" horiz-adv-x="1239" d="M82 0v45l194 51v1180l-194 51v45h1012v-354h-54l-98 278h-475v-540h289l71 202h45v-479h-45l-71 203h-289v-606h481l131 336h47l-18 -412h-1026zM291 1644.5q0 45.5 33.5 78t81 32.5t81 -32.5t33.5 -78t-33.5 -78t-81 -32.5t-81 32.5t-33.5 78zM717 1644.5 q0 45.5 33.5 78t81 32.5t81 -32.5t33.5 -78t-33.5 -78t-81 -32.5t-81 32.5t-33.5 78z" />
<glyph unicode="&#xcc;" horiz-adv-x="743" d="M82 0v45l194 51v1180l-194 51v45h580v-45l-195 -51v-1180l195 -51v-45h-580zM94 1688q0 49 115 98q84 -96 317 -258l-37 -41q-123 31 -259 94.5t-136 106.5z" />
<glyph unicode="&#xcd;" horiz-adv-x="743" d="M82 0v45l194 51v1180l-194 51v45h580v-45l-195 -51v-1180l195 -51v-45h-580zM217 1528q233 162 318 258q115 -49 114 -98q0 -43 -136 -106.5t-259 -94.5z" />
<glyph unicode="&#xce;" horiz-adv-x="743" d="M82 0v45l194 51v1180l-194 51v45h580v-45l-195 -51v-1180l195 -51v-45h-580zM106 1520q160 188 228 290h78q68 -102 227 -290l-43 -33l-223 145l-223 -145z" />
<glyph unicode="&#xcf;" horiz-adv-x="743" d="M45 1644.5q0 45.5 34 78t81 32.5t80.5 -32.5t33.5 -78t-33.5 -78t-80.5 -32.5t-81 32.5t-34 78zM82 0v45l194 51v1180l-194 51v45h580v-45l-195 -51v-1180l195 -51v-45h-580zM471 1644.5q0 45.5 34 78t81 32.5t80.5 -32.5t33.5 -78t-33.5 -78t-80.5 -32.5t-81 32.5 t-34 78z" />
<glyph unicode="&#xd0;" horiz-adv-x="1560" d="M82 666v90h205v520l-195 51v45h623q352 0 542.5 -176t190.5 -475q0 -328 -202 -524.5t-556 -196.5h-598v45l195 51v570h-205zM477 74h209q258 0 408.5 156t150.5 475q0 127 -29.5 229t-92 186t-173 131t-260.5 47h-213v-542h275v-90h-275v-592z" />
<glyph unicode="&#xd1;" horiz-adv-x="1579" d="M72 0v45l194 47v1184l-194 51v45h407l742 -1032v940l-205 47v45h491v-45l-194 -47v-1298h-60l-895 1228v-1118l205 -47v-45h-491zM500 1526q23 131 64.5 191.5t113.5 60.5q41 0 147.5 -48.5t137.5 -48.5q33 0 53 30t43 93l55 -14q-23 -131 -64.5 -191.5t-113.5 -60.5 q-41 0 -147.5 48t-137.5 48q-33 0 -53 -29.5t-43 -93.5z" />
<glyph unicode="&#xd2;" horiz-adv-x="1560" d="M113 690q0 313 176 512t499 199q330 0 495 -196.5t165 -520.5q0 -313 -176 -513t-500 -200q-330 0 -494.5 198t-164.5 521zM315 690q0 -319 126.5 -484t359.5 -165q207 0 325.5 179t118.5 464q0 319 -126 483t-359 164q-207 0 -326 -178t-119 -463zM563 1688q0 49 115 98 q84 -96 317 -258l-37 -41q-123 31 -259 94.5t-136 106.5z" />
<glyph unicode="&#xd3;" horiz-adv-x="1560" d="M113 690q0 313 176 512t499 199q330 0 495 -196.5t165 -520.5q0 -313 -176 -513t-500 -200q-330 0 -494.5 198t-164.5 521zM315 690q0 -319 126.5 -484t359.5 -165q207 0 325.5 179t118.5 464q0 319 -126 483t-359 164q-207 0 -326 -178t-119 -463zM563 1528 q233 162 318 258q115 -49 114 -98q0 -43 -136 -106.5t-259 -94.5z" />
<glyph unicode="&#xd4;" horiz-adv-x="1560" d="M113 690q0 313 176 512t499 199q330 0 495 -196.5t165 -520.5q0 -313 -176 -513t-500 -200q-330 0 -494.5 198t-164.5 521zM315 690q0 -319 126.5 -484t359.5 -165q207 0 325.5 179t118.5 464q0 319 -126 483t-359 164q-207 0 -326 -178t-119 -463zM514 1520 q159 188 227 290h78q68 -102 228 -290l-43 -33l-224 145l-223 -145z" />
<glyph unicode="&#xd5;" horiz-adv-x="1560" d="M113 690q0 313 176 512t499 199q330 0 495 -196.5t165 -520.5q0 -313 -176 -513t-500 -200q-330 0 -494.5 198t-164.5 521zM315 690q0 -319 126.5 -484t359.5 -165q207 0 325.5 179t118.5 464q0 319 -126 483t-359 164q-207 0 -326 -178t-119 -463zM473 1526 q23 131 65 191.5t113 60.5q41 0 147.5 -48.5t137.5 -48.5q33 0 53 30t43 93l55 -14q-23 -131 -64.5 -191.5t-113.5 -60.5q-41 0 -147.5 48t-136.5 48q-33 0 -53.5 -29.5t-43.5 -93.5z" />
<glyph unicode="&#xd6;" horiz-adv-x="1560" d="M113 690q0 313 176 512t499 199q330 0 495 -196.5t165 -520.5q0 -313 -176 -513t-500 -200q-330 0 -494.5 198t-164.5 521zM315 690q0 -319 126.5 -484t359.5 -165q207 0 325.5 179t118.5 464q0 319 -126 483t-359 164q-207 0 -326 -178t-119 -463zM453 1644.5 q0 45.5 33.5 78t80.5 32.5t81 -32.5t34 -78t-34 -78t-81 -32.5t-80.5 32.5t-33.5 78zM879 1644.5q0 45.5 33.5 78t80.5 32.5t81 -32.5t34 -78t-34 -78t-81 -32.5t-80.5 32.5t-33.5 78z" />
<glyph unicode="&#xd7;" d="M188 324l297 297l-297 299l78 77l297 -299l297 299l78 -77l-297 -299l297 -297l-78 -78l-297 297l-297 -297z" />
<glyph unicode="&#xd8;" horiz-adv-x="1560" d="M113 690q0 313 176 512t499 199q231 0 386 -103l106 144h113l-148 -201q203 -190 203 -557q0 -313 -176 -513t-500 -200q-229 0 -387 103l-104 -144h-113l147 201q-203 188 -202 559zM315 690q0 -274 93 -434l690 938q-125 137 -338 137q-207 0 -326 -178t-119 -463z M463 178q123 -137 338 -137q207 0 325.5 179t118.5 464q0 266 -92 432z" />
<glyph unicode="&#xd9;" horiz-adv-x="1544" d="M61 1327v45h586v-45l-201 -51v-774q0 -209 110 -320.5t275 -111.5q162 0 266.5 120t104.5 345v745l-207 47v45h498v-45l-195 -47v-776q0 -254 -150.5 -393.5t-363.5 -139.5t-370.5 121t-157.5 350v834zM555 1688q0 49 115 98q84 -96 317 -258l-37 -41q-123 31 -259 94.5 t-136 106.5z" />
<glyph unicode="&#xda;" horiz-adv-x="1544" d="M61 1327v45h586v-45l-201 -51v-774q0 -209 110 -320.5t275 -111.5q162 0 266.5 120t104.5 345v745l-207 47v45h498v-45l-195 -47v-776q0 -254 -150.5 -393.5t-363.5 -139.5t-370.5 121t-157.5 350v834zM657 1528q233 162 318 258q115 -49 115 -98q0 -43 -136.5 -106.5 t-259.5 -94.5z" />
<glyph unicode="&#xdb;" horiz-adv-x="1544" d="M61 1327v45h586v-45l-201 -51v-774q0 -209 110 -320.5t275 -111.5q162 0 266.5 120t104.5 345v745l-207 47v45h498v-45l-195 -47v-776q0 -254 -150.5 -393.5t-363.5 -139.5t-370.5 121t-157.5 350v834zM532 1520q160 188 228 290h78q68 -102 227 -290l-43 -33l-223 145 l-224 -145z" />
<glyph unicode="&#xdc;" horiz-adv-x="1544" d="M61 1327v45h586v-45l-201 -51v-774q0 -209 110 -320.5t275 -111.5q162 0 266.5 120t104.5 345v745l-207 47v45h498v-45l-195 -47v-776q0 -254 -150.5 -393.5t-363.5 -139.5t-370.5 121t-157.5 350v834zM498 1644.5q0 45.5 33.5 78t80.5 32.5t81 -32.5t34 -78t-34 -78 t-81 -32.5t-80.5 32.5t-33.5 78zM924 1644.5q0 45.5 33.5 78t80.5 32.5t81 -32.5t34 -78t-34 -78t-81 -32.5t-80.5 32.5t-33.5 78z" />
<glyph unicode="&#xdd;" horiz-adv-x="1429" d="M41 1327v45h588v-43l-217 -53l356 -598l344 598l-215 53v43h492v-43l-162 -53l-408 -676v-504l209 -51v-45h-608v45l209 51v479l-436 703zM575 1528q233 162 318 258q115 -49 115 -98q0 -43 -136.5 -106.5t-259.5 -94.5z" />
<glyph unicode="&#xde;" horiz-adv-x="1208" d="M82 0v45l194 51v1180l-194 51v45h580v-45l-195 -51v-211h164q238 0 366.5 -78t128.5 -266q0 -174 -139 -278.5t-346 -104.5h-63v57q348 27 348 330q0 137 -79 203.5t-220 66.5q-82 0 -160 -14v-885l215 -51v-45h-600z" />
<glyph unicode="&#xdf;" horiz-adv-x="1275" d="M82 0v41l149 45v805h-149v80h149v57q0 201 118 330t335 129q160 0 280.5 -73t120.5 -183q0 -55 -33.5 -109.5t-80.5 -98.5t-94.5 -86t-81 -87t-33.5 -84q0 -45 47 -86t112.5 -77t132 -77t113.5 -107.5t47 -148.5q0 -133 -98 -216t-237 -83q-131 0 -229.5 47.5 t-98.5 133.5q0 45 40 78.5t99 37.5q4 -125 50 -182t147 -57q82 0 135 42t53 115q0 59 -46 111.5t-111.5 91.5t-130 78t-110.5 94t-46 119q0 61 45 126.5t99 116t99.5 126t45.5 153.5q0 96 -71 163t-181 67q-127 0 -198 -98.5t-71 -276.5v-1057h-317z" />
<glyph unicode="&#xe0;" horiz-adv-x="966" d="M72 166q0 133 136 217t394 115v241q0 203 -149 203q-88 0 -143.5 -62.5t-57.5 -185.5h-39q-115 0 -115 80q0 96 124 160.5t284 64.5q264 0 264 -272v-553q0 -70 22.5 -97.5t77.5 -27.5h52v-45q-78 -33 -187 -33q-61 0 -97 30t-36 85v37q-49 -63 -127 -107.5t-166 -44.5 q-102 0 -169.5 50.5t-67.5 144.5zM254 207q0 -66 34 -101.5t93 -35.5t118.5 38.5t102.5 100.5v231q-160 -25 -254 -87t-94 -146zM283 1454q0 53 145 66q47 -124 211 -351l-49 -26q-90 59 -198.5 163.5t-108.5 147.5z" />
<glyph unicode="&#xe1;" horiz-adv-x="966" d="M72 166q0 133 136 217t394 115v241q0 203 -149 203q-88 0 -143.5 -62.5t-57.5 -185.5h-39q-115 0 -115 80q0 96 124 160.5t284 64.5q264 0 264 -272v-553q0 -70 22.5 -97.5t77.5 -27.5h52v-45q-78 -33 -187 -33q-61 0 -97 30t-36 85v37q-49 -63 -127 -107.5t-166 -44.5 q-102 0 -169.5 50.5t-67.5 144.5zM254 207q0 -66 34 -101.5t93 -35.5t118.5 38.5t102.5 100.5v231q-160 -25 -254 -87t-94 -146zM328 1169q164 227 211 351q145 -12 145 -66q0 -43 -108.5 -147.5t-198.5 -163.5z" />
<glyph unicode="&#xe2;" horiz-adv-x="966" d="M72 166q0 133 136 217t394 115v241q0 203 -149 203q-88 0 -143.5 -62.5t-57.5 -185.5h-39q-115 0 -115 80q0 96 124 160.5t284 64.5q264 0 264 -272v-553q0 -70 22.5 -97.5t77.5 -27.5h52v-45q-78 -33 -187 -33q-61 0 -97 30t-36 85v37q-49 -63 -127 -107.5t-166 -44.5 q-102 0 -169.5 50.5t-67.5 144.5zM225 1169q121 165 219 347h78q98 -182 219 -347l-49 -26l-209 194l-209 -194zM254 207q0 -66 34 -101.5t93 -35.5t118.5 38.5t102.5 100.5v231q-160 -25 -254 -87t-94 -146z" />
<glyph unicode="&#xe3;" horiz-adv-x="966" d="M72 166q0 133 136 217t394 115v241q0 203 -149 203q-88 0 -143.5 -62.5t-57.5 -185.5h-39q-115 0 -115 80q0 96 124 160.5t284 64.5q264 0 264 -272v-553q0 -70 22.5 -97.5t77.5 -27.5h52v-45q-78 -33 -187 -33q-61 0 -97 30t-36 85v37q-49 -63 -127 -107.5t-166 -44.5 q-102 0 -169.5 50.5t-67.5 144.5zM166 1198q23 131 64.5 191.5t113.5 60.5q41 0 147.5 -48t137.5 -48q33 0 53 30t43 93l55 -15q-23 -131 -64.5 -191.5t-113.5 -60.5q-41 0 -147.5 48.5t-137.5 48.5q-33 0 -53 -30t-43 -93zM254 207q0 -66 34 -101.5t93 -35.5t118.5 38.5 t102.5 100.5v231q-160 -25 -254 -87t-94 -146z" />
<glyph unicode="&#xe4;" horiz-adv-x="966" d="M72 166q0 133 136 217t394 115v241q0 203 -149 203q-88 0 -143.5 -62.5t-57.5 -185.5h-39q-115 0 -115 80q0 96 124 160.5t284 64.5q264 0 264 -272v-553q0 -70 22.5 -97.5t77.5 -27.5h52v-45q-78 -33 -187 -33q-61 0 -97 30t-36 85v37q-49 -63 -127 -107.5t-166 -44.5 q-102 0 -169.5 50.5t-67.5 144.5zM156 1317q0 45 33.5 77.5t80.5 32.5t81 -32.5t34 -77.5t-34 -78t-81 -33t-80.5 33t-33.5 78zM254 207q0 -66 34 -101.5t93 -35.5t118.5 38.5t102.5 100.5v231q-160 -25 -254 -87t-94 -146zM582 1317q0 45 33.5 77.5t80.5 32.5t81 -32.5 t34 -77.5t-34 -78t-81 -33t-80.5 33t-33.5 78z" />
<glyph unicode="&#xe5;" horiz-adv-x="966" d="M72 166q0 133 136 217t394 115v241q0 203 -149 203q-88 0 -143.5 -62.5t-57.5 -185.5h-39q-115 0 -115 80q0 96 124 160.5t284 64.5q264 0 264 -272v-553q0 -70 22.5 -97.5t77.5 -27.5h52v-45q-78 -33 -187 -33q-61 0 -97 30t-36 85v37q-49 -63 -127 -107.5t-166 -44.5 q-102 0 -169.5 50.5t-67.5 144.5zM254 207q0 -66 34 -101.5t93 -35.5t118.5 38.5t102.5 100.5v231q-160 -25 -254 -87t-94 -146zM293 1329q0 84 54 135.5t136 51.5q80 0 135.5 -51.5t55.5 -135.5t-55.5 -134t-135.5 -50q-82 0 -136 50t-54 134zM393 1329q0 -55 25.5 -86 t64.5 -31t64.5 31t25.5 86t-25.5 86t-64.5 31t-64.5 -31t-25.5 -86z" />
<glyph unicode="&#xe6;" horiz-adv-x="1529" d="M72 166q0 133 136 217t394 115v241q0 203 -149 203q-88 0 -143.5 -62.5t-57.5 -185.5h-39q-115 0 -115 80q0 96 124 160.5t284 64.5q178 0 239 -131q117 131 314 131q172 0 270 -92t98 -262q0 -41 -4 -65h-651q-2 -20 -2 -64q0 -205 87 -320.5t237 -115.5q145 0 301 110 l28 -47q-80 -78 -190.5 -125t-218.5 -47q-262 0 -363 215q-49 -86 -141 -150.5t-201 -64.5q-102 0 -169.5 50.5t-67.5 144.5zM254 207q0 -66 34 -101.5t93 -35.5q63 0 128.5 49t117.5 133q-25 84 -25 188q-160 -25 -254 -87t-94 -146zM778 641h455q4 45 4 61 q0 113 -49 176.5t-144 63.5q-92 0 -166.5 -77t-99.5 -224z" />
<glyph unicode="&#xe7;" horiz-adv-x="999" d="M102 414q0 145 49.5 274t164 220t274.5 91q133 0 224 -58t91 -142q0 -100 -160 -101q-4 113 -49 178.5t-129 65.5q-127 0 -209 -120t-82 -320.5t85 -309t237 -108.5q139 0 291 113l29 -47q-164 -154 -349 -175l-86 -106q94 0 156.5 -40t62.5 -112q0 -88 -71.5 -143 t-171.5 -55q-86 0 -162 41l31 57q53 -31 123 -31q49 0 77.5 20.5t28.5 57.5q0 49 -54 74.5t-141 25.5l-14 37l133 172q-172 14 -275.5 131t-103.5 310z" />
<glyph unicode="&#xe8;" horiz-adv-x="1036" d="M102 444q0 248 128 401.5t335 153.5q172 0 270.5 -92t98.5 -262q0 -41 -4 -65h-651q-2 -20 -3 -64q0 -205 87.5 -320.5t236.5 -115.5q145 0 301 110l29 -47q-80 -78 -190.5 -125t-219.5 -47q-188 0 -303 126t-115 347zM285 641h454q4 45 4 61q0 113 -49 176.5t-143 63.5 q-92 0 -167 -77t-99 -224zM319 1454q0 53 146 66q47 -124 211 -351l-49 -26q-90 59 -199 163.5t-109 147.5z" />
<glyph unicode="&#xe9;" horiz-adv-x="1036" d="M102 444q0 248 128 401.5t335 153.5q172 0 270.5 -92t98.5 -262q0 -41 -4 -65h-651q-2 -20 -3 -64q0 -205 87.5 -320.5t236.5 -115.5q145 0 301 110l29 -47q-80 -78 -190.5 -125t-219.5 -47q-188 0 -303 126t-115 347zM285 641h454q4 45 4 61q0 113 -49 176.5t-143 63.5 q-92 0 -167 -77t-99 -224zM393 1169q164 227 211 351q145 -12 146 -66q0 -43 -109 -147.5t-199 -163.5z" />
<glyph unicode="&#xea;" horiz-adv-x="1036" d="M102 444q0 248 128 401.5t335 153.5q172 0 270.5 -92t98.5 -262q0 -41 -4 -65h-651q-2 -20 -3 -64q0 -205 87.5 -320.5t236.5 -115.5q145 0 301 110l29 -47q-80 -78 -190.5 -125t-219.5 -47q-188 0 -303 126t-115 347zM285 641h454q4 45 4 61q0 113 -49 176.5t-143 63.5 q-92 0 -167 -77t-99 -224zM313 1169q121 165 219 347h78q98 -182 219 -347l-49 -26l-209 194l-209 -194z" />
<glyph unicode="&#xeb;" horiz-adv-x="1036" d="M102 444q0 248 128 401.5t335 153.5q172 0 270.5 -92t98.5 -262q0 -41 -4 -65h-651q-2 -20 -3 -64q0 -205 87.5 -320.5t236.5 -115.5q145 0 301 110l29 -47q-80 -78 -190.5 -125t-219.5 -47q-188 0 -303 126t-115 347zM242 1317q0 45 33.5 77.5t80.5 32.5t81 -32.5 t34 -77.5t-34 -78t-81 -33t-80.5 33t-33.5 78zM285 641h454q4 45 4 61q0 113 -49 176.5t-143 63.5q-92 0 -167 -77t-99 -224zM668 1317q0 45 33.5 77.5t80.5 32.5t81 -32.5t34 -77.5t-34 -78t-81 -33t-80.5 33t-33.5 78z" />
<glyph unicode="&#xec;" horiz-adv-x="593" d="M57 1454q0 53 146 66q47 -124 211 -351l-49 -26q-90 59 -199 163.5t-109 147.5zM76 0v41l149 45v768l-149 18v50l317 77v-913l150 -45v-41h-467z" />
<glyph unicode="&#xed;" horiz-adv-x="593" d="M76 0v41l149 45v768l-149 18v50l317 77v-913l150 -45v-41h-467zM168 1169q164 227 211 351q145 -12 145 -66q0 -43 -108.5 -147.5t-198.5 -163.5z" />
<glyph unicode="&#xee;" horiz-adv-x="593" d="M29 1169q121 165 219 347h78q98 -182 219 -347l-49 -26l-209 194l-209 -194zM76 0v41l149 45v768l-149 18v50l317 77v-913l150 -45v-41h-467z" />
<glyph unicode="&#xef;" horiz-adv-x="593" d="M-31 1317q0 45 34 77.5t81 32.5t81 -32.5t34 -77.5t-34 -78t-81 -33t-81 33t-34 78zM76 0v41l149 45v768l-149 18v50l317 77v-913l150 -45v-41h-467zM395 1317q0 45 34 77.5t81 32.5t81 -32.5t34 -77.5t-34 -78t-81 -33t-81 33t-34 78z" />
<glyph unicode="&#xf0;" horiz-adv-x="1130" d="M92 469q0 199 124 347.5t345 148.5q102 0 213 -47q-51 154 -158 280l-266 -115v93l207 88q-115 113 -264 182l24 57q197 -61 359 -188l215 92v-92l-146 -62q283 -268 283 -669q0 -285 -134 -449t-351 -164q-203 0 -327 134.5t-124 363.5zM283 455q0 -203 72.5 -314.5 t195.5 -111.5q129 0 207 135t78 375q0 158 -37 301q-92 39 -197 39q-147 0 -233 -120t-86 -304z" />
<glyph unicode="&#xf1;" horiz-adv-x="1206" d="M76 0v41l149 45v768l-149 18v50l317 77v-153q61 63 153.5 108t182.5 45q129 0 206 -80.5t77 -228.5v-604l149 -45v-41h-467v41l150 45v565q0 113 -56.5 170.5t-152.5 57.5q-131 0 -242 -111v-682l150 -45v-41h-467zM295 1198q23 131 64.5 191.5t113.5 60.5 q41 0 147.5 -48t137.5 -48q33 0 53 30t43 93l55 -15q-23 -131 -64.5 -191.5t-113.5 -60.5q-41 0 -147.5 48.5t-137.5 48.5q-33 0 -53 -30t-43 -93z" />
<glyph unicode="&#xf2;" horiz-adv-x="1150" d="M102 479q0 227 124 373.5t352 146.5q225 0 348 -145t123 -360q0 -227 -124.5 -375t-351.5 -148q-225 0 -348 146.5t-123 361.5zM299 485.5q0 -456.5 279 -456.5q274 0 274 458q0 455 -279 455q-274 0 -274 -456.5zM362 1454q0 53 146 66q47 -124 211 -351l-49 -26 q-90 59 -199 163.5t-109 147.5z" />
<glyph unicode="&#xf3;" horiz-adv-x="1150" d="M102 479q0 227 124 373.5t352 146.5q225 0 348 -145t123 -360q0 -227 -124.5 -375t-351.5 -148q-225 0 -348 146.5t-123 361.5zM299 485.5q0 -456.5 279 -456.5q274 0 274 458q0 455 -279 455q-274 0 -274 -456.5zM416 1169q164 227 211 351q145 -12 145 -66 q0 -43 -108.5 -147.5t-198.5 -163.5z" />
<glyph unicode="&#xf4;" horiz-adv-x="1150" d="M102 479q0 227 124 373.5t352 146.5q225 0 348 -145t123 -360q0 -227 -124.5 -375t-351.5 -148q-225 0 -348 146.5t-123 361.5zM299 485.5q0 -456.5 279 -456.5q274 0 274 458q0 455 -279 455q-274 0 -274 -456.5zM317 1169q122 165 220 347h77q98 -182 220 -347l-50 -26 l-209 194l-208 -194z" />
<glyph unicode="&#xf5;" horiz-adv-x="1150" d="M102 479q0 227 124 373.5t352 146.5q225 0 348 -145t123 -360q0 -227 -124.5 -375t-351.5 -148q-225 0 -348 146.5t-123 361.5zM268 1198q23 131 65 191.5t113 60.5q41 0 147.5 -48t137.5 -48q33 0 53 30t43 93l56 -15q-23 -131 -65 -191.5t-113 -60.5q-41 0 -147.5 48.5 t-137.5 48.5q-33 0 -53.5 -30t-42.5 -93zM299 485.5q0 -456.5 279 -456.5q274 0 274 458q0 455 -279 455q-274 0 -274 -456.5z" />
<glyph unicode="&#xf6;" horiz-adv-x="1150" d="M102 479q0 227 124 373.5t352 146.5q225 0 348 -145t123 -360q0 -227 -124.5 -375t-351.5 -148q-225 0 -348 146.5t-123 361.5zM248 1317q0 45 33.5 77.5t81 32.5t81 -32.5t33.5 -77.5t-33.5 -78t-81 -33t-81 33t-33.5 78zM299 485.5q0 -456.5 279 -456.5q274 0 274 458 q0 455 -279 455q-274 0 -274 -456.5zM674 1317q0 45 33.5 77.5t81 32.5t81 -32.5t33.5 -77.5t-33.5 -78t-81 -33t-81 33t-33.5 78z" />
<glyph unicode="&#xf7;" d="M102 569v107h922v-107h-922zM451 295q0 45 32.5 79t79.5 34t80 -34t33 -79t-33 -79t-80 -34t-79.5 34t-32.5 79zM451 950q0 45 32.5 79t79.5 34t80 -34t33 -79t-33 -78.5t-80 -33.5t-79.5 33.5t-32.5 78.5z" />
<glyph unicode="&#xf8;" horiz-adv-x="1150" d="M102 479q0 227 124 373.5t352 146.5q147 0 262 -73l69 96h107l-109 -150q141 -141 142 -378q0 -227 -124 -375t-352 -148q-152 0 -262 72l-67 -94h-107l107 147q-141 145 -142 383zM299 485q0 -168 33 -266l444 619q-70 104 -203 104q-274 0 -274 -457zM375 131 q68 -102 203 -102q274 0 274 458q0 156 -33 261z" />
<glyph unicode="&#xf9;" horiz-adv-x="1148" d="M31 872v50l317 77v-680q0 -113 54.5 -170t148.5 -57q119 0 229 111v651l-149 18v50l317 77v-882l139 -19v-49l-307 -78v154q-61 -63 -151 -108.5t-174 -45.5q-129 0 -202 81t-73 229v573zM270 1454q0 53 146 66q47 -124 211 -351l-49 -26q-90 59 -199 163.5t-109 147.5z " />
<glyph unicode="&#xfa;" horiz-adv-x="1148" d="M31 872v50l317 77v-680q0 -113 54.5 -170t148.5 -57q119 0 229 111v651l-149 18v50l317 77v-882l139 -19v-49l-307 -78v154q-61 -63 -151 -108.5t-174 -45.5q-129 0 -202 81t-73 229v573zM428 1169q164 227 211 351q145 -12 145 -66q0 -43 -108.5 -147.5t-198.5 -163.5z " />
<glyph unicode="&#xfb;" horiz-adv-x="1148" d="M31 872v50l317 77v-680q0 -113 54.5 -170t148.5 -57q119 0 229 111v651l-149 18v50l317 77v-882l139 -19v-49l-307 -78v154q-61 -63 -151 -108.5t-174 -45.5q-129 0 -202 81t-73 229v573zM276 1169q122 165 220 347h77q98 -182 220 -347l-50 -26l-208 194l-209 -194z" />
<glyph unicode="&#xfc;" horiz-adv-x="1148" d="M31 872v50l317 77v-680q0 -113 54.5 -170t148.5 -57q119 0 229 111v651l-149 18v50l317 77v-882l139 -19v-49l-307 -78v154q-61 -63 -151 -108.5t-174 -45.5q-129 0 -202 81t-73 229v573zM211 1317q0 45 34 77.5t81 32.5t80.5 -32.5t33.5 -77.5t-33.5 -78t-80.5 -33 t-81 33t-34 78zM637 1317q0 45 34 77.5t81 32.5t80.5 -32.5t33.5 -77.5t-33.5 -78t-80.5 -33t-81 33t-34 78z" />
<glyph unicode="&#xfd;" horiz-adv-x="1136" d="M31 930v41h473v-41l-154 -49l273 -656l260 649l-158 56v41h381v-41l-139 -56l-428 -1024q-137 -332 -355 -331q-129 0 -129 75q0 61 58 115q92 -49 172 -49q63 0 112 72.5t140 279.5l-373 869zM494 1169q164 227 211 351q145 -12 145 -66q0 -43 -108.5 -147.5 t-198.5 -163.5z" />
<glyph unicode="&#xfe;" horiz-adv-x="1148" d="M31 -430l149 45v1726l-149 19v49l317 78v-641q145 154 324 153q164 0 269.5 -129t105.5 -335q0 -270 -144.5 -417t-347.5 -147q-86 0 -207 35v-391l170 -45v-41h-487v41zM348 113q102 -84 221 -84q129 0 218.5 118.5t89.5 305.5q0 193 -79 307t-218 114q-123 0 -232 -108 v-653z" />
<glyph unicode="&#xff;" horiz-adv-x="1136" d="M31 930v41h473v-41l-154 -49l273 -656l260 649l-158 56v41h381v-41l-139 -56l-428 -1024q-137 -332 -355 -331q-129 0 -129 75q0 61 58 115q92 -49 172 -49q63 0 112 72.5t140 279.5l-373 869zM289 1317q0 45 33.5 77.5t81 32.5t81 -32.5t33.5 -77.5t-33.5 -78t-81 -33 t-81 33t-33.5 78zM715 1317q0 45 33.5 77.5t81 32.5t81 -32.5t33.5 -77.5t-33.5 -78t-81 -33t-81 33t-33.5 78z" />
<glyph unicode="&#x152;" horiz-adv-x="1867" d="M113 690q0 309 175 495.5t500 186.5h934v-354h-53l-98 278h-475v-540h288l72 202h45v-479h-45l-72 203h-288v-606h481l131 336h47l-18 -412h-965q-332 0 -495.5 185.5t-163.5 504.5zM315 690q0 -621 486 -620h104v1233h-145q-209 0 -327 -165t-118 -448z" />
<glyph unicode="&#x153;" horiz-adv-x="1808" d="M102 479q0 227 124 373.5t352 146.5q260 0 389 -200q131 201 370 200q172 0 270.5 -92t98.5 -262q0 -41 -4 -65h-651q-2 -20 -2 -64q0 -205 87 -320.5t236 -115.5q145 0 301 110l29 -47q-80 -78 -190.5 -125t-219.5 -47q-231 0 -344 179q-127 -179 -375 -179 q-225 0 -348 146.5t-123 361.5zM299 485.5q0 -456.5 279 -456.5q274 0 274 458q0 455 -279 455q-274 0 -274 -456.5zM1057 641h454q4 45 5 61q0 113 -49.5 176.5t-143.5 63.5q-92 0 -167 -77t-99 -224z" />
<glyph unicode="&#x178;" horiz-adv-x="1429" d="M41 1327v45h588v-43l-217 -53l356 -598l344 598l-215 53v43h492v-43l-162 -53l-408 -676v-504l209 -51v-45h-608v45l209 51v479l-436 703zM432 1644.5q0 45.5 34 78t81 32.5t81 -32.5t34 -78t-34 -78t-81 -32.5t-81 32.5t-34 78zM858 1644.5q0 45.5 34 78t81 32.5 t80.5 -32.5t33.5 -78t-33.5 -78t-80.5 -32.5t-81 32.5t-34 78z" />
<glyph unicode="&#x2c6;" horiz-adv-x="819" d="M152 1169q121 165 219 347h78q98 -182 219 -347l-50 -26l-208 194l-209 -194z" />
<glyph unicode="&#x2dc;" horiz-adv-x="819" d="M102 1198q23 131 65 191.5t114 60.5q41 0 147.5 -48t136.5 -48q33 0 53.5 30t43.5 93l55 -15q-23 -131 -65 -191.5t-113 -60.5q-41 0 -147.5 48.5t-137.5 48.5q-33 0 -53.5 -30t-42.5 -93z" />
<glyph unicode="&#x2000;" horiz-adv-x="921" />
<glyph unicode="&#x2001;" horiz-adv-x="1843" />
<glyph unicode="&#x2002;" horiz-adv-x="921" />
<glyph unicode="&#x2003;" horiz-adv-x="1843" />
<glyph unicode="&#x2004;" horiz-adv-x="614" />
<glyph unicode="&#x2005;" horiz-adv-x="460" />
<glyph unicode="&#x2006;" horiz-adv-x="307" />
<glyph unicode="&#x2007;" horiz-adv-x="307" />
<glyph unicode="&#x2008;" horiz-adv-x="230" />
<glyph unicode="&#x2009;" horiz-adv-x="368" />
<glyph unicode="&#x200a;" horiz-adv-x="102" />
<glyph unicode="&#x2010;" horiz-adv-x="716" d="M72 457v114h573v-114h-573z" />
<glyph unicode="&#x2011;" horiz-adv-x="716" d="M72 457v114h573v-114h-573z" />
<glyph unicode="&#x2012;" horiz-adv-x="716" d="M72 457v114h573v-114h-573z" />
<glyph unicode="&#x2013;" horiz-adv-x="1228" d="M72 457v114h1085v-114h-1085z" />
<glyph unicode="&#x2014;" horiz-adv-x="1843" d="M72 457v114h1700v-114h-1700z" />
<glyph unicode="&#x2018;" horiz-adv-x="520" d="M127 1042q0 100 58.5 200.5t148.5 158.5l39 -53q-57 -39 -101.5 -99.5t-52.5 -118.5h25q49 0 89 -28.5t40 -85.5q0 -51 -35 -84t-84 -33q-55 0 -91 38t-36 105z" />
<glyph unicode="&#x2019;" horiz-adv-x="520" d="M147 952q57 39 101.5 99.5t52.5 117.5h-25q-49 0 -89 29t-40 86q0 51 35 84t84 33q55 0 91 -38t36 -106q0 -100 -58.5 -200.5t-148.5 -157.5z" />
<glyph unicode="&#x201a;" horiz-adv-x="520" d="M137 98q0 51 35 84t84 33q55 0 91 -38t36 -105q0 -100 -58.5 -200.5t-148.5 -158.5l-39 54q57 39 101.5 99t52.5 118h-25q-49 0 -89 28.5t-40 85.5z" />
<glyph unicode="&#x201c;" horiz-adv-x="874" d="M127 1042q0 100 58.5 200.5t148.5 158.5l39 -53q-57 -39 -101.5 -99.5t-52.5 -118.5h25q49 0 89 -28.5t40 -85.5q0 -51 -35 -84t-84 -33q-55 0 -91 38t-36 105zM481 1042q0 100 58.5 200.5t148.5 158.5l39 -53q-57 -39 -101 -99.5t-53 -118.5h25q49 0 89 -28.5t40 -85.5 q0 -51 -35 -84t-84 -33q-55 0 -91 38t-36 105z" />
<glyph unicode="&#x201d;" horiz-adv-x="874" d="M147 952q57 39 101.5 99.5t52.5 117.5h-25q-49 0 -89 29t-40 86q0 51 35 84t84 33q55 0 91 -38t36 -106q0 -100 -58.5 -200.5t-148.5 -157.5zM502 952q57 39 101 99.5t52 117.5h-24q-49 0 -89 29t-40 86q0 51 35 84t84 33q55 0 91 -38t36 -106q0 -100 -58.5 -200.5 t-148.5 -157.5z" />
<glyph unicode="&#x201e;" horiz-adv-x="874" d="M137 98q0 51 35 84t84 33q55 0 91 -38t36 -105q0 -100 -58.5 -200.5t-148.5 -158.5l-39 54q57 39 101.5 99t52.5 118h-25q-49 0 -89 28.5t-40 85.5zM492 98q0 51 34.5 84t83.5 33q55 0 91 -38t36 -105q0 -100 -58 -200.5t-149 -158.5l-38 54q57 39 101 99t52 118h-24 q-49 0 -89 28.5t-40 85.5z" />
<glyph unicode="&#x2022;" horiz-adv-x="819" d="M137 621q0 115 78 193.5t193 78.5q117 0 194.5 -79t77.5 -193q0 -113 -77.5 -192t-194.5 -79q-115 0 -193 79t-78 192z" />
<glyph unicode="&#x2026;" horiz-adv-x="1536" d="M131 96q0 51 37 88t88 37t88 -37t37 -88t-37 -88t-88 -37t-88 37t-37 88zM643 96q0 51 37 88t88 37t88 -37t37 -88t-37 -88t-88 -37t-88 37t-37 88zM1155 96q0 51 37 88t88 37t88 -37t37 -88t-37 -88t-88 -37t-88 37t-37 88z" />
<glyph unicode="&#x202f;" horiz-adv-x="368" />
<glyph unicode="&#x2039;" horiz-adv-x="708" d="M102 504l430 422l43 -41l-274 -381l274 -381l-43 -41z" />
<glyph unicode="&#x203a;" horiz-adv-x="708" d="M133 123l275 381l-275 381l43 41l430 -422l-430 -422z" />
<glyph unicode="&#x205f;" horiz-adv-x="460" />
<glyph unicode="&#x20ac;" d="M82 524v72h135v49q0 31 4 92h-139v72h145q35 252 169 397.5t321 145.5q74 0 162 -22.5t141 -49.5l8 -299h-70q-68 307 -251 307q-119 0 -191 -136t-90 -343h397v-72h-403v-141h403v-72h-399q31 -485 291 -485q109 0 170 91t71 259h72l-27 -334q-57 -35 -141 -59.5 t-153 -24.5q-197 0 -327 149.5t-157 403.5h-141z" />
<glyph unicode="&#x2122;" horiz-adv-x="2109" d="M102 1145v227h760v-227h-45l-61 166h-209v-629l129 -31v-39h-387v39l129 31v629h-213l-58 -166h-45zM985 612v41l119 29v612l-119 43v35h285l237 -561l222 561h278v-39l-113 -39v-612l113 -31v-39h-354v39l112 31v592l-272 -672h-41l-276 668v-588l116 -29v-41h-307z" />
<glyph unicode="&#xe000;" horiz-adv-x="970" d="M0 970h970v-970h-970v970z" />
<glyph unicode="&#xfb01;" horiz-adv-x="1308" d="M82 0v41l149 45v805h-149v80h149v80q0 193 135.5 314.5t299.5 121.5q70 0 69 -76q0 -31 -17.5 -62.5t-39.5 -45.5q-86 59 -178 59q-111 0 -111 -135q0 -76 10 -256h246v-80h-246v-805l183 -45v-41h-500zM791 0v41l149 45v768l-149 18v50l317 77v-913l149 -45v-41h-466z M905 1317q0 47 35 82t86 35q47 0 84 -35t37 -82q0 -49 -36 -83t-85 -34q-51 0 -86 34t-35 83z" />
<glyph unicode="&#xfb02;" horiz-adv-x="1304" d="M82 0v41l149 45v805h-149v80h149v80q0 193 135.5 314.5t299.5 121.5q70 0 69 -76q0 -31 -17.5 -62.5t-39.5 -45.5q-86 59 -178 59q-111 0 -111 -135q0 -76 10 -256h246v-80h-246v-805l183 -45v-41h-500zM776 0v41l150 45v1255l-150 19v49l318 78v-1401l149 -45v-41h-467z " />
<glyph unicode="&#xfb03;" horiz-adv-x="2021" d="M1504 0v41l149 45v768l-149 18v50l317 77v-913l150 -45v-41h-467zM1618 1317q0 47 35 82t86 35q47 0 84 -35t37 -82q0 -49 -36 -83t-85 -34q-51 0 -86 34t-35 83zM796 0v41l149 45v805h-149v80h149v80q0 193 135.5 314.5t299.5 121.5q69 0 69 -74q0 -33 -17.5 -64.5 t-39.5 -45.5q-86 59 -178 59q-111 0 -111 -135q0 -76 10 -256h246v-80h-246v-805l183 -45v-41h-500zM82 0v41l149 45v805h-149v80h149v80q0 193 135.5 314.5t299.5 121.5q69 0 69 -74q0 -33 -17.5 -64.5t-39.5 -45.5q-86 59 -178 59q-111 0 -111 -135q0 -76 10 -256h246v-80 h-246v-805l183 -45v-41h-500z" />
<glyph unicode="&#xfb04;" horiz-adv-x="2017" d="M1489 0v41l150 45v1255l-150 19v49l318 78v-1401l149 -45v-41h-467zM796 0v41l149 45v805h-149v80h149v80q0 193 135.5 314.5t299.5 121.5q69 0 69 -74q0 -33 -17.5 -64.5t-39.5 -45.5q-86 59 -178 59q-111 0 -111 -135q0 -76 10 -256h246v-80h-246v-805l183 -45v-41 h-500zM82 0v41l149 45v805h-149v80h149v80q0 193 135.5 314.5t299.5 121.5q69 0 69 -74q0 -33 -17.5 -64.5t-39.5 -45.5q-86 59 -178 59q-111 0 -111 -135q0 -76 10 -256h246v-80h-246v-805l183 -45v-41h-500z" />
</font>
</defs>
</svg>
