<?xml version="1.0" standalone="no"?>
<!DOCTYPE svg PUBLIC "-//W3C//DTD SVG 1.1//EN" "http://www.w3.org/Graphics/SVG/1.1/DTD/svg11.dtd" >
<svg xmlns="http://www.w3.org/2000/svg">
<metadata>
This is a custom SVG webfont generated by Font Squirrel.
Copyright   : Copyright  2012 by Librerias Gandhi SA de CV All rights reserved
Designer    : Cristobal Henestrosa  Raul Plancarte in collaboration with David Kimura  Gabriela Varela
Foundry     : Cristobal Henestrosa  Raul Plancarte in collaboration with David Kimura  Gabriela Varela
Foundry URL : httpwwwgandhicommx
</metadata>
<defs>
<font id="GandhiSerifBold" horiz-adv-x="1126" >
<font-face units-per-em="2048" ascent="1567" descent="-481" />
<missing-glyph horiz-adv-x="512" />
<glyph unicode=" "  horiz-adv-x="512" />
<glyph unicode="&#x09;" horiz-adv-x="512" />
<glyph unicode="&#xa0;" horiz-adv-x="512" />
<glyph unicode="!" horiz-adv-x="700" d="M195 123q0 61 45 105t108 44q66 0 110 -43t44 -108q0 -61 -45.5 -105.5t-108.5 -44.5q-66 0 -109.5 43t-43.5 109zM195 1266q0 66 42 100.5t111.5 34.5t113.5 -35t44 -100q0 -125 -117 -854h-78q-117 729 -116 854z" />
<glyph unicode="&#x22;" horiz-adv-x="843" d="M133 1323h250l-90 -459h-70zM461 1323h250l-90 -459h-70z" />
<glyph unicode="#" d="M66 369v131h219l41 252h-234v131h256l53 317h129l-53 -317h262l54 317h129l-54 -317h207v-131h-229l-41 -252h244v-131h-267l-51 -318h-129l51 318h-262l-51 -318h-129l51 318h-196zM414 500h262l41 252h-262z" />
<glyph unicode="$" d="M133 395h80q53 -332 309 -350v510q-186 92 -250 148q-123 107 -122 268q0 158 107.5 259t272.5 120v217h109v-217q150 -8 299 -62l-6 -305h-72q-49 244 -221 287v-469q76 -39 108.5 -57.5t95 -61.5t90.5 -81t52.5 -98.5t24.5 -131.5q0 -158 -102.5 -264.5t-276.5 -129.5 v-210h-109v204q-207 6 -370 90zM365 1090q0 -133 165 -232v416q-72 -12 -118.5 -61t-46.5 -123zM631 53q76 18 125 69.5t49 129.5q0 143 -174 246v-445z" />
<glyph unicode="%" horiz-adv-x="1603" d="M72 1024q0 152 92 240t246 88q145 0 233 -92.5t88 -229.5q0 -152 -92 -240t-246 -88q-145 0 -233 92.5t-88 229.5zM244 1026q0 -260 159 -260q156 0 156 262q0 260 -160 260q-156 0 -155 -262zM276 43l951 1309l102 -72l-950 -1309zM872 293q0 152 92.5 240t245.5 88 q145 0 233.5 -92.5t88.5 -229.5q0 -152 -92 -240t-246 -88q-145 0 -233.5 92.5t-88.5 229.5zM1044 295q0 -260 160 -260q156 0 156 262q0 260 -160 260q-156 0 -156 -262z" />
<glyph unicode="&#x26;" horiz-adv-x="1544" d="M72 336q0 281 354 412q-43 57 -68.5 95t-49 98t-23.5 116q0 135 102 215t285 80q166 0 257 -69t91 -193q0 -229 -291 -340l268 -365l203 254l-143 43v57h436v-57l-166 -45l-276 -324l18 -24q90 -123 150.5 -168t140.5 -45h92v-66q-109 -39 -307 -39q-80 0 -136.5 33 t-119.5 111q-154 -143 -395 -144q-182 0 -302 93.5t-120 271.5zM336 377q0 -141 64.5 -216t187.5 -75q129 0 241 109l-366 499q-127 -113 -127 -317zM535 1106q0 -90 102 -232l57 -79q104 135 105 297q0 84 -33 137t-94.5 53t-99 -49t-37.5 -127z" />
<glyph unicode="'" horiz-adv-x="516" d="M133 1323h250l-90 -459h-70z" />
<glyph unicode="(" horiz-adv-x="929" d="M133 649.5q0 360.5 190.5 608t467.5 352.5l26 -58q-207 -145 -305 -386.5t-98 -516t98 -516.5t305 -387l-26 -57q-276 104 -467 352t-191 608.5z" />
<glyph unicode=")" horiz-adv-x="929" d="M113 -254q207 145 305 387t98 516.5t-98.5 516t-304.5 386.5l26 58q276 -104 467 -352t191 -608.5t-190.5 -608.5t-467.5 -352z" />
<glyph unicode="*" horiz-adv-x="913" d="M72 920l331 75l-331 80l123 223l231 -256l-96 330h252l-97 -332l234 258l123 -223l-328 -80l328 -75l-123 -222l-234 250l97 -325h-252l96 321l-231 -246z" />
<glyph unicode="+" d="M102 555v131h392v391h135v-391h395v-131h-395v-389h-135v389h-392z" />
<glyph unicode="," horiz-adv-x="512" d="M104 115q0 72 43 110.5t109 38.5q72 0 112 -49t40 -129q0 -121 -77 -230.5t-179 -166.5l-43 55q57 39 106 103.5t59 123.5h-22q-66 2 -107 41t-41 103z" />
<glyph unicode="-" horiz-adv-x="716" d="M72 440v150h573v-150h-573z" />
<glyph unicode="." horiz-adv-x="512" d="M102 123q0 61 45.5 105t108.5 44q66 0 110 -43t44 -108q0 -61 -45.5 -105.5t-108.5 -44.5q-66 0 -110 43t-44 109z" />
<glyph unicode="/" horiz-adv-x="1097" d="M31 -481l897 2068h139l-897 -2068h-139z" />
<glyph unicode="0" d="M82 662q0 297 129 493.5t350 196.5q219 0 350 -188.5t131 -501.5q0 -295 -130 -493t-351 -198q-229 0 -354 198t-125 493zM360 662q0 -299 46.5 -455t156.5 -156q201 1 201 611q0 328 -50 469t-151 141q-203 0 -203 -610z" />
<glyph unicode="1" d="M186 1122v68l506 145h66v-1224l266 -52v-59h-817v59l270 52v1032z" />
<glyph unicode="2" d="M41 0v61q305 246 463 462t158 440q-1 325 -183 325q-178 0 -178 -327q-43 0 -69.5 2t-67.5 10t-61.5 31.5t-20.5 60.5q0 131 126 209t304 78q197 0 311.5 -95.5t114.5 -265.5q0 -332 -555 -735h504l55 172h68l-19 -428h-950z" />
<glyph unicode="3" d="M74 201q0 84 59.5 124t136.5 42q0 -139 69 -228.5t187 -89.5q102 0 164 66.5t62 177.5q0 309 -455 328v75q193 31 284 123t91 211q0 86 -51.5 136.5t-133.5 50.5q-145 0 -264 -154l-63 49q70 111 180.5 175.5t245.5 64.5q147 0 251.5 -75t104.5 -212q0 -125 -87 -205.5 t-220 -111.5q362 -82 362 -379q0 -170 -135 -284t-340 -114q-195 0 -321.5 65.5t-126.5 164.5z" />
<glyph unicode="4" d="M66 385v66l718 884h88v-809h181v-141h-181v-285l166 -41v-59h-637v59l195 41v285h-530zM238 526h358v449z" />
<glyph unicode="5" d="M113 201q0 86 64.5 126t131.5 40q0 -135 58.5 -226.5t183.5 -91.5q100 0 162.5 65.5t62.5 176.5q0 84 -38 146.5t-104.5 96t-143 49t-166.5 15.5h-142l66 719h581l41 113h64l-14 -371h-607l-18 -236h115q162 0 295 -43t221 -140t88 -234q0 -201 -137.5 -318t-337.5 -117 q-186 0 -306 67.5t-120 162.5z" />
<glyph unicode="6" d="M104 489q0 348 217.5 576.5t567.5 316.5l20 -73q-528 -199 -528 -791q0 -467 205 -467q72 0 115.5 58.5t57 127t13.5 146.5q0 51 -7 101.5t-25.5 112.5t-61.5 101t-107 39q-49 0 -104 -18l-14 69q102 55 213 56q180 0 272 -114t92 -294q0 -207 -135 -336t-338 -129 q-201 0 -327 130t-126 388z" />
<glyph unicode="7" d="M115 901l35 488h65l23 -72h825v-72q-23 -78 -143.5 -389t-229.5 -584l-108 -272h-363l690 1061h-676l-49 -160h-69z" />
<glyph unicode="8" d="M100 311q0 117 74 203t213 127q-113 72 -177.5 157t-64.5 206q0 152 121 250t301 98q203 0 318.5 -82t115.5 -230q0 -211 -264 -303q139 -82 216 -169t77 -218q0 -160 -127 -269.5t-334 -109.5q-219 0 -344 91t-125 249zM354 322q0 -121 57.5 -200t170.5 -79 q90 0 151.5 59.5t61.5 161.5q0 27 -5.5 51.5t-18.5 47t-25.5 40t-38 39t-40 33.5t-49 32.5t-50 30t-55.5 32t-54 30.5q-104 -104 -105 -278zM365 1096q0 -53 21.5 -97.5t69.5 -85.5t87 -65.5t110 -65.5q109 96 109 269q0 94 -50 160.5t-153 66.5q-86 0 -140 -49t-54 -133z " />
<glyph unicode="9" d="M98 887q0 207 135.5 336t337.5 129q201 0 327 -130t126 -388q0 -348 -217 -576.5t-567 -316.5l-21 73q528 199 529 791q0 467 -205 467q-72 0 -116 -58.5t-57.5 -127t-13.5 -146.5q0 -51 7.5 -101.5t26 -112.5t61.5 -101t106 -39q50 0 105 18l14 -69q-102 -55 -213 -56 q-180 0 -272.5 114t-92.5 294z" />
<glyph unicode=":" horiz-adv-x="512" d="M102 123q0 61 45.5 105t108.5 44q66 0 110 -43t44 -108q0 -61 -45.5 -105.5t-108.5 -44.5q-66 0 -110 43t-44 109zM102 707q0 61 45.5 105t108.5 44q66 0 110 -43t44 -108q0 -61 -45.5 -105.5t-108.5 -44.5q-66 0 -110 43t-44 109z" />
<glyph unicode=";" horiz-adv-x="512" d="M102 707q0 61 45.5 105t108.5 44q66 0 110 -43t44 -108q0 -61 -45.5 -105.5t-108.5 -44.5q-66 0 -110 43t-44 109zM104 115q0 72 43 110.5t109 38.5q72 0 112 -49t40 -129q0 -121 -77 -230.5t-179 -166.5l-43 55q57 39 106 103.5t59 123.5h-22q-66 2 -107 41t-41 103z " />
<glyph unicode="&#x3c;" d="M150 573v103l751 399l60 -123l-623 -327l623 -328l-62 -123z" />
<glyph unicode="=" d="M102 358v131h922v-131h-922zM102 756v131h922v-131h-922z" />
<glyph unicode="&#x3e;" d="M166 297l622 328l-622 327l59 123l752 -399v-103l-750 -399z" />
<glyph unicode="?" horiz-adv-x="843" d="M72 1171q0 92 99 161t249 69q156 0 254 -76t98 -215q0 -86 -40 -162t-96 -128t-112.5 -96t-96.5 -88t-40 -85q0 -31 24.5 -49.5t59.5 -18.5q53 0 115 33l20 -61q-31 -20 -90 -38t-110 -18q-109 0 -173.5 52.5t-64.5 144.5q0 66 41 129t99.5 114.5t117.5 102.5t100 112.5 t41 123.5q0 76 -36.5 118.5t-102.5 42.5q-49 0 -81 -21.5t-47 -64.5t-21.5 -85t-6.5 -101h-59q-70 0 -105.5 28.5t-35.5 75.5zM246 123q0 61 45 105t108 44q66 0 109 -43t43 -108q0 -61 -45 -105.5t-108.5 -44.5t-107.5 43t-44 109z" />
<glyph unicode="@" horiz-adv-x="1951" d="M113 453q0 406 242.5 662.5t666.5 256.5q158 0 300 -46t260 -137t187.5 -243.5t69.5 -349.5q0 -279 -154.5 -452t-406.5 -173q-80 0 -137.5 38t-57.5 114q-131 -152 -325 -152q-236 0 -236 189q0 272 561 346v227q0 109 -26.5 155t-89.5 46q-82 0 -127 -70.5t-49 -199.5 h-76q-166 0 -166 92q0 78 78 135t181 82.5t210 25.5q325 1 325 -280v-545q0 -63 64 -63q137 0 223 145t86 342q0 311 -193.5 487.5t-500.5 176.5q-356 0 -566 -228.5t-210 -580.5q0 -389 202.5 -593t589.5 -204q334 0 598 186l62 -96q-131 -90 -309.5 -147.5t-352.5 -57.5 q-463 2 -693 239.5t-230 672.5zM791 211q0 -55 28.5 -85t77.5 -30q51 0 102.5 32t83.5 83v233q-293 -68 -292 -233z" />
<glyph unicode="A" horiz-adv-x="1544" d="M51 0v59l164 47l533 1295h67l506 -1297l162 -45v-59h-623v59l160 50l-141 370h-406l-147 -375l159 -45v-59h-434zM510 571h334l-162 433z" />
<glyph unicode="B" horiz-adv-x="1333" d="M82 0v59l162 45v1164l-162 45v59h600q102 0 179 -11t151.5 -43t114.5 -98.5t40 -164.5q0 -156 -99 -231.5t-277 -106.5q197 -6 323.5 -89t126.5 -247q0 -195 -145.5 -288t-401.5 -93h-612zM524 92q43 -16 109 -16q168 0 241.5 83t73.5 208q0 143 -83 223t-247 80h-94 v-578zM524 758h105q127 0 190.5 75.5t63.5 204.5q0 258 -228 258q-82 0 -131 -14v-524z" />
<glyph unicode="C" horiz-adv-x="1437" d="M113 676q0 188 56 330.5t156.5 226.5t227.5 126t281 42q115 0 252 -29t210 -59l13 -328h-76q-98 342 -393 342q-209 0 -325 -172t-116 -455q0 -303 115 -477t348 -174q143 0 241.5 92t127.5 254h84l-27 -327q-221 -96 -438 -97q-342 0 -539.5 173t-197.5 532z" />
<glyph unicode="D" horiz-adv-x="1597" d="M82 0v59l162 45v1164l-162 45v59h668q360 0 547.5 -166t187.5 -485q0 -352 -199 -536.5t-561 -184.5h-643zM524 86h172q242 0 372 158.5t130 457.5q0 586 -498 586h-176v-1202z" />
<glyph unicode="E" horiz-adv-x="1251" d="M82 0v59l162 45v1164l-162 45v59h1024v-366h-57l-115 280h-410v-524h236l71 203h54v-492h-54l-71 203h-236v-590h426l131 326h58l-19 -412h-1038z" />
<glyph unicode="F" horiz-adv-x="1191" d="M82 0v59l162 45v1164l-162 45v59h1028v-366h-57l-113 280h-416v-524h226l71 203h53v-492h-53l-73 203h-224v-572l170 -47v-57h-612z" />
<glyph unicode="G" horiz-adv-x="1574" d="M113 676q0 193 57 337t160.5 226t231.5 122t282 40q121 0 264 -30t217 -60l12 -326h-77q-100 342 -420 342q-217 0 -329 -175t-112 -456q0 -649 461 -649q119 0 209 45v424l-166 45v60h600v-60l-157 -45v-432q-76 -43 -220.5 -78t-255.5 -35q-344 0 -550.5 175.5 t-206.5 529.5z" />
<glyph unicode="H" horiz-adv-x="1683" d="M82 0v59l162 45v1164l-162 45v59h604v-59l-162 -45v-504h635v504l-162 45v59h605v-59l-162 -45v-1164l162 -45v-59h-605v59l162 45v568h-635v-568l162 -45v-59h-604z" />
<glyph unicode="I" horiz-adv-x="768" d="M82 0v59l162 45v1164l-162 45v59h604v-59l-162 -45v-1164l162 -45v-59h-604z" />
<glyph unicode="J" horiz-adv-x="786" d="M51 -135q133 76 177 153.5t44 264.5v985l-161 45v59h604v-59l-162 -45v-893q0 -223 -109.5 -362.5t-363.5 -207.5z" />
<glyph unicode="K" horiz-adv-x="1501" d="M82 0v59l162 45v1164l-162 45v59h604v-59l-162 -45v-1164l162 -45v-59h-604zM555 702l553 566l-160 45v59h473v-59l-161 -45l-447 -443l479 -688q53 -78 148 -78v-59q-133 -29 -260 -29q-74 0 -119 26t-86 85z" />
<glyph unicode="L" horiz-adv-x="1228" d="M82 0v59l162 45v1164l-162 45v59h604v-59l-162 -45v-1182h434l132 336h57l-19 -422h-1046z" />
<glyph unicode="M" horiz-adv-x="1902" d="M72 0v59l161 45v1164l-161 45v59h475l414 -1010l403 1010h422v-59l-127 -45v-1162l162 -47v-59h-604v59l165 47v1041l-462 -1165h-86l-490 1173v-1051l162 -45v-59h-434z" />
<glyph unicode="N" horiz-adv-x="1538" d="M72 0v59l161 45v1164l-161 45v59h452l672 -903v799l-162 45v59h432v-59l-159 -45v-1286h-84l-879 1177v-1055l162 -45v-59h-434z" />
<glyph unicode="O" horiz-adv-x="1605" d="M113 684q0 317 190.5 517t517.5 200q330 0 501 -197.5t171 -519.5q0 -309 -185.5 -511t-502.5 -202q-338 0 -515 188.5t-177 524.5zM399 690q0 -643 422 -643q104 0 182 57.5t121 152.5t62.5 202.5t19.5 224.5q0 317 -107.5 479t-305.5 162q-193 0 -293.5 -172 t-100.5 -463z" />
<glyph unicode="P" horiz-adv-x="1253" d="M82 0v59l162 45v1164l-162 45v59h561q125 0 216 -15.5t168 -53t116 -108.5t39 -175q0 -201 -155 -305.5t-382 -104.5h-65v64q317 45 317 346q0 276 -252 276q-51 0 -121 -16v-1178l162 -43v-59h-604z" />
<glyph unicode="Q" horiz-adv-x="1605" d="M113 684q0 317 190.5 517t517.5 200q330 0 501 -197.5t171 -519.5q0 -262 -136 -451.5t-376 -242.5q82 -139 206 -257t224 -118h43v-59q-127 -35 -291 -35q-129 0 -268 142t-240 319q-266 39 -404 222t-138 480zM399 690q0 -643 422 -643q104 0 182 57.5t121 152.5 t62.5 202.5t19.5 224.5q0 317 -107.5 479t-305.5 162q-193 0 -293.5 -172t-100.5 -463z" />
<glyph unicode="R" horiz-adv-x="1396" d="M82 0v59l162 45v1164l-162 47v57h565q262 0 398.5 -72.5t136.5 -267.5q0 -154 -114 -252t-341 -116q102 -14 169 -56.5t122 -134.5l192 -326q27 -45 63 -63t103 -25v-59q-92 -29 -248 -29q-68 0 -113.5 29t-84.5 96l-254 445q-35 59 -59.5 80.5t-69.5 21.5h-23v-541 l162 -43v-59h-604zM524 715h97q141 0 209.5 82t68.5 229q0 270 -250 270q-51 0 -125 -16v-565z" />
<glyph unicode="S" horiz-adv-x="1083" d="M102 410h80q59 -362 344 -363q106 0 182 56.5t76 158.5q0 100 -68.5 171t-165.5 118t-195.5 98t-167 140.5t-68.5 216.5q0 180 128 287.5t318 107.5q162 0 355 -66l-7 -315h-73q-27 137 -101.5 221t-191.5 84q-84 0 -147.5 -54t-63.5 -143q0 -68 36 -122t94 -91.5 t128 -73.5t139.5 -76t128 -88t94 -123t35.5 -169q0 -184 -130 -299t-343 -115q-209 0 -397 92z" />
<glyph unicode="T" horiz-adv-x="1370" d="M82 1006v366h1206v-366h-57l-113 280h-293v-1182l170 -45v-59h-620v59l170 45v1182h-293l-113 -280h-57z" />
<glyph unicode="U" horiz-adv-x="1529" d="M61 1313v59h605v-59l-162 -45v-801q0 -186 89 -285.5t249 -99.5q162 0 264 108.5t102 319.5v758l-161 45v59h432v-59l-162 -45v-768q0 -258 -145.5 -393.5t-374.5 -135.5q-84 0 -159 11.5t-152.5 44t-134 84t-92.5 138.5t-36 200v819z" />
<glyph unicode="V" horiz-adv-x="1533" d="M61 1313v59h627v-59l-160 -49l320 -881l354 885l-160 45v59h441v-59l-164 -47l-526 -1284h-78l-492 1286z" />
<glyph unicode="W" horiz-adv-x="2320" d="M61 1313v59h623v-59l-160 -49l297 -863l271 721l-56 146l-153 45v59h606v-59l-160 -49l320 -856l333 860l-159 45v59h446v-59l-164 -47l-514 -1284h-67l-373 983l-377 -983h-69l-482 1286z" />
<glyph unicode="X" horiz-adv-x="1585" d="M61 0v59l172 47l441 547l-418 615l-147 45v59h616v-59l-156 -47l289 -432l334 434l-156 45v59h441v-59l-162 -45l-406 -512l445 -652l170 -45v-59h-658v59l178 45l-317 469l-360 -469l174 -45v-59h-480z" />
<glyph unicode="Y" horiz-adv-x="1462" d="M41 1313v59h616v-59l-155 -47l329 -549l308 551l-152 45v59h434v-59l-164 -47l-378 -674v-488l170 -45v-59h-621v59l172 45v486l-412 678z" />
<glyph unicode="Z" horiz-adv-x="1347" d="M72 0v53l788 1233h-549l-112 -280h-58v366h1065v-53l-788 -1233h639l131 336h57l-18 -422h-1155z" />
<glyph unicode="[" horiz-adv-x="856" d="M195 -322v1942h548v-74h-270v-1792h270v-76h-548z" />
<glyph unicode="\" horiz-adv-x="1097" d="M31 1587h139l897 -2068h-139z" />
<glyph unicode="]" horiz-adv-x="856" d="M113 -246h270v1792h-270v74h549v-1942h-549v76z" />
<glyph unicode="^" d="M113 602l399 750h102l400 -750l-129 -57l-322 614l-321 -614z" />
<glyph unicode="_" d="M-10 -199h1147v-149h-1147v149z" />
<glyph unicode="`" horiz-adv-x="819" d="M225 1448q0 72 203 72q43 -145 166 -340l-62 -37q-92 61 -199.5 162.5t-107.5 142.5z" />
<glyph unicode="a" horiz-adv-x="1064" d="M218.5 384q146.5 87 414.5 122v227q0 109 -26.5 155t-92.5 46q-82 0 -126 -70.5t-48 -199.5h-76q-166 0 -166 92q0 78 78 135t181.5 82.5t207.5 25.5q328 0 328 -280v-576q0 -55 18.5 -72.5t65.5 -17.5h43l-2 -49q-121 -33 -252 -33q-133 0 -133 123v29 q-129 -152 -326 -152q-235 0 -235 187q0 139 146.5 226zM340 211q0 -55 28.5 -85t77.5 -30q47 0 98.5 30t88.5 83v235q-293 -66 -293 -233z" />
<glyph unicode="b" horiz-adv-x="1185" d="M20 1350v55l383 82v-645q51 66 136.5 111.5t171.5 45.5q186 0 284.5 -128t98.5 -326q0 -150 -44 -264.5t-120 -180t-163 -97.5t-185 -32q-147 0 -293 58l-80 -58h-59v1358zM403 106q89 -71 202 -71h3q111 0 173.5 115.5t62.5 291.5q0 186 -61.5 301t-180.5 115 q-106 0 -199 -100v-652z" />
<glyph unicode="c" horiz-adv-x="1034" d="M92 418q0 256 144.5 418.5t386.5 162.5q129 0 228 -58t99 -146q0 -57 -48 -89t-173 -32q-2 125 -31.5 193.5t-111.5 68.5q-111 0 -177.5 -118t-66.5 -320q0 -186 80 -295t227 -109q127 0 279 115l35 -53q-193 -184 -433 -185q-197 0 -317.5 109t-120.5 338z" />
<glyph unicode="d" horiz-adv-x="1216" d="M92 430q0 147 44 260t119 178.5t164 98t185 32.5q90 0 178 -20v362l-137 19v57l391 74v-1366l129 -21v-53l-383 -80v166q-49 -70 -129 -118t-172 -48q-197 0 -293 128t-96 331zM342 526q0 -413 244 -413q106 0 196 102v637q-29 33 -84 58.5t-110 25.5 q-121 0 -183.5 -108.5t-62.5 -301.5z" />
<glyph unicode="e" horiz-adv-x="1079" d="M92 438q0 256 145.5 408.5t356.5 152.5q178 0 285.5 -96t107.5 -266q0 -53 -4 -78h-641v-22q0 -442 315 -443q150 0 291 107l35 -54q-191 -176 -424 -176q-223 0 -345 118t-122 349zM346 633h373q6 68 6 80q0 109 -30.5 165t-110.5 56q-90 0 -154.5 -75t-83.5 -226z" />
<glyph unicode="f" horiz-adv-x="722" d="M72 0v49l131 41v789h-131v92h131v59q2 188 159.5 322.5t311.5 134.5q80 0 80 -80q0 -74 -60 -137q-105 69 -186 69h-2q-80 0 -80 -102q0 -119 29 -266h186v-92h-186v-789l133 -41v-49h-516z" />
<glyph unicode="g" horiz-adv-x="1110" d="M31 -279q0 80 58 138.5t153 85.5q-45 6 -76 16t-59.5 43t-28.5 86q0 82 62.5 151.5t158.5 116.5q-217 80 -217 304q0 164 126 250.5t296 86.5q174 0 282 -71q76 10 76 82q0 49 -16 104h55q70 0 109 -31.5t39 -85.5q0 -55 -49.5 -85.5t-129.5 -30.5h-28q80 -86 80 -226 q0 -158 -126 -243.5t-294 -85.5q-84 0 -144 16q-49 -61 -49 -121q0 -55 72 -55h262q66 0 118 -5t110.5 -22.5t97.5 -46.5t64.5 -80t25.5 -121q0 -160 -163 -266t-415 -106q-219 0 -334.5 53t-115.5 149zM246 -223q0 -193 272 -193q121 0 233.5 55.5t112.5 157.5 q0 76 -60.5 101.5t-180.5 25.5h-322q-55 -55 -55 -147zM334 672q0 -47 7 -91t23.5 -90.5t53.5 -74t88 -27.5q80 0 123 71.5t43 190.5q0 289 -170 289q-72 0 -119 -72.5t-49 -195.5z" />
<glyph unicode="h" horiz-adv-x="1236" d="M61 0v49l129 41v1239l-129 21v55l383 82v-643q155 155 345 155h2q272 0 272 -311v-598l133 -41v-49h-516v49l131 41v572q0 196 -158 196h-2q-106 0 -207 -96v-672l121 -41v-49h-504z" />
<glyph unicode="i" horiz-adv-x="618" d="M66 0v49l129 39v748l-129 20v55l383 88v-911l129 -39v-49h-512zM166 1319q0 61 45 105t108 44q66 0 110 -43t44 -108q0 -61 -45.5 -105.5t-108.5 -44.5q-66 0 -109.5 43t-43.5 109z" />
<glyph unicode="j" horiz-adv-x="610" d="M-102 -401q0 51 28.5 95t59.5 62q105 -118 169 -118h1q55 0 55 92v1106l-129 20v55l383 88v-1009q0 -145 -81 -257t-188.5 -163t-215.5 -51q-82 0 -82 80zM186 1319q0 61 45 105t109 44q66 0 110 -43t44 -108q0 -61 -45.5 -105.5t-108.5 -44.5q-66 0 -110 43t-44 109z " />
<glyph unicode="k" horiz-adv-x="1224" d="M61 0v49l129 41v1239l-129 21v55l383 82v-1397l121 -41v-49h-504zM477 496l361 381l-136 41v53h412v-51l-153 -48l-267 -274l344 -448q33 -43 65 -65t91 -36v-45q-27 -12 -96.5 -22.5t-108.5 -10.5q-131 0 -182 70z" />
<glyph unicode="l" horiz-adv-x="634" d="M61 0v49l129 39v1241l-129 21v55l383 82v-1399l129 -39v-49h-512z" />
<glyph unicode="m" horiz-adv-x="1843" d="M66 0v49l129 41v746l-129 20v55l383 88v-159q151 159 333 159h2q182 0 256 -155q76 76 173.5 115.5t181.5 39.5q137 0 205.5 -80.5t68.5 -228.5v-600l133 -41v-49h-516v49l131 41v574q0 102 -37 148t-125 46q-104 0 -196 -76v-692l133 -41v-49h-516v49l131 41v574 q0 100 -36 147t-118 47q-119 0 -204 -96v-672l120 -41v-49h-503z" />
<glyph unicode="n" horiz-adv-x="1241" d="M66 0v49l129 41v746l-129 20v55l383 88v-155q155 155 344 155h2q272 0 272 -311v-598l133 -41v-49h-516v49l131 41v572q0 196 -158 196h-2q-106 0 -206 -96v-672l120 -41v-49h-503z" />
<glyph unicode="o" horiz-adv-x="1167" d="M92 455q0 252 133 398t361 146q219 0 354 -131t135 -352q0 -252 -132 -398.5t-361 -146.5q-219 0 -354.5 131t-135.5 353zM358 485q1 -450 228 -450q111 0 167 119.5t56 330.5q0 451 -227 451q-111 0 -167.5 -120t-56.5 -331z" />
<glyph unicode="p" horiz-adv-x="1206" d="M41 -422l129 39v1227l-129 20v54l383 81v-157q51 66 136 111.5t171 45.5q186 0 284.5 -128t98.5 -326q0 -147 -44 -262t-118.5 -180.5t-164 -98.5t-185.5 -33q-78 0 -178 23v-377l129 -39v-49h-512v49zM424 106q89 -71 202 -71h3q111 0 173 115.5t62 291.5q0 186 -61 301 t-180 115q-106 0 -199 -100v-652z" />
<glyph unicode="q" horiz-adv-x="1185" d="M92 424q0 150 44 265.5t120 181t163 97t185 31.5q158 0 291 -59l82 59h59v-1382l129 -39v-49h-512v49l129 39v518q-51 -70 -133 -117t-168 -47q-195 0 -292 130t-97 323zM342 526q0 -413 246 -413q100 0 194 100v641q-88 82 -204.5 82t-176 -113.5t-59.5 -296.5z" />
<glyph unicode="r" horiz-adv-x="911" d="M66 0v49l129 41v746l-129 20v55l383 88v-223q168 223 311 223q110 0 110 -102t-63 -172q-94 57 -176 57q-100 0 -182 -92v-600l143 -41v-49h-526z" />
<glyph unicode="s" horiz-adv-x="905" d="M61 158q0 66 51.5 104.5t131.5 42.5q14 -268 227 -268q78 0 128 34.5t50 98.5q0 51 -40 93t-100 67.5t-130 58.5t-130.5 66.5t-100 94t-39.5 136.5q0 156 104 234.5t262 78.5q143 0 234.5 -58t91.5 -146q0 -119 -205 -119q-2 55 -8 95t-20.5 81t-45 62.5t-78.5 21.5 q-70 0 -110.5 -39t-40.5 -111q0 -61 55 -107t134 -78t158 -67.5t134 -98t55 -148.5q0 -156 -109.5 -236t-281.5 -80q-145 0 -261 51.5t-116 135.5z" />
<glyph unicode="t" horiz-adv-x="751" d="M51 879v92h133l176 237h76v-237h234v-92h-234v-664q0 -72 20.5 -102.5t71.5 -30.5q63 0 150 49l20 -65q-147 -95 -303 -95q-213 0 -213 228v680h-131z" />
<glyph unicode="u" horiz-adv-x="1200" d="M31 856v55l383 88v-692q0 -194 157 -194h2q109 0 193 90v633l-129 20v55l383 88v-874l129 -21v-53l-383 -80v144q-156 -143 -332 -144q-137 0 -205.5 81t-68.5 229v555z" />
<glyph unicode="v" horiz-adv-x="1138" d="M31 922v49h528v-49l-139 -45l215 -568l250 565l-133 48v49h356v-49l-131 -50l-381 -872h-78l-366 874z" />
<glyph unicode="w" horiz-adv-x="1648" d="M31 922v49h530v-49l-141 -45l168 -547l280 641h74l229 -647l224 550l-133 48v49h356v-49l-133 -50l-363 -872h-80l-223 616l-280 -616h-78l-305 874z" />
<glyph unicode="x" horiz-adv-x="1204" d="M41 0v41l154 55l284 383l-270 393l-141 52v47h536v-49l-127 -41l197 -287l211 280l-119 48v49h356v-49l-135 -50l-266 -348l305 -438l137 -45v-41h-536v41l123 45l-222 322l-227 -316l131 -51v-41h-391z" />
<glyph unicode="y" horiz-adv-x="1132" d="M31 922v49h524v-49l-135 -45l231 -568l223 563l-133 50v49h361v-49l-131 -50l-420 -1022q-33 -82 -59.5 -130t-71.5 -101t-108.5 -77.5t-147.5 -24.5q-45 0 -76 19.5t-31 60.5q0 72 72 137q92 -72 166 -72q53 0 100 65.5t135 274.5l-378 872z" />
<glyph unicode="z" horiz-adv-x="1030" d="M72 0v57l542 836h-329l-103 -207h-57l10 285h785v-53l-551 -840h409l105 215h55l-16 -293h-850z" />
<glyph unicode="{" horiz-adv-x="929" d="M92 618v62q121 23 167 83t46 171v362q0 106 26.5 174t82 98.5t111 41t141.5 10.5h151v-70h-88q-53 0 -84 -12t-45 -48t-17 -72t-3 -113v-279q0 -168 -79 -254t-257 -123q174 -39 255 -126t81 -251v-278q0 -78 3 -114t17 -71.5t45 -48t84 -12.5h88v-70h-151 q-86 0 -141.5 10.5t-111 41t-82 98.5t-26.5 174v363q0 111 -46 170.5t-167 82.5z" />
<glyph unicode="|" horiz-adv-x="614" d="M240 -481v2068h135v-2068h-135z" />
<glyph unicode="}" horiz-adv-x="929" d="M113 -252h88q53 0 83.5 12.5t45 48t17.5 71.5t3 114v278q0 164 81 251t255 126q-178 37 -257 123t-79 254v279q0 78 -3 113.5t-17.5 71.5t-45 48t-83.5 12h-88v70h151q86 0 141.5 -10.5t110.5 -41t82 -98t27 -174.5v-362q0 -111 46 -171t167 -83v-62q-121 -23 -167 -83 t-46 -170v-363q0 -106 -27 -174t-82 -98.5t-110.5 -41t-141.5 -10.5h-151v70z" />
<glyph unicode="~" d="M102 502q29 104 85.5 172.5t146.5 68.5q84 0 245.5 -61t202.5 -61q88 0 127 135l115 -33q-29 -104 -85 -173t-146 -69q-84 0 -246 61.5t-203 61.5q-88 0 -127 -135z" />
<glyph unicode="&#xa1;" horiz-adv-x="618" d="M154 -295q-1 125 116 854h78q117 -729 117 -854q0 -66 -42 -100.5t-111.5 -34.5t-113.5 35t-44 100zM158 850q0 61 45 105t108 44q66 0 110 -43t44 -108q0 -61 -45 -105.5t-109 -44.5q-66 0 -109.5 43t-43.5 109z" />
<glyph unicode="&#xa2;" d="M100 414q0 229 121 386.5t320 190.5v223h108v-215q162 -2 263.5 -63.5t101.5 -140.5q0 -57 -48 -89t-173 -32q-10 231 -144 258v-836q14 -2 43 -2q145 0 299 117l35 -53q-162 -154 -377 -181v-210h-108v206q-190 8 -315.5 119t-125.5 322zM350 494q0 -293 191 -373v801 q-88 -33 -139.5 -146.5t-51.5 -281.5z" />
<glyph unicode="&#xa3;" d="M98 0v61q78 68 126 118t91 122t43 135q0 74 -36 180h-191v99h154q-51 129 -52 221q0 213 128 314.5t329 101.5q72 0 142.5 -18.5t129 -70t58.5 -126.5q0 -123 -209 -125q-4 119 -41 192.5t-108 73.5q-78 0 -123 -56.5t-45 -142.5q0 -57 14 -116.5t40.5 -134t37.5 -113.5 h286v-99h-266q4 -37 4 -57q0 -160 -229 -303h524l56 172h67l-18 -428h-912z" />
<glyph unicode="&#xa4;" d="M109 264l143 146q-57 90 -57 204q0 121 57 213l-143 146l92 94l143 -145q94 61 223 61q123 0 213 -61l146 145l92 -94l-146 -146q59 -90 60 -202q0 -125 -60 -215l146 -146l-92 -94l-146 145q-94 -61 -219 -61t-215 61l-145 -145zM381 623q0 -156 45 -225.5t141 -69.5 q86 0 132 66.5t46 228.5q0 287 -184 286q-180 0 -180 -286z" />
<glyph unicode="&#xa5;" d="M-35 1264v59h596v-59l-155 -47l260 -490l243 492l-151 45v59h413v-59l-143 -47l-278 -541h184v-98h-227v-117h227v-99h-227v-258l159 -45v-59h-600v59l162 45v258h-235v99h235v117h-235v98h188l-289 543z" />
<glyph unicode="&#xa6;" horiz-adv-x="614" d="M240 276h135v-757h-135v757zM240 829v758h135v-758h-135z" />
<glyph unicode="&#xa7;" horiz-adv-x="1095" d="M113 563q0 213 258 287q-162 109 -162 240q0 150 106.5 230.5t257.5 80.5q158 0 255.5 -52.5t97.5 -146.5q0 -125 -207 -125q0 53 -5 93t-21.5 81t-51.5 63.5t-88 22.5q-68 0 -112 -31.5t-44 -95.5q0 -66 60.5 -120t146.5 -95t172 -86t146.5 -114.5t60.5 -155.5 q0 -213 -260 -287q164 -109 164 -239q0 -150 -106.5 -231t-258.5 -81q-158 0 -255 52.5t-97 146.5q0 125 207 125q0 -53 5 -93t21.5 -81t51 -63.5t88.5 -22.5q68 0 111.5 31.5t43.5 95.5q0 66 -60 120t-146 95t-172.5 86t-146.5 114.5t-60 155.5zM311 657q0 -31 17.5 -57.5 t57.5 -55t73 -47t95 -51t93 -49.5q137 42 137 148q0 31 -17 57.5t-57 54t-73 46t-94.5 50t-93.5 50.5q-137 -37 -138 -146z" />
<glyph unicode="&#xa8;" horiz-adv-x="819" d="M45 1323q0 57 42 100t101.5 43t103.5 -43t44 -100q0 -61 -44 -103t-104 -42q-61 0 -102 42t-41 103zM481 1323q0 57 42 100t101.5 43t103.5 -43t44 -100q0 -61 -44 -103t-103.5 -42t-101.5 42t-42 103z" />
<glyph unicode="&#xa9;" horiz-adv-x="1638" d="M102 686q0 301 201 508t516.5 207t516 -207t200.5 -508t-200.5 -508t-516 -207t-516.5 207t-201 508zM193 686q0 -266 174 -448.5t452 -182.5q276 0 451.5 183.5t175.5 447.5q0 266 -174 448.5t-453 182.5q-276 0 -451 -183.5t-175 -447.5zM424 674q0 207 120 311.5 t290 104.5q133 0 280 -50l6 -211h-67q-57 190 -215 191q-106 0 -160.5 -103.5t-54.5 -232.5q0 -139 56 -232.5t175 -93.5q162 0 195 189h73l-14 -209q-137 -53 -260 -53q-182 0 -303 101t-121 288z" />
<glyph unicode="&#xaa;" horiz-adv-x="821" d="M82 825q0 186 401 242v137q0 76 -18.5 104.5t-67.5 28.5q-123 0 -125 -180q-172 0 -172 72q0 82 104.5 127t227.5 45q236 0 236 -199v-385q0 -41 13 -52t46 -11h33v-58q-86 -23 -182 -22q-94 0 -95 88v20q-35 -43 -103.5 -75.5t-139.5 -32.5q-68 0 -113 39t-45 112z M272 852q0 -33 21.5 -53.5t56.5 -20.5q39 0 76 26.5t57 63.5v136q-211 -53 -211 -152z" />
<glyph unicode="&#xab;" horiz-adv-x="1134" d="M92 504l457 422l53 -49l-242 -373l242 -377l-53 -45zM502 504l456 422l54 -49l-242 -373l242 -377l-54 -45z" />
<glyph unicode="&#xac;" d="M92 739v131h922v-495h-135v364h-787z" />
<glyph unicode="&#xad;" horiz-adv-x="716" d="M72 440v150h573v-150h-573z" />
<glyph unicode="&#xae;" horiz-adv-x="1638" d="M102 686q0 301 201 508t516.5 207t516 -207t200.5 -508t-200.5 -508t-516 -207t-516.5 207t-201 508zM193 686q0 -266 174 -448.5t452 -182.5q276 0 451.5 183.5t175.5 447.5q0 266 -174 448.5t-453 182.5q-276 0 -451 -183.5t-175 -447.5zM432 305v53l121 31v608 l-121 33v51h402q303 0 303 -192q0 -166 -244 -209q66 -4 99.5 -28.5t64.5 -76.5l100 -169q33 -47 86 -48v-53q-74 -16 -162 -16q-86 0 -127 76l-125 231q-31 55 -69 55h-19v-262l113 -31v-53h-422zM741 715h45q78 0 116 44t38 113q0 141 -125 142q-33 0 -74 -6v-293z" />
<glyph unicode="&#xaf;" horiz-adv-x="819" d="M133 1208v154h553v-154h-553z" />
<glyph unicode="&#xb0;" d="M229 1026.5q0 147.5 96.5 236.5t238 89t237.5 -90.5t96 -237.5t-96 -236.5t-237.5 -89.5t-238 90.5t-96.5 238zM369 1026q0 -92 57 -150.5t137 -58.5q82 0 138.5 56.5t56.5 150.5q0 92 -57.5 150.5t-137.5 58.5q-82 0 -138 -56.5t-56 -150.5z" />
<glyph unicode="&#xb1;" d="M102 0v131h922v-131h-922zM102 618v132h392v358h135v-358h395v-132h-395v-364h-135v364h-392z" />
<glyph unicode="&#xb2;" horiz-adv-x="819" d="M29 690v62q231 160 343.5 282.5t112.5 255.5q0 166 -135 166q-125 0 -133 -196q-160 0 -160 81q0 88 92.5 138.5t225.5 50.5q145 0 229 -61.5t84 -172.5q0 -236 -381 -428h344l41 95h49l-14 -273h-698z" />
<glyph unicode="&#xb3;" horiz-adv-x="819" d="M49 831q0 61 44 93t102 34q0 -86 52 -148t138 -62q164 0 164 126q0 178 -334 189v63q143 16 210 69.5t67 125.5q0 106 -117 106q-127 0 -209 -98l-51 53q104 147 311 148q113 0 188.5 -45t75.5 -135q0 -78 -57.5 -128.5t-149.5 -64.5q145 -33 196.5 -93t51.5 -144 q0 -109 -99.5 -177.5t-252.5 -68.5q-139 0 -234.5 47t-95.5 110z" />
<glyph unicode="&#xb4;" horiz-adv-x="819" d="M225 1180q123 195 166 340q203 0 203 -72q0 -41 -107.5 -142.5t-199.5 -162.5z" />
<glyph unicode="&#xb5;" horiz-adv-x="1189" d="M20 856v55l383 88v-692q0 -195 160 -194q109 0 193 90v633l-129 20v55l383 88v-874l129 -21v-53l-383 -80v144q-156 -143 -332 -144q-117 0 -184 58v-152q0 -55 17 -92t58 -56.5t75 -27.5t102 -18q0 -84 -41 -124t-101 -40q-201 0 -200 446v871z" />
<glyph unicode="&#xb6;" horiz-adv-x="1433" d="M113 930q0 225 164.5 333.5t418.5 108.5h625v-65l-195 -52v-1427h-133v1446h-166v-1446h-135v674q-580 12 -579 428zM412 940q0 -125 65 -229.5t215 -118.5v682q-145 0 -212.5 -97.5t-67.5 -236.5z" />
<glyph unicode="&#xb7;" horiz-adv-x="512" d="M102 645q0 61 45.5 105.5t108.5 44.5q66 0 110 -43t44 -109q0 -61 -45.5 -105t-108.5 -44q-66 0 -110 43t-44 108z" />
<glyph unicode="&#xb8;" horiz-adv-x="819" d="M201 -440l39 80q53 -33 116 -33q33 0 57.5 18.5t24.5 48.5q0 74 -164 74l-22 53l156 199h118l-114 -121q204 -17 204 -162q0 -84 -66.5 -141t-174.5 -57q-96 0 -174 41z" />
<glyph unicode="&#xb9;" horiz-adv-x="819" d="M129 1364v66l375 92h47v-738l197 -28v-66h-603v66l201 28v592z" />
<glyph unicode="&#xba;" horiz-adv-x="929" d="M92 1038q0 172 100.5 267.5t272.5 95.5t272.5 -95.5t100.5 -269.5q0 -172 -100.5 -267t-272.5 -95t-272.5 95t-100.5 269zM291 1038q0 -297 174 -297t174 295q0 297 -174 297t-174 -295z" />
<glyph unicode="&#xbb;" horiz-adv-x="1134" d="M123 131l242 373l-242 377l53 45l457 -422l-457 -422zM532 131l242 373l-242 377l54 45l456 -422l-456 -422z" />
<glyph unicode="&#xbc;" horiz-adv-x="2048" d="M102 1194v66l375 92h47v-738l197 -28v-66h-602v66l200 28v592zM580 43l950 1309l102 -72l-950 -1309zM1221 236v49l528 546h66v-499h131v-96h-131v-148l122 -22v-66h-471v66l146 22v148h-391zM1370 332h242v243z" />
<glyph unicode="&#xbd;" horiz-adv-x="2048" d="M102 1194v66l375 92h47v-738l197 -28v-66h-602v66l200 28v592zM481 43l951 1309l102 -72l-950 -1309zM1233 0v61q231 160 344 283t113 256q-1 166 -136 166q-125 0 -133 -197q-160 0 -159 82q0 88 92 138.5t225 50.5q145 0 229 -61.5t84 -172.5q0 -236 -381 -428h344 l41 94h50l-15 -272h-698z" />
<glyph unicode="&#xbe;" horiz-adv-x="2048" d="M102 653q0 61 44 93t102 34q0 -86 52 -148.5t138 -62.5q164 0 164 127q0 178 -334 189v63q143 16 210 69.5t67 125.5q0 106 -117 106q-127 0 -209 -98l-51 53q104 147 311 148q113 0 188.5 -45t75.5 -136q0 -78 -57 -128t-149 -64q145 -33 196 -93.5t51 -144.5 q0 -109 -99 -177t-253 -68q-139 0 -234.5 47t-95.5 110zM565 43l951 1309l102 -72l-950 -1309zM1221 236v49l528 546h66v-499h131v-96h-131v-148l122 -22v-66h-471v66l146 22v148h-391zM1370 332h242v243z" />
<glyph unicode="&#xbf;" horiz-adv-x="813" d="M72 -139q0 86 40 161.5t96 128t112.5 96.5t96.5 88t40 85q0 31 -24.5 49t-59.5 18q-53 0 -115 -32l-20 61q31 20 90 37.5t110 17.5q109 0 173.5 -52t64.5 -144q0 -66 -41 -129.5t-100.5 -114.5t-118 -102.5t-99.5 -112.5t-41 -123q0 -76 37 -119t103 -43q49 0 80.5 21.5 t47 64.5t21.5 85t6 102h60q70 0 105.5 -29t35.5 -76q0 -92 -99.5 -160.5t-248.5 -68.5q-156 0 -254 75.5t-98 215.5zM293 850q0 61 45 105t108.5 44t107.5 -43t44 -108q0 -61 -45 -105.5t-109 -44.5q-66 0 -108.5 43t-42.5 109z" />
<glyph unicode="&#xc0;" horiz-adv-x="1544" d="M51 0v59l164 47l533 1295h67l506 -1297l162 -45v-59h-623v59l160 50l-141 370h-406l-147 -375l159 -45v-59h-434zM508 1683q0 35 53 70t119 49q90 -125 264 -270l-47 -55q-117 35 -253 99t-136 107zM510 571h334l-162 433z" />
<glyph unicode="&#xc1;" horiz-adv-x="1544" d="M51 0v59l164 47l533 1295h67l506 -1297l162 -45v-59h-623v59l160 50l-141 370h-406l-147 -375l159 -45v-59h-434zM510 571h334l-162 433zM616 1532q174 145 265 270q66 -14 119 -49t53 -70q0 -43 -136 -107t-253 -99z" />
<glyph unicode="&#xc2;" horiz-adv-x="1544" d="M51 0v59l164 47l533 1295h67l506 -1297l162 -45v-59h-623v59l160 50l-141 370h-406l-147 -375l159 -45v-59h-434zM510 571h334l-162 433zM522 1538q139 161 207 272h105q68 -111 206 -272l-65 -51l-195 135l-192 -135z" />
<glyph unicode="&#xc3;" horiz-adv-x="1544" d="M51 0v59l164 47l533 1295h67l506 -1297l162 -45v-59h-623v59l160 50l-141 370h-406l-147 -375l159 -45v-59h-434zM487 1530q25 133 66 195.5t113 62.5q41 0 139 -43t129 -43q33 0 51 22.5t41 79.5l76 -18q-25 -133 -66 -195.5t-112 -62.5q-41 0 -139.5 43t-129.5 43 q-33 0 -51 -22.5t-41 -80.5zM510 571h334l-162 433z" />
<glyph unicode="&#xc4;" horiz-adv-x="1544" d="M51 0v59l164 47l533 1295h67l506 -1297l162 -45v-59h-623v59l160 50l-141 370h-406l-147 -375l159 -45v-59h-434zM416 1645q0 57 42 100t101 43t103.5 -43t44.5 -100q0 -61 -44.5 -103.5t-103.5 -42.5t-101 41t-42 105zM510 571h334l-162 433zM852 1645q0 57 42 100 t101.5 43t103.5 -43t44 -100q0 -61 -44 -103.5t-104 -42.5q-61 0 -102 41t-41 105z" />
<glyph unicode="&#xc5;" horiz-adv-x="1544" d="M51 0v59l164 47l533 1295h67l506 -1297l162 -45v-59h-623v59l160 50l-141 370h-406l-147 -375l159 -45v-59h-434zM510 571h334l-162 433zM584 1657q0 84 56 135t142 51q84 0 141.5 -51t57.5 -135t-57.5 -134t-141.5 -50q-86 0 -142 50t-56 134zM705 1657q0 -55 22.5 -86 t57 -31t57 31t22.5 86t-22.5 85t-57 30t-57 -30t-22.5 -85z" />
<glyph unicode="&#xc6;" horiz-adv-x="1990" d="M31 0v59l164 47l702 1164l-154 43v59h1102v-366h-57l-115 280h-409v-524h235l72 203h53v-492h-53l-72 203h-235v-590h426l131 326h57l-18 -412h-1039v59l162 45v375h-446l-222 -375l160 -45v-59h-444zM592 571h391v660z" />
<glyph unicode="&#xc7;" horiz-adv-x="1437" d="M113 676q0 188 56 330.5t156.5 226.5t227.5 126t281 42q115 0 252 -29t210 -59l13 -328h-76q-98 342 -393 342q-209 0 -325 -172t-116 -455q0 -303 115 -477t348 -174q143 0 241.5 92t127.5 254h84l-27 -327q-209 -90 -422 -97l-86 -92q205 -17 205 -162 q0 -84 -66.5 -141t-175.5 -57q-96 0 -174 41l39 80q53 -33 117 -33q33 0 57.5 18.5t24.5 48.5q0 74 -164 74l-22 53l135 174q-301 20 -472 193.5t-171 507.5z" />
<glyph unicode="&#xc8;" horiz-adv-x="1251" d="M82 0v59l162 45v1164l-162 45v59h1024v-366h-57l-115 280h-410v-524h236l71 203h54v-492h-54l-71 203h-236v-590h426l131 326h58l-19 -412h-1038zM358 1683q0 35 53.5 70t118.5 49q91 -125 265 -270l-47 -55q-117 35 -253.5 99t-136.5 107z" />
<glyph unicode="&#xc9;" horiz-adv-x="1251" d="M82 0v59l162 45v1164l-162 45v59h1024v-366h-57l-115 280h-410v-524h236l71 203h54v-492h-54l-71 203h-236v-590h426l131 326h58l-19 -412h-1038zM428 1532q174 145 264 270q66 -14 119 -49t53 -70q0 -43 -136 -107t-253 -99z" />
<glyph unicode="&#xca;" horiz-adv-x="1251" d="M82 0v59l162 45v1164l-162 45v59h1024v-366h-57l-115 280h-410v-524h236l71 203h54v-492h-54l-71 203h-236v-590h426l131 326h58l-19 -412h-1038zM371 1538q139 161 207 272h104q68 -111 207 -272l-66 -51l-194 135l-193 -135z" />
<glyph unicode="&#xcb;" horiz-adv-x="1251" d="M82 0v59l162 45v1164l-162 45v59h1024v-366h-57l-115 280h-410v-524h236l71 203h54v-492h-54l-71 203h-236v-590h426l131 326h58l-19 -412h-1038zM262 1645q0 57 42 100t101.5 43t103.5 -43t44 -100q0 -61 -44 -103.5t-103 -42.5q-61 0 -102.5 41t-41.5 105zM698 1645 q0 57 42 100t101.5 43t103.5 -43t44 -100q0 -61 -44 -103.5t-103.5 -42.5t-101.5 41t-42 105z" />
<glyph unicode="&#xcc;" horiz-adv-x="768" d="M82 0v59l162 45v1164l-162 45v59h604v-59l-162 -45v-1164l162 -45v-59h-604zM133 1683q0 35 53.5 70t118.5 49q90 -125 264 -270l-47 -55q-117 35 -253 99t-136 107z" />
<glyph unicode="&#xcd;" horiz-adv-x="768" d="M82 0v59l162 45v1164l-162 45v59h604v-59l-162 -45v-1164l162 -45v-59h-604zM207 1532q174 145 264 270q66 -14 119 -49t53 -70q0 -43 -136 -107t-253 -99z" />
<glyph unicode="&#xce;" horiz-adv-x="768" d="M82 0v59l162 45v1164l-162 45v59h604v-59l-162 -45v-1164l162 -45v-59h-604zM125 1538q139 161 207 272h104q68 -111 207 -272l-65 -51l-195 135l-193 -135z" />
<glyph unicode="&#xcf;" horiz-adv-x="768" d="M20 1645q0 57 42 100t101.5 43t103.5 -43t44 -100q0 -61 -44 -103.5t-103 -42.5q-61 0 -102.5 41t-41.5 105zM82 0v59l162 45v1164l-162 45v59h604v-59l-162 -45v-1164l162 -45v-59h-604zM457 1645q0 57 42 100t101 43t103.5 -43t44.5 -100q0 -61 -44.5 -103.5 t-103.5 -42.5t-101 41t-42 105z" />
<glyph unicode="&#xd0;" horiz-adv-x="1609" d="M82 651v119h174v498l-162 45v59h668q360 0 547.5 -166t187.5 -485q0 -352 -198.5 -536.5t-561.5 -184.5h-643v59l162 45v547h-174zM537 86h172q242 0 371.5 158.5t129.5 457.5q0 586 -497 586h-176v-518h247v-119h-247v-565z" />
<glyph unicode="&#xd1;" horiz-adv-x="1538" d="M72 0v59l161 45v1164l-161 45v59h452l672 -903v799l-162 45v59h432v-59l-159 -45v-1286h-84l-879 1177v-1055l162 -45v-59h-434zM477 1530q25 133 66 195.5t112 62.5q41 0 139.5 -43t129.5 -43q33 0 51 22.5t41 79.5l76 -18q-25 -133 -66 -195.5t-113 -62.5 q-41 0 -139 43t-129 43q-33 0 -51.5 -22.5t-40.5 -80.5z" />
<glyph unicode="&#xd2;" horiz-adv-x="1605" d="M113 684q0 317 190.5 517t517.5 200q330 0 501 -197.5t171 -519.5q0 -309 -185.5 -511t-502.5 -202q-338 0 -515 188.5t-177 524.5zM399 690q0 -643 422 -643q104 0 182 57.5t121 152.5t62.5 202.5t19.5 224.5q0 317 -107.5 479t-305.5 162q-193 0 -293.5 -172 t-100.5 -463zM543 1683q0 35 53 70t119 49q90 -125 264 -270l-47 -55q-117 35 -253 99t-136 107z" />
<glyph unicode="&#xd3;" horiz-adv-x="1605" d="M113 684q0 317 190.5 517t517.5 200q330 0 501 -197.5t171 -519.5q0 -309 -185.5 -511t-502.5 -202q-338 0 -515 188.5t-177 524.5zM399 690q0 -643 422 -643q104 0 182 57.5t121 152.5t62.5 202.5t19.5 224.5q0 317 -107.5 479t-305.5 162q-193 0 -293.5 -172 t-100.5 -463zM625 1532q174 145 264 270q66 -14 119 -49t53 -70q0 -43 -136 -107t-253 -99z" />
<glyph unicode="&#xd4;" horiz-adv-x="1605" d="M113 684q0 317 190.5 517t517.5 200q330 0 501 -197.5t171 -519.5q0 -309 -185.5 -511t-502.5 -202q-338 0 -515 188.5t-177 524.5zM399 690q0 -643 422 -643q104 0 182 57.5t121 152.5t62.5 202.5t19.5 224.5q0 317 -107.5 479t-305.5 162q-193 0 -293.5 -172 t-100.5 -463zM543 1538q139 161 207 272h104q68 -111 207 -272l-66 -51l-194 135l-193 -135z" />
<glyph unicode="&#xd5;" horiz-adv-x="1605" d="M113 684q0 317 190.5 517t517.5 200q330 0 501 -197.5t171 -519.5q0 -309 -185.5 -511t-502.5 -202q-338 0 -515 188.5t-177 524.5zM399 690q0 -643 422 -643q104 0 182 57.5t121 152.5t62.5 202.5t19.5 224.5q0 317 -107.5 479t-305.5 162q-193 0 -293.5 -172 t-100.5 -463zM510 1530q25 133 65.5 195.5t112.5 62.5q41 0 139.5 -43t128.5 -43q33 0 51.5 22.5t41.5 79.5l75 -18q-25 -133 -65.5 -195.5t-112.5 -62.5q-41 0 -139 43t-129 43q-33 0 -51.5 -22.5t-40.5 -80.5z" />
<glyph unicode="&#xd6;" horiz-adv-x="1605" d="M113 684q0 317 190.5 517t517.5 200q330 0 501 -197.5t171 -519.5q0 -309 -185.5 -511t-502.5 -202q-338 0 -515 188.5t-177 524.5zM399 690q0 -643 422 -643q104 0 182 57.5t121 152.5t62.5 202.5t19.5 224.5q0 317 -107.5 479t-305.5 162q-193 0 -293.5 -172 t-100.5 -463zM438 1645q0 57 42 100t101.5 43t103.5 -43t44 -100q0 -61 -44 -103.5t-103 -42.5q-61 0 -102.5 41t-41.5 105zM874 1645q0 57 42 100t101.5 43t103.5 -43t44 -100q0 -61 -44 -103.5t-103.5 -42.5t-101.5 41t-42 105z" />
<glyph unicode="&#xd7;" d="M180 326l291 290l-291 293l94 90l289 -290l289 290l94 -90l-291 -293l291 -290l-94 -90l-289 288l-289 -288z" />
<glyph unicode="&#xd8;" horiz-adv-x="1605" d="M113 684q0 317 190.5 517t517.5 200q205 0 357 -84l92 125h137l-137 -189q223 -190 223 -569q0 -309 -185.5 -511t-502.5 -202q-236 0 -395 95l-99 -136h-139l145 201q-205 186 -204 553zM399 690q0 -227 54 -375l630 871q-104 139 -290 139q-193 0 -293.5 -172 t-100.5 -463zM508 203q108 -156 313 -156q104 0 182 57.5t121 152.5t62.5 202.5t19.5 224.5q0 238 -63 393z" />
<glyph unicode="&#xd9;" horiz-adv-x="1529" d="M61 1313v59h605v-59l-162 -45v-801q0 -186 89 -285.5t249 -99.5q162 0 264 108.5t102 319.5v758l-161 45v59h432v-59l-162 -45v-768q0 -258 -145.5 -393.5t-374.5 -135.5q-84 0 -159 11.5t-152.5 44t-134 84t-92.5 138.5t-36 200v819zM547 1683q0 35 53 70t119 49 q90 -125 264 -270l-47 -55q-117 35 -253 99t-136 107z" />
<glyph unicode="&#xda;" horiz-adv-x="1529" d="M61 1313v59h605v-59l-162 -45v-801q0 -186 89 -285.5t249 -99.5q162 0 264 108.5t102 319.5v758l-161 45v59h432v-59l-162 -45v-768q0 -258 -145.5 -393.5t-374.5 -135.5q-84 0 -159 11.5t-152.5 44t-134 84t-92.5 138.5t-36 200v819zM705 1532q174 145 264 270 q66 -14 119 -49t53 -70q0 -43 -136 -107t-253 -99z" />
<glyph unicode="&#xdb;" horiz-adv-x="1529" d="M61 1313v59h605v-59l-162 -45v-801q0 -186 89 -285.5t249 -99.5q162 0 264 108.5t102 319.5v758l-161 45v59h432v-59l-162 -45v-768q0 -258 -145.5 -393.5t-374.5 -135.5q-84 0 -159 11.5t-152.5 44t-134 84t-92.5 138.5t-36 200v819zM584 1538q139 161 207 272h104 q68 -111 207 -272l-66 -51l-194 135l-193 -135z" />
<glyph unicode="&#xdc;" horiz-adv-x="1529" d="M61 1313v59h605v-59l-162 -45v-801q0 -186 89 -285.5t249 -99.5q162 0 264 108.5t102 319.5v758l-161 45v59h432v-59l-162 -45v-768q0 -258 -145.5 -393.5t-374.5 -135.5q-84 0 -159 11.5t-152.5 44t-134 84t-92.5 138.5t-36 200v819zM469 1645q0 57 42 100t101.5 43 t103.5 -43t44 -100q0 -61 -44 -103.5t-103.5 -42.5t-101.5 41t-42 105zM905 1645q0 57 42 100t101.5 43t103.5 -43t44 -100q0 -61 -44 -103.5t-103 -42.5q-61 0 -102.5 41t-41.5 105z" />
<glyph unicode="&#xdd;" horiz-adv-x="1462" d="M41 1313v59h616v-59l-155 -47l329 -549l308 551l-152 45v59h434v-59l-164 -47l-378 -674v-488l170 -45v-59h-621v59l172 45v486l-412 678zM672 1532q174 145 264 270q66 -14 119 -49t53 -70q0 -43 -136 -107t-253 -99z" />
<glyph unicode="&#xde;" horiz-adv-x="1263" d="M82 0v59l162 45v1164l-162 45v59h604v-59l-162 -45v-187h119q125 0 216 -15t168 -53t116 -108.5t39 -175.5q0 -201 -155 -305.5t-382 -104.5h-65v64q317 45 317 346q0 276 -252 277q-51 0 -121 -17v-887l162 -43v-59h-604z" />
<glyph unicode="&#xdf;" horiz-adv-x="1296" d="M72 0v49l137 41v789h-131v92h131v57q0 197 132 328t351 131q186 0 315.5 -73t129.5 -206q0 -68 -58.5 -128t-127 -96t-127 -86t-58.5 -99q0 -41 49 -80t120 -77t141.5 -83t119.5 -113.5t49 -152.5q0 -152 -108.5 -237t-264.5 -85q-139 0 -232 50.5t-93 128.5 q0 141 182 155q16 -270 168 -270q68 0 111 43t43 108q0 68 -69 123.5t-149.5 91t-149.5 106.5t-69 165q0 66 40 132t88.5 113.5t88 114t39.5 131.5q0 111 -53 178.5t-145 67.5q-211 0 -211 -332v-1077h-389z" />
<glyph unicode="&#xe0;" horiz-adv-x="1064" d="M72 160q0 137 146.5 224t414.5 122v227q0 109 -26.5 155t-92.5 46q-82 0 -126 -70.5t-48 -199.5h-76q-166 0 -166 92q0 78 78 135t181.5 82.5t207.5 25.5q328 0 328 -280v-576q0 -55 18.5 -72.5t65.5 -17.5h43l-2 -49q-121 -33 -252 -33q-133 0 -133 123v29 q-129 -152 -326 -152q-236 0 -235 189zM340 211q0 -55 28.5 -85t77.5 -30q47 0 98.5 30t88.5 83v235q-293 -66 -293 -233zM348 1448q0 72 203 72q43 -145 166 -340l-62 -37q-92 61 -199.5 162.5t-107.5 142.5z" />
<glyph unicode="&#xe1;" horiz-adv-x="1064" d="M72 160q0 137 146.5 224t414.5 122v227q0 109 -26.5 155t-92.5 46q-82 0 -126 -70.5t-48 -199.5h-76q-166 0 -166 92q0 78 78 135t181.5 82.5t207.5 25.5q328 0 328 -280v-576q0 -55 18.5 -72.5t65.5 -17.5h43l-2 -49q-121 -33 -252 -33q-133 0 -133 123v29 q-129 -152 -326 -152q-236 0 -235 189zM340 211q0 -55 28.5 -85t77.5 -30q47 0 98.5 30t88.5 83v235q-293 -66 -293 -233zM373 1180q123 195 166 340q203 0 202 -72q0 -41 -107.5 -142.5t-199.5 -162.5z" />
<glyph unicode="&#xe2;" horiz-adv-x="1064" d="M72 160q0 137 146.5 224t414.5 122v227q0 109 -26.5 155t-92.5 46q-82 0 -126 -70.5t-48 -199.5h-76q-166 0 -166 92q0 78 78 135t181.5 82.5t207.5 25.5q328 0 328 -280v-576q0 -55 18.5 -72.5t65.5 -17.5h43l-2 -49q-121 -33 -252 -33q-133 0 -133 123v29 q-129 -152 -326 -152q-236 0 -235 189zM274 1184q105 142 207 332h103q102 -190 207 -332l-66 -41l-193 164l-192 -164zM340 211q0 -55 28.5 -85t77.5 -30q47 0 98.5 30t88.5 83v235q-293 -66 -293 -233z" />
<glyph unicode="&#xe3;" horiz-adv-x="1064" d="M72 160q0 137 146.5 224t414.5 122v227q0 109 -26.5 155t-92.5 46q-82 0 -126 -70.5t-48 -199.5h-76q-166 0 -166 92q0 78 78 135t181.5 82.5t207.5 25.5q328 0 328 -280v-576q0 -55 18.5 -72.5t65.5 -17.5h43l-2 -49q-121 -33 -252 -33q-133 0 -133 123v29 q-129 -152 -326 -152q-236 0 -235 189zM225 1202q25 133 66 195.5t112 62.5q41 0 139.5 -43t129.5 -43q33 0 51 23t41 80l76 -19q-25 -133 -66 -195.5t-112 -62.5q-41 0 -139.5 43t-129.5 43q-33 0 -51 -22.5t-41 -79.5zM340 211q0 -55 28.5 -85t77.5 -30q47 0 98.5 30 t88.5 83v235q-293 -66 -293 -233z" />
<glyph unicode="&#xe4;" horiz-adv-x="1064" d="M72 160q0 137 146.5 224t414.5 122v227q0 109 -26.5 155t-92.5 46q-82 0 -126 -70.5t-48 -199.5h-76q-166 0 -166 92q0 78 78 135t181.5 82.5t207.5 25.5q328 0 328 -280v-576q0 -55 18.5 -72.5t65.5 -17.5h43l-2 -49q-121 -33 -252 -33q-133 0 -133 123v29 q-129 -152 -326 -152q-236 0 -235 189zM168 1323q0 57 42 100t101.5 43t103.5 -43t44 -100q0 -61 -44 -103t-104 -42q-61 0 -102 42t-41 103zM340 211q0 -55 28.5 -85t77.5 -30q47 0 98.5 30t88.5 83v235q-293 -66 -293 -233zM604 1323q0 57 42 100t101.5 43t103.5 -43 t44 -100q0 -61 -44 -103t-103.5 -42t-101.5 42t-42 103z" />
<glyph unicode="&#xe5;" horiz-adv-x="1064" d="M72 160q0 137 146.5 224t414.5 122v227q0 109 -26.5 155t-92.5 46q-82 0 -126 -70.5t-48 -199.5h-76q-166 0 -166 92q0 78 78 135t181.5 82.5t207.5 25.5q328 0 328 -280v-576q0 -55 18.5 -72.5t65.5 -17.5h43l-2 -49q-121 -33 -252 -33q-133 0 -133 123v29 q-129 -152 -326 -152q-236 0 -235 189zM334 1329q0 84 56 135.5t142 51.5q84 0 141.5 -51.5t57.5 -135.5t-57.5 -134t-141.5 -50q-86 0 -142 50t-56 134zM340 211q0 -55 28.5 -85t77.5 -30q47 0 98.5 30t88.5 83v235q-293 -66 -293 -233zM455 1329q0 -55 22.5 -86t57 -31 t57 31t22.5 86t-22.5 85t-57 30t-57 -30t-22.5 -85z" />
<glyph unicode="&#xe6;" horiz-adv-x="1617" d="M72 160q0 272 561 346v227q0 109 -26.5 155t-92.5 46q-82 0 -126 -70.5t-48 -199.5h-76q-166 0 -166 92q0 78 77 135t180.5 82.5t207.5 25.5q195 0 275 -96q131 96 295 96q178 0 285.5 -96t107.5 -266q0 -41 -4 -66h-641v-34q0 -442 315 -443q150 0 291 107l35 -54 q-191 -176 -424 -176q-293 0 -404 193q-145 -188 -401 -193q-88 0 -154.5 42t-66.5 147zM340 211q0 -53 30.5 -84t75.5 -31q119 0 216 140q-31 88 -31 204q-127 -23 -209 -82t-82 -147zM885 633h372q6 68 7 80q0 109 -31 165t-111 56q-90 0 -154.5 -75t-82.5 -226z" />
<glyph unicode="&#xe7;" horiz-adv-x="1034" d="M92 418q0 256 144.5 418.5t386.5 162.5q129 0 228 -58t99 -146q0 -57 -48 -89t-173 -32q-2 125 -31.5 193.5t-111.5 68.5q-111 0 -177.5 -118t-66.5 -320q0 -186 80 -295t227 -109q127 0 279 115l35 -53q-166 -158 -371 -181l-90 -96q205 -17 205 -162q0 -84 -67 -141 t-175 -57q-96 0 -174 41l39 80q53 -33 116 -33q33 0 57.5 18.5t24.5 48.5q0 74 -163 74l-23 53l135 172q-174 14 -279.5 123t-105.5 322z" />
<glyph unicode="&#xe8;" horiz-adv-x="1079" d="M92 438q0 256 145.5 408.5t356.5 152.5q178 0 285.5 -96t107.5 -266q0 -53 -4 -78h-641v-22q0 -442 315 -443q150 0 291 107l35 -54q-191 -176 -424 -176q-223 0 -345 118t-122 349zM346 633h373q6 68 6 80q0 109 -30.5 165t-110.5 56q-90 0 -154.5 -75t-83.5 -226z M362 1448q0 72 203 72q43 -145 166 -340l-61 -37q-92 61 -200 162.5t-108 142.5z" />
<glyph unicode="&#xe9;" horiz-adv-x="1079" d="M92 438q0 256 145.5 408.5t356.5 152.5q178 0 285.5 -96t107.5 -266q0 -53 -4 -78h-641v-22q0 -442 315 -443q150 0 291 107l35 -54q-191 -176 -424 -176q-223 0 -345 118t-122 349zM346 633h373q6 68 6 80q0 109 -30.5 165t-110.5 56q-90 0 -154.5 -75t-83.5 -226z M412 1180q123 195 166 340q203 0 202 -72q0 -41 -107.5 -142.5t-199.5 -162.5z" />
<glyph unicode="&#xea;" horiz-adv-x="1079" d="M92 438q0 256 145.5 408.5t356.5 152.5q178 0 285.5 -96t107.5 -266q0 -53 -4 -78h-641v-22q0 -442 315 -443q150 0 291 107l35 -54q-191 -176 -424 -176q-223 0 -345 118t-122 349zM317 1184q105 142 207 332h103q102 -190 207 -332l-66 -41l-193 164l-192 -164z M346 633h373q6 68 6 80q0 109 -30.5 165t-110.5 56q-90 0 -154.5 -75t-83.5 -226z" />
<glyph unicode="&#xeb;" horiz-adv-x="1079" d="M92 438q0 256 145.5 408.5t356.5 152.5q178 0 285.5 -96t107.5 -266q0 -53 -4 -78h-641v-22q0 -442 315 -443q150 0 291 107l35 -54q-191 -176 -424 -176q-223 0 -345 118t-122 349zM236 1323q0 57 41.5 100t101 43t103.5 -43t44 -100q0 -61 -44 -103t-103.5 -42t-101 42 t-41.5 103zM346 633h373q6 68 6 80q0 109 -30.5 165t-110.5 56q-90 0 -154.5 -75t-83.5 -226zM672 1323q0 57 42 100t101 43t103.5 -43t44.5 -100q0 -61 -44.5 -103t-103.5 -42q-61 0 -102 42t-41 103z" />
<glyph unicode="&#xec;" horiz-adv-x="618" d="M66 0v49l129 39v748l-129 20v55l383 88v-911l129 -39v-49h-512zM98 1448q0 72 203 72q43 -145 166 -340l-61 -37q-92 61 -200 162.5t-108 142.5z" />
<glyph unicode="&#xed;" horiz-adv-x="618" d="M66 0v49l129 39v748l-129 20v55l383 88v-911l129 -39v-49h-512zM166 1180q123 195 166 340q203 0 203 -72q0 -41 -108 -142.5t-200 -162.5z" />
<glyph unicode="&#xee;" horiz-adv-x="618" d="M51 1184q105 142 207 332h102q102 -190 207 -332l-65 -41l-193 164l-192 -164zM66 0v49l129 39v748l-129 20v55l383 88v-911l129 -39v-49h-512z" />
<glyph unicode="&#xef;" horiz-adv-x="618" d="M-53 1323q0 57 42 100t101.5 43t103.5 -43t44 -100q0 -61 -44 -103t-104 -42q-61 0 -102 42t-41 103zM66 0v49l129 39v748l-129 20v55l383 88v-911l129 -39v-49h-512zM383 1323q0 57 42 100t101.5 43t103.5 -43t44 -100q0 -61 -44 -103t-103.5 -42t-101.5 42t-42 103z " />
<glyph unicode="&#xf0;" horiz-adv-x="1118" d="M82 475q0 217 127 359.5t354 142.5q66 0 146 -27q-37 133 -105 230l-256 -109v113l191 82q-98 104 -254 182l32 70q195 -61 359 -193l213 90v-112l-127 -56q264 -268 264 -657q0 -285 -135 -452t-350 -167q-201 0 -330 142.5t-129 361.5zM350 461q0 -178 51.5 -296 t147.5 -118q59 0 102 50t63.5 132t30 159t9.5 157q0 184 -25 315q-61 20 -129 21q-129 0 -189.5 -117t-60.5 -303z" />
<glyph unicode="&#xf1;" horiz-adv-x="1241" d="M66 0v49l129 41v746l-129 20v55l383 88v-155q156 156 346 155q272 0 272 -311v-598l133 -41v-49h-516v49l131 41v572q0 197 -160 196q-106 0 -206 -96v-672l120 -41v-49h-503zM328 1202q25 133 65.5 195.5t112.5 62.5q41 0 139 -43t129 -43q33 0 51 23t41 80l76 -19 q-25 -133 -65.5 -195.5t-112.5 -62.5q-41 0 -139.5 43t-128.5 43q-33 0 -51.5 -22.5t-41.5 -79.5z" />
<glyph unicode="&#xf2;" horiz-adv-x="1167" d="M92 455q0 252 133 398t361 146q219 0 354 -131t135 -352q0 -252 -132 -398.5t-361 -146.5q-219 0 -354.5 131t-135.5 353zM358 485q1 -450 228 -450q111 0 167 119.5t56 330.5q0 451 -227 451q-111 0 -167.5 -120t-56.5 -331zM401 1448q0 72 203 72q43 -145 166 -340 l-61 -37q-92 61 -200 162.5t-108 142.5z" />
<glyph unicode="&#xf3;" horiz-adv-x="1167" d="M92 455q0 252 133 398t361 146q219 0 354 -131t135 -352q0 -252 -132 -398.5t-361 -146.5q-219 0 -354.5 131t-135.5 353zM358 485q1 -450 228 -450q111 0 167 119.5t56 330.5q0 451 -227 451q-111 0 -167.5 -120t-56.5 -331zM457 1180q123 195 166 340q203 0 202 -72 q0 -41 -107.5 -142.5t-199.5 -162.5z" />
<glyph unicode="&#xf4;" horiz-adv-x="1167" d="M92 455q0 252 133 398t361 146q219 0 354 -131t135 -352q0 -252 -132 -398.5t-361 -146.5q-219 0 -354.5 131t-135.5 353zM326 1184q104 142 206 332h103q102 -190 207 -332l-66 -41l-192 164l-193 -164zM358 485q1 -450 228 -450q111 0 167 119.5t56 330.5 q0 451 -227 451q-111 0 -167.5 -120t-56.5 -331z" />
<glyph unicode="&#xf5;" horiz-adv-x="1167" d="M92 455q0 252 133 398t361 146q219 0 354 -131t135 -352q0 -252 -132 -398.5t-361 -146.5q-219 0 -354.5 131t-135.5 353zM287 1202q25 133 65.5 195.5t112.5 62.5q41 0 139 -43t129 -43q33 0 51 23t41 80l76 -19q-25 -133 -65.5 -195.5t-112.5 -62.5q-41 0 -139.5 43 t-128.5 43q-33 0 -51.5 -22.5t-41.5 -79.5zM358 485q1 -450 228 -450q111 0 167 119.5t56 330.5q0 451 -227 451q-111 0 -167.5 -120t-56.5 -331z" />
<glyph unicode="&#xf6;" horiz-adv-x="1167" d="M92 455q0 252 133 398t361 146q219 0 354 -131t135 -352q0 -252 -132 -398.5t-361 -146.5q-219 0 -354.5 131t-135.5 353zM219 1323q0 57 42 100t101.5 43t103.5 -43t44 -100q0 -61 -44 -103t-103.5 -42t-101.5 42t-42 103zM358 485q1 -450 228 -450q111 0 167 119.5 t56 330.5q0 451 -227 451q-111 0 -167.5 -120t-56.5 -331zM655 1323q0 57 42 100t101.5 43t103.5 -43t44 -100q0 -61 -44 -103t-103 -42q-61 0 -102.5 42t-41.5 103z" />
<glyph unicode="&#xf7;" d="M102 553v133h922v-133h-922zM434 309q0 55 37 93t90 38q55 0 93 -37.5t38 -93.5q0 -53 -38 -90t-93 -37q-53 0 -90 38t-37 89zM434 934q0 53 37 91t90 38q55 0 93 -38t38 -91t-38 -91t-93 -38q-53 0 -90 38t-37 91z" />
<glyph unicode="&#xf8;" horiz-adv-x="1167" d="M92 455q0 252 133 398t361 146q141 0 252 -57l59 80h131l-102 -141q150 -133 149 -365q0 -252 -132 -398.5t-361 -146.5q-150 0 -265 64l-61 -86h-129l106 147q-141 131 -141 359zM358 485q0 -115 15 -194l379 528q-57 117 -170 117q-111 0 -167.5 -120t-56.5 -331z M410 162q57 -127 176 -127q111 0 167 119.5t56 330.5q0 117 -18 207z" />
<glyph unicode="&#xf9;" horiz-adv-x="1200" d="M31 856v55l383 88v-692q0 -195 159 -194q109 0 193 90v633l-129 20v55l383 88v-874l129 -21v-53l-383 -80v144q-156 -143 -332 -144q-137 0 -205.5 81t-68.5 229v555zM326 1448q0 72 202 72q43 -145 166 -340l-61 -37q-92 61 -199.5 162.5t-107.5 142.5z" />
<glyph unicode="&#xfa;" horiz-adv-x="1200" d="M31 856v55l383 88v-692q0 -195 159 -194q109 0 193 90v633l-129 20v55l383 88v-874l129 -21v-53l-383 -80v144q-156 -143 -332 -144q-137 0 -205.5 81t-68.5 229v555zM489 1180q123 195 166 340q203 0 203 -72q0 -41 -107.5 -142.5t-199.5 -162.5z" />
<glyph unicode="&#xfb;" horiz-adv-x="1200" d="M31 856v55l383 88v-692q0 -195 159 -194q109 0 193 90v633l-129 20v55l383 88v-874l129 -21v-53l-383 -80v144q-156 -143 -332 -144q-137 0 -205.5 81t-68.5 229v555zM319 1184q105 142 207 332h103q102 -190 207 -332l-66 -41l-192 164l-193 -164z" />
<glyph unicode="&#xfc;" horiz-adv-x="1200" d="M31 856v55l383 88v-692q0 -195 159 -194q109 0 193 90v633l-129 20v55l383 88v-874l129 -21v-53l-383 -80v144q-156 -143 -332 -144q-137 0 -205.5 81t-68.5 229v555zM211 1323q0 57 42 100t101.5 43t103.5 -43t44 -100q0 -61 -44 -103t-103.5 -42t-101.5 42t-42 103z M647 1323q0 57 42 100t101.5 43t103.5 -43t44 -100q0 -61 -44 -103t-103 -42q-61 0 -102.5 42t-41.5 103z" />
<glyph unicode="&#xfd;" horiz-adv-x="1132" d="M31 922v49h524v-49l-135 -45l231 -568l223 563l-133 50v49h361v-49l-131 -50l-420 -1022q-33 -82 -59.5 -130t-71.5 -101t-108.5 -77.5t-147.5 -24.5q-45 0 -76 19.5t-31 60.5q0 72 72 137q92 -72 166 -72q53 0 100 65.5t135 274.5l-378 872zM522 1180q123 195 166 340 q203 0 203 -72q0 -41 -107.5 -142.5t-199.5 -162.5z" />
<glyph unicode="&#xfe;" horiz-adv-x="1185" d="M20 -422l130 39v1712l-130 21v55l383 82v-645q51 66 136.5 111.5t171.5 45.5q186 0 284.5 -128t98.5 -326q0 -150 -44 -264.5t-120 -180t-163 -97.5t-185 -32q-78 0 -179 23v-377l129 -39v-49h-512v49zM403 106q90 -72 205 -71q111 0 173.5 115.5t62.5 291.5 q0 186 -61.5 301t-180.5 115q-106 0 -199 -100v-652z" />
<glyph unicode="&#xff;" horiz-adv-x="1132" d="M31 922v49h524v-49l-135 -45l231 -568l223 563l-133 50v49h361v-49l-131 -50l-420 -1022q-33 -82 -59.5 -130t-71.5 -101t-108.5 -77.5t-147.5 -24.5q-45 0 -76 19.5t-31 60.5q0 72 72 137q92 -72 166 -72q53 0 100 65.5t135 274.5l-378 872zM240 1323q0 57 42 100 t101 43t103 -43t44 -100q0 -61 -44 -103t-103 -42t-101 42t-42 103zM676 1323q0 57 42 100t101.5 43t103.5 -43t44 -100q0 -61 -44 -103t-104 -42q-61 0 -102 42t-41 103z" />
<glyph unicode="&#x152;" horiz-adv-x="1945" d="M113 682q0 326 195.5 508t533.5 182h958v-366h-57l-115 280h-409v-524h235l72 203h53v-492h-53l-72 203h-235v-590h426l131 326h57l-18 -412h-990q-356 0 -534 158.5t-178 523.5zM399 690q0 -285 115 -446.5t340 -161.5h84v1210h-111q-215 0 -321.5 -167t-106.5 -435z " />
<glyph unicode="&#x153;" horiz-adv-x="1798" d="M92 455q0 252 133 398t361 146q238 0 372 -151q141 152 355 151q178 0 285.5 -96t107.5 -266q0 -41 -4 -66h-641v-34q0 -442 315 -443q150 0 291 107l35 -54q-190 -176 -424 -176q-236 0 -354 125q-129 -125 -342 -125q-219 0 -354.5 131t-135.5 353zM358 485 q1 -450 228 -450q111 0 167 119.5t56 330.5q0 451 -227 451q-111 0 -167.5 -120t-56.5 -331zM1065 633h373q6 68 6 80q0 109 -30.5 165t-110.5 56q-90 0 -155 -75t-83 -226z" />
<glyph unicode="&#x178;" horiz-adv-x="1462" d="M41 1313v59h616v-59l-155 -47l329 -549l308 551l-152 45v59h434v-59l-164 -47l-378 -674v-488l170 -45v-59h-621v59l172 45v486l-412 678zM430 1645q0 57 42 100t101.5 43t103.5 -43t44 -100q0 -61 -44 -103.5t-104 -42.5q-61 0 -102 41t-41 105zM866 1645q0 57 42 100 t101.5 43t103.5 -43t44 -100q0 -61 -44 -103.5t-103.5 -42.5t-101.5 41t-42 105z" />
<glyph unicode="&#x2c6;" horiz-adv-x="819" d="M152 1184q104 142 206 332h103q102 -190 207 -332l-66 -41l-192 164l-193 -164z" />
<glyph unicode="&#x2dc;" horiz-adv-x="819" d="M102 1202q25 133 66 195.5t113 62.5q41 0 139 -43t129 -43q33 0 51 23t41 80l76 -19q-25 -133 -66 -195.5t-112 -62.5q-41 0 -139.5 43t-129.5 43q-33 0 -51 -22.5t-41 -79.5z" />
<glyph unicode="&#x2000;" horiz-adv-x="921" />
<glyph unicode="&#x2001;" horiz-adv-x="1843" />
<glyph unicode="&#x2002;" horiz-adv-x="921" />
<glyph unicode="&#x2003;" horiz-adv-x="1843" />
<glyph unicode="&#x2004;" horiz-adv-x="614" />
<glyph unicode="&#x2005;" horiz-adv-x="460" />
<glyph unicode="&#x2006;" horiz-adv-x="307" />
<glyph unicode="&#x2007;" horiz-adv-x="307" />
<glyph unicode="&#x2008;" horiz-adv-x="230" />
<glyph unicode="&#x2009;" horiz-adv-x="368" />
<glyph unicode="&#x200a;" horiz-adv-x="102" />
<glyph unicode="&#x2010;" horiz-adv-x="716" d="M72 440v150h573v-150h-573z" />
<glyph unicode="&#x2011;" horiz-adv-x="716" d="M72 440v150h573v-150h-573z" />
<glyph unicode="&#x2012;" horiz-adv-x="716" d="M72 440v150h573v-150h-573z" />
<glyph unicode="&#x2013;" horiz-adv-x="1228" d="M72 440v150h1085v-150h-1085z" />
<glyph unicode="&#x2014;" horiz-adv-x="1843" d="M72 440v150h1700v-150h-1700z" />
<glyph unicode="&#x2018;" horiz-adv-x="548" d="M117 1010q0 121 71.5 223t176.5 164l43 -56q-137 -98 -168 -213h30q59 0 100.5 -36.5t41.5 -102t-40.5 -107.5t-103.5 -42q-66 0 -108.5 45t-42.5 125z" />
<glyph unicode="&#x2019;" horiz-adv-x="548" d="M137 1251.5q0 65.5 40.5 107.5t103.5 42q66 0 108.5 -45t42.5 -125q0 -121 -71.5 -223.5t-176.5 -163.5l-43 55q137 98 168 213h-30q-59 0 -100.5 37t-41.5 102.5z" />
<glyph unicode="&#x201a;" horiz-adv-x="548" d="M127 118.5q0 65.5 40 107.5t103 42q66 0 109 -45t43 -125q0 -121 -71.5 -223t-176.5 -164l-43 56q137 98 168 213h-31q-59 0 -100 36.5t-41 102z" />
<glyph unicode="&#x201c;" horiz-adv-x="937" d="M117 1014q0 121 71.5 223t176.5 164l43 -55q-137 -98 -168 -213h30q59 0 100.5 -37t41.5 -102.5t-40.5 -107.5t-103.5 -42q-66 0 -108.5 45t-42.5 125zM506 1014q0 121 71.5 223t176.5 164l43 -55q-137 -98 -168 -213h30q59 0 100.5 -37t41.5 -102.5t-40.5 -107.5 t-103.5 -42q-66 0 -108.5 45t-42.5 125z" />
<glyph unicode="&#x201d;" horiz-adv-x="937" d="M137 1251.5q0 65.5 40.5 107.5t103.5 42q66 0 108.5 -45t42.5 -125q0 -121 -71.5 -223.5t-176.5 -163.5l-43 55q137 98 168 213h-30q-59 0 -100.5 37t-41.5 102.5zM526 1251.5q0 65.5 40.5 107.5t103.5 42q66 0 108.5 -45t42.5 -125q0 -121 -71.5 -223.5t-176.5 -163.5 l-43 55q137 98 168 213h-30q-59 0 -100.5 37t-41.5 102.5z" />
<glyph unicode="&#x201e;" horiz-adv-x="937" d="M127 118.5q0 65.5 40 107.5t103 42q66 0 109 -45t43 -125q0 -121 -71.5 -223t-176.5 -164l-43 56q137 98 168 213h-31q-59 0 -100 36.5t-41 102zM516 118.5q0 65.5 40 107.5t103 42q66 0 109 -45t43 -125q0 -121 -71.5 -223t-176.5 -164l-43 56q137 98 168 213h-31 q-59 0 -100 36.5t-41 102z" />
<glyph unicode="&#x2022;" horiz-adv-x="854" d="M127 647q0 127 86 214t211 87q129 0 215 -87t86 -214q0 -123 -86 -210t-215 -87q-125 0 -211 87t-86 210z" />
<glyph unicode="&#x2026;" horiz-adv-x="1536" d="M102 123q0 61 45.5 105t108.5 44q66 0 110 -43t44 -108q0 -61 -45.5 -105.5t-108.5 -44.5q-66 0 -110 43t-44 109zM614 123q0 61 45.5 105t108.5 44q66 0 110 -43t44 -108q0 -61 -45.5 -105.5t-108.5 -44.5q-66 0 -110 43t-44 109zM1126 123q0 61 45.5 105t108.5 44 q66 0 110 -43t44 -108q0 -61 -45.5 -105.5t-108.5 -44.5q-66 0 -110 43t-44 109z" />
<glyph unicode="&#x202f;" horiz-adv-x="368" />
<glyph unicode="&#x2039;" horiz-adv-x="724" d="M92 504l457 422l53 -49l-242 -373l242 -377l-53 -45z" />
<glyph unicode="&#x203a;" horiz-adv-x="724" d="M123 131l242 373l-242 377l53 45l457 -422l-457 -422z" />
<glyph unicode="&#x205f;" horiz-adv-x="460" />
<glyph unicode="&#x20ac;" d="M76 510v98h94v49q0 45 2 68h-96v98h104q37 262 182.5 395.5t342.5 133.5q82 0 177 -24.5t146 -49.5l8 -322h-78q-70 317 -249 318q-72 0 -125.5 -69.5t-81 -166t-39.5 -215.5h354v-98h-360v-117h360v-98h-354q37 -453 254 -453q106 0 158.5 87t76.5 272h84l-26 -359 q-141 -86 -301 -86q-203 0 -348.5 142.5t-180.5 396.5h-104z" />
<glyph unicode="&#x2122;" horiz-adv-x="2111" d="M113 1120v252h757v-252h-55l-65 178h-170v-604l108 -32v-50h-393v50l108 32v604h-167l-62 -178h-61zM940 612v50l102 32v592l-102 31v55h317l230 -520l231 520h287v-55l-102 -31v-592l106 -32v-50h-381v50l101 32v518l-271 -616h-53l-287 621v-523l99 -32v-50h-277z" />
<glyph unicode="&#xe000;" horiz-adv-x="970" d="M0 970h970v-970h-970v970z" />
<glyph unicode="&#xfb01;" horiz-adv-x="1341" d="M72 0v49l131 41v789h-131v92h131v59q2 188 159.5 322.5t311.5 134.5q80 0 80 -80q0 -74 -60 -137q-106 70 -188 69q-80 0 -80 -102q0 -119 29 -266h186v-92h-186v-789l133 -41v-49h-516zM788 0v49l130 39v748l-130 20v55l383 88v-911l129 -39v-49h-512zM889 1319 q0 61 45 105t108 44q66 0 110 -43t44 -108q0 -61 -45.5 -105.5t-108.5 -44.5q-66 0 -109.5 43t-43.5 109z" />
<glyph unicode="&#xfb02;" horiz-adv-x="1357" d="M72 0v49l131 41v789h-131v92h131v59q2 188 159.5 322.5t311.5 134.5q80 0 80 -80q0 -74 -60 -137q-106 70 -188 69q-80 0 -80 -102q0 -119 29 -266h186v-92h-186v-789l133 -41v-49h-516zM784 0v49l129 39v1241l-129 21v55l383 82v-1399l129 -39v-49h-512z" />
<glyph unicode="&#xfb03;" horiz-adv-x="2062" d="M1510 0v49l129 39v748l-129 20v55l383 88v-911l129 -39v-49h-512zM1610 1319q0 61 45 105t108 44q66 0 110 -43t44 -108q0 -61 -45.5 -105.5t-108.5 -44.5q-66 0 -109.5 43t-43.5 109zM794 0v49l131 41v789h-131v92h131v59q2 188 159.5 322.5t311.5 134.5q80 0 80 -80 q0 -74 -60 -137q-105 69 -186 69h-2q-80 0 -80 -102q0 -119 29 -266h186v-92h-186v-789l133 -41v-49h-516zM72 0v49l131 41v789h-131v92h131v59q2 188 159.5 322.5t311.5 134.5q80 0 80 -80q0 -74 -60 -137q-105 69 -186 69h-2q-80 0 -80 -102q0 -119 29 -266h186v-92h-186 v-789l133 -41v-49h-516z" />
<glyph unicode="&#xfb04;" horiz-adv-x="2078" d="M1505 0v49l129 39v1241l-129 21v55l383 82v-1399l129 -39v-49h-512zM794 0v49l131 41v789h-131v92h131v59q2 188 159.5 322.5t311.5 134.5q80 0 80 -80q0 -74 -60 -137q-105 69 -186 69h-2q-80 0 -80 -102q0 -119 29 -266h186v-92h-186v-789l133 -41v-49h-516zM72 0v49 l131 41v789h-131v92h131v59q2 188 159.5 322.5t311.5 134.5q80 0 80 -80q0 -74 -60 -137q-105 69 -186 69h-2q-80 0 -80 -102q0 -119 29 -266h186v-92h-186v-789l133 -41v-49h-516z" />
</font>
</defs>
</svg>
